M48
;Layer_Color=9474304
;FILE_FORMAT=2:5
INCH,LZ
;TYPE=PLATED
T01F00S00C0.02800
T02F00S00C0.04000
T03F00S00C0.05500
T04F00S00C0.11500
T05F00S00C0.13600
;TYPE=NON_PLATED
T06F00S00C0.03543
%
T01
X0105Y00447
X01463Y00129
X01746Y00217
X05486Y01495
X054465Y01767
X05218Y0170607
X04793Y02004
X04246Y01706
X04304Y01637
X03788Y0128
X03888Y01032
X03786Y00571
X04288
X03313Y00668
X02911
X03057Y01032
X02512Y01031
X02321Y00762
X02206Y0163
X03282Y01698
X03384Y01891
X03334Y02036
X03559Y01763
X01868Y01436
X00953Y01314
X01049Y01655
X00837Y01873
X0110807Y02514
X0149Y02397
X02337Y02558
X02436Y03523
X03561Y02209
X04052Y02611
X03926Y02911
X03985Y03515
X04631Y03643
X0461Y02257
X04391Y02126
X0550088Y0318461
X0536Y0355348
X04892Y03943
X0424614Y03841
X02453Y0379
T02
X0175Y00421
X0185
X0195
X0205
X0215
X0225
X02511Y00292
X02611
X02711
X02811
X02911
X03011
X03788
X03888
X03988
X04088
X04188
X04288
X05777Y0193105
Y0203105
X0205Y009
X0195
X0185
X0175
X0165
X0155
X0145
X0135
X0125
X0115
X0105
X0095
X0085
X0075
X0065
Y008
X0075
X0085
X0095
X0105
X0115
X0125
X0135
X0145
X0155
X0165
X0175
X0185
X0195
X0205
X0055
X0045
X0035
X0025
Y009
X0035
X0045
X0055
Y032
X0045
X0035
X0025
Y033
X0035
X0045
X0055
X0065
Y032
X0075
Y033
X0085
Y032
X0095
Y033
X0105
Y032
X0115
Y033
X0125
Y032
X0135
Y033
X0145
Y032
X0155
Y033
X0165
Y032
X0175
Y033
X0185
Y032
X0195
Y033
X0205
Y032
X0286082Y0364784
X0296082
X0306082
X0316082
X0326082
X0336082
X0346082
X0356082
X05777Y0223105
Y0213105
T03
X04633Y00292
X04833
X05239Y003
X05439
T04
X0267882Y02419
Y0367884
X0373
Y02419
T05
X0025Y0025
X0575
Y0375
X0025
T06
X0583Y03098
Y0327123
M30
