G04*
G04 #@! TF.GenerationSoftware,Altium Limited,Altium Designer,24.8.2 (39)*
G04*
G04 Layer_Physical_Order=2*
G04 Layer_Color=16711680*
%FSLAX25Y25*%
%MOIN*%
G70*
G04*
G04 #@! TF.SameCoordinates,32E85319-11A5-466C-997F-65B2DE774383*
G04*
G04*
G04 #@! TF.FilePolarity,Positive*
G04*
G01*
G75*
%ADD14C,0.01000*%
%ADD59C,0.03000*%
%ADD60C,0.03543*%
%ADD61R,0.06500X0.06500*%
%ADD62C,0.06500*%
%ADD63R,0.07000X0.07000*%
%ADD64C,0.07000*%
%ADD65R,0.10000X0.10000*%
%ADD66C,0.10000*%
%ADD67R,0.06500X0.06500*%
%ADD68C,0.14500*%
%ADD69C,0.05000*%
%ADD70C,0.18000*%
G36*
X600000Y0D02*
X0D01*
Y400000D01*
X600000D01*
Y0D01*
D02*
G37*
%LPC*%
G36*
X462514Y396007D02*
X462514Y396007D01*
X62486D01*
X62486Y396007D01*
X62057Y395922D01*
X61693Y395679D01*
X61693Y395679D01*
X56007Y389993D01*
X55764Y389629D01*
X55678Y389200D01*
X55678Y389200D01*
Y356336D01*
X6586D01*
X6157Y356250D01*
X5793Y356007D01*
X5793Y356007D01*
X5207Y355421D01*
X4964Y355058D01*
X4878Y354628D01*
X4879Y354628D01*
Y46700D01*
X4878Y46700D01*
X4964Y46271D01*
X5207Y45907D01*
X7607Y43507D01*
X7607Y43507D01*
X7971Y43264D01*
X8400Y43178D01*
X102299D01*
X102519Y42797D01*
X103097Y42219D01*
X103803Y41811D01*
X104592Y41600D01*
X105408D01*
X106197Y41811D01*
X106903Y42219D01*
X107481Y42797D01*
X107889Y43503D01*
X108100Y44292D01*
Y45108D01*
X107889Y45897D01*
X107481Y46603D01*
X106903Y47181D01*
X106388Y47478D01*
X106499Y48339D01*
X106555Y48478D01*
X115478D01*
Y10000D01*
X115478Y10000D01*
X115564Y9571D01*
X115807Y9207D01*
X117493Y7521D01*
X117493Y7521D01*
X117857Y7278D01*
X118286Y7193D01*
X118286Y7193D01*
X342514D01*
X342514Y7193D01*
X342943Y7278D01*
X343307Y7521D01*
X343893Y8107D01*
X343893Y8107D01*
X344136Y8471D01*
X344221Y8900D01*
Y162578D01*
X427491D01*
X427511Y162503D01*
X427919Y161797D01*
X428497Y161219D01*
X429203Y160811D01*
X429992Y160600D01*
X430808D01*
X431597Y160811D01*
X432303Y161219D01*
X432881Y161797D01*
X433289Y162503D01*
X433500Y163292D01*
Y164108D01*
X433289Y164897D01*
X432881Y165603D01*
X432303Y166181D01*
X431597Y166589D01*
X430808Y166800D01*
X429992D01*
X429203Y166589D01*
X428497Y166181D01*
X427919Y165603D01*
X427511Y164897D01*
X427491Y164822D01*
X343686D01*
X343257Y164736D01*
X342893Y164493D01*
X342893Y164493D01*
X342307Y163907D01*
X342064Y163543D01*
X341978Y163114D01*
X341979Y163114D01*
Y9436D01*
X148500D01*
X148222Y10359D01*
X148220Y10436D01*
X148781Y10997D01*
X149189Y11703D01*
X149400Y12492D01*
Y13308D01*
X149189Y14097D01*
X148781Y14803D01*
X148203Y15381D01*
X147497Y15789D01*
X147422Y15809D01*
Y62114D01*
X147336Y62543D01*
X147093Y62907D01*
X147093Y62907D01*
X146507Y63493D01*
X146143Y63736D01*
X145714Y63822D01*
X145714Y63822D01*
X17921D01*
Y114878D01*
X147720D01*
X147720Y114878D01*
X148149Y114964D01*
X148513Y115207D01*
X150393Y117087D01*
X150393Y117087D01*
X150636Y117451D01*
X150722Y117880D01*
X150722Y117880D01*
Y237114D01*
X150903Y237219D01*
X151481Y237797D01*
X151889Y238503D01*
X152100Y239292D01*
Y240108D01*
X151889Y240897D01*
X151481Y241603D01*
X150903Y242181D01*
X150197Y242589D01*
X149408Y242800D01*
X148592D01*
X147803Y242589D01*
X147097Y242181D01*
X146519Y241603D01*
X146111Y240897D01*
X145900Y240108D01*
Y239292D01*
X146111Y238503D01*
X146519Y237797D01*
X147097Y237219D01*
X147803Y236811D01*
X148478Y236630D01*
Y118345D01*
X147255Y117122D01*
X17386D01*
X16957Y117036D01*
X16593Y116793D01*
X16593Y116793D01*
X16007Y116207D01*
X15764Y115843D01*
X15678Y115414D01*
X15678Y115414D01*
Y63286D01*
X15678Y63286D01*
X15764Y62857D01*
X16007Y62493D01*
X16593Y61907D01*
X16593Y61907D01*
X16957Y61664D01*
X17386Y61578D01*
X145178D01*
Y15809D01*
X145103Y15789D01*
X144397Y15381D01*
X143819Y14803D01*
X143411Y14097D01*
X143200Y13308D01*
Y12492D01*
X143411Y11703D01*
X143819Y10997D01*
X144380Y10436D01*
X144378Y10359D01*
X144100Y9436D01*
X118750D01*
X117722Y10465D01*
Y49014D01*
X117636Y49443D01*
X117393Y49807D01*
X117393Y49807D01*
X116807Y50393D01*
X116443Y50636D01*
X116014Y50722D01*
X116014Y50722D01*
X11322D01*
Y341835D01*
X13865Y344378D01*
X23878D01*
Y333944D01*
X23417Y333821D01*
X22482Y333281D01*
X21719Y332518D01*
X21179Y331582D01*
X20900Y330540D01*
Y329460D01*
X21179Y328417D01*
X21719Y327483D01*
X22482Y326719D01*
X23417Y326179D01*
X24460Y325900D01*
X25540D01*
X26583Y326179D01*
X27518Y326719D01*
X28281Y327483D01*
X28821Y328417D01*
X29100Y329460D01*
Y330540D01*
X28821Y331582D01*
X28281Y332518D01*
X27518Y333281D01*
X26583Y333821D01*
X26122Y333944D01*
Y344914D01*
X26036Y345343D01*
X25793Y345707D01*
X25793Y345707D01*
X25207Y346293D01*
X24843Y346536D01*
X24414Y346622D01*
X24414Y346621D01*
X13400D01*
X12971Y346536D01*
X12607Y346293D01*
X12607Y346293D01*
X9407Y343093D01*
X9164Y342729D01*
X9078Y342300D01*
X9078Y342300D01*
Y50186D01*
X9078Y50186D01*
X9164Y49757D01*
X9407Y49393D01*
X9993Y48807D01*
X9993Y48807D01*
X10357Y48564D01*
X10786Y48478D01*
X103445D01*
X103501Y48339D01*
X103612Y47478D01*
X103097Y47181D01*
X102519Y46603D01*
X102111Y45897D01*
X101984Y45422D01*
X8865D01*
X7122Y47165D01*
Y354093D01*
X56214D01*
X56214Y354093D01*
X56643Y354178D01*
X57007Y354421D01*
X57593Y355007D01*
X57593Y355007D01*
X57836Y355371D01*
X57922Y355800D01*
Y388735D01*
X62950Y393764D01*
X461978D01*
Y367209D01*
X461903Y367189D01*
X461197Y366781D01*
X460619Y366203D01*
X460211Y365497D01*
X460000Y364708D01*
Y363892D01*
X460211Y363103D01*
X460619Y362397D01*
X461197Y361819D01*
X461903Y361411D01*
X462692Y361200D01*
X463508D01*
X464297Y361411D01*
X465003Y361819D01*
X465581Y362397D01*
X465989Y363103D01*
X466200Y363892D01*
Y364708D01*
X465989Y365497D01*
X465581Y366203D01*
X465003Y366781D01*
X464297Y367189D01*
X464222Y367209D01*
Y394300D01*
X464136Y394729D01*
X463893Y395093D01*
X463893Y395093D01*
X463307Y395679D01*
X462943Y395922D01*
X462514Y396007D01*
D02*
G37*
G36*
X425022Y387200D02*
X424206D01*
X423418Y386989D01*
X422711Y386581D01*
X422134Y386003D01*
X421726Y385297D01*
X421705Y385222D01*
X68469D01*
X68469Y385222D01*
Y385241D01*
X67650Y385078D01*
X66959Y384617D01*
X66971Y384605D01*
X66971Y384602D01*
X66728Y384238D01*
X66642Y383809D01*
Y347128D01*
X66135Y346621D01*
X35586D01*
X35157Y346536D01*
X34793Y346293D01*
X34793Y346293D01*
X34207Y345707D01*
X33964Y345343D01*
X33878Y344914D01*
X33878Y344914D01*
Y333944D01*
X33417Y333821D01*
X32482Y333281D01*
X31719Y332518D01*
X31179Y331582D01*
X30900Y330540D01*
Y329460D01*
X31179Y328417D01*
X31719Y327483D01*
X32482Y326719D01*
X33417Y326179D01*
X34460Y325900D01*
X35540D01*
X36582Y326179D01*
X37517Y326719D01*
X38281Y327483D01*
X38821Y328417D01*
X39100Y329460D01*
Y330540D01*
X38821Y331582D01*
X38281Y332518D01*
X37517Y333281D01*
X36582Y333821D01*
X36122Y333944D01*
Y344378D01*
X66600D01*
X66600Y344378D01*
X67029Y344464D01*
X67393Y344707D01*
X68557Y345871D01*
X68800Y346235D01*
X68885Y346664D01*
X68885Y346664D01*
Y382979D01*
X244307D01*
X244438Y381979D01*
X244103Y381889D01*
X243397Y381481D01*
X242819Y380903D01*
X242411Y380197D01*
X242200Y379408D01*
Y378592D01*
X242411Y377803D01*
X242819Y377097D01*
X243397Y376519D01*
X244103Y376111D01*
X244892Y375900D01*
X245708D01*
X246497Y376111D01*
X247203Y376519D01*
X247781Y377097D01*
X248189Y377803D01*
X248375Y378497D01*
X264629D01*
X264777Y377497D01*
X263998Y377261D01*
X262244Y376323D01*
X260706Y375061D01*
X259443Y373523D01*
X258506Y371768D01*
X257928Y369864D01*
X257733Y367884D01*
X257928Y365904D01*
X258506Y364001D01*
X259443Y362246D01*
X260706Y360708D01*
X262244Y359446D01*
X263998Y358508D01*
X265902Y357930D01*
X267882Y357735D01*
X269862Y357930D01*
X271766Y358508D01*
X273520Y359446D01*
X275058Y360708D01*
X276320Y362246D01*
X277258Y364001D01*
X277836Y365904D01*
X278031Y367884D01*
X277836Y369864D01*
X277258Y371768D01*
X276320Y373523D01*
X275058Y375061D01*
X273520Y376323D01*
X271766Y377261D01*
X270987Y377497D01*
X271135Y378497D01*
X314378D01*
Y368246D01*
X313718Y367865D01*
X313001Y367148D01*
X312494Y366270D01*
X312232Y365291D01*
Y364277D01*
X312494Y363298D01*
X313001Y362420D01*
X313718Y361703D01*
X314596Y361196D01*
X315575Y360934D01*
X316588D01*
X317568Y361196D01*
X318445Y361703D01*
X319162Y362420D01*
X319669Y363298D01*
X319932Y364277D01*
Y365291D01*
X319669Y366270D01*
X319162Y367148D01*
X318445Y367865D01*
X317568Y368372D01*
X316621Y368625D01*
Y379000D01*
X316536Y379429D01*
X316293Y379793D01*
X316293Y379793D01*
X315675Y380412D01*
X315311Y380655D01*
X314882Y380740D01*
X314881Y380740D01*
X247875D01*
X247781Y380903D01*
X247203Y381481D01*
X246497Y381889D01*
X246162Y381979D01*
X246293Y382979D01*
X421705D01*
X421726Y382903D01*
X422134Y382197D01*
X422711Y381619D01*
X423418Y381211D01*
X424206Y381000D01*
X425022D01*
X425811Y381211D01*
X426518Y381619D01*
X427095Y382197D01*
X427503Y382903D01*
X427714Y383692D01*
Y384508D01*
X427503Y385297D01*
X427095Y386003D01*
X426518Y386581D01*
X425811Y386989D01*
X425022Y387200D01*
D02*
G37*
G36*
X346641Y369034D02*
X346582D01*
Y365284D01*
X350332D01*
Y365343D01*
X350042Y366424D01*
X349482Y367393D01*
X348691Y368185D01*
X347722Y368744D01*
X346641Y369034D01*
D02*
G37*
G36*
X345582D02*
X345522D01*
X344441Y368744D01*
X343472Y368185D01*
X342681Y367393D01*
X342121Y366424D01*
X341832Y365343D01*
Y365284D01*
X345582D01*
Y369034D01*
D02*
G37*
G36*
X359932Y368634D02*
X352232D01*
Y360934D01*
X359932D01*
Y368634D01*
D02*
G37*
G36*
X336588D02*
X335575D01*
X334595Y368372D01*
X333718Y367865D01*
X333001Y367148D01*
X332494Y366270D01*
X332232Y365291D01*
Y364277D01*
X332494Y363298D01*
X333001Y362420D01*
X333718Y361703D01*
X334595Y361196D01*
X335575Y360934D01*
X336588D01*
X337568Y361196D01*
X338445Y361703D01*
X339162Y362420D01*
X339669Y363298D01*
X339932Y364277D01*
Y365291D01*
X339669Y366270D01*
X339162Y367148D01*
X338445Y367865D01*
X337568Y368372D01*
X336588Y368634D01*
D02*
G37*
G36*
X326588D02*
X325575D01*
X324595Y368372D01*
X323718Y367865D01*
X323001Y367148D01*
X322494Y366270D01*
X322232Y365291D01*
Y364277D01*
X322494Y363298D01*
X323001Y362420D01*
X323718Y361703D01*
X324595Y361196D01*
X325575Y360934D01*
X326588D01*
X327568Y361196D01*
X328446Y361703D01*
X329162Y362420D01*
X329669Y363298D01*
X329932Y364277D01*
Y365291D01*
X329669Y366270D01*
X329162Y367148D01*
X328446Y367865D01*
X327568Y368372D01*
X326588Y368634D01*
D02*
G37*
G36*
X306588D02*
X305575D01*
X304595Y368372D01*
X303718Y367865D01*
X303001Y367148D01*
X302494Y366270D01*
X302232Y365291D01*
Y364277D01*
X302494Y363298D01*
X303001Y362420D01*
X303718Y361703D01*
X304595Y361196D01*
X305575Y360934D01*
X306588D01*
X307568Y361196D01*
X308446Y361703D01*
X309162Y362420D01*
X309669Y363298D01*
X309932Y364277D01*
Y365291D01*
X309669Y366270D01*
X309162Y367148D01*
X308446Y367865D01*
X307568Y368372D01*
X306588Y368634D01*
D02*
G37*
G36*
X296588D02*
X295575D01*
X294596Y368372D01*
X293718Y367865D01*
X293001Y367148D01*
X292494Y366270D01*
X292232Y365291D01*
Y364277D01*
X292494Y363298D01*
X293001Y362420D01*
X293718Y361703D01*
X294596Y361196D01*
X295575Y360934D01*
X296588D01*
X297568Y361196D01*
X298446Y361703D01*
X299162Y362420D01*
X299669Y363298D01*
X299932Y364277D01*
Y365291D01*
X299669Y366270D01*
X299162Y367148D01*
X298446Y367865D01*
X297568Y368372D01*
X296588Y368634D01*
D02*
G37*
G36*
X286588D02*
X285575D01*
X284595Y368372D01*
X283718Y367865D01*
X283001Y367148D01*
X282494Y366270D01*
X282232Y365291D01*
Y364277D01*
X282494Y363298D01*
X283001Y362420D01*
X283718Y361703D01*
X284595Y361196D01*
X285575Y360934D01*
X286588D01*
X287568Y361196D01*
X288445Y361703D01*
X289162Y362420D01*
X289669Y363298D01*
X289932Y364277D01*
Y365291D01*
X289669Y366270D01*
X289162Y367148D01*
X288445Y367865D01*
X287568Y368372D01*
X286588Y368634D01*
D02*
G37*
G36*
X350332Y364284D02*
X346582D01*
Y360534D01*
X346641D01*
X347722Y360824D01*
X348691Y361383D01*
X349482Y362174D01*
X350042Y363143D01*
X350332Y364224D01*
Y364284D01*
D02*
G37*
G36*
X345582D02*
X341832D01*
Y364224D01*
X342121Y363143D01*
X342681Y362174D01*
X343472Y361383D01*
X344441Y360824D01*
X345522Y360534D01*
X345582D01*
Y364284D01*
D02*
G37*
G36*
X575000Y391150D02*
X572474Y390951D01*
X570009Y390359D01*
X567668Y389390D01*
X565507Y388066D01*
X563580Y386420D01*
X561935Y384493D01*
X560610Y382332D01*
X559641Y379991D01*
X559049Y377526D01*
X558850Y375000D01*
X559049Y372474D01*
X559641Y370009D01*
X560610Y367668D01*
X561935Y365507D01*
X563580Y363580D01*
X565507Y361934D01*
X567668Y360610D01*
X570009Y359641D01*
X572474Y359049D01*
X575000Y358850D01*
X577526Y359049D01*
X579991Y359641D01*
X582332Y360610D01*
X584493Y361934D01*
X586420Y363580D01*
X588065Y365507D01*
X589390Y367668D01*
X590359Y370009D01*
X590951Y372474D01*
X591150Y375000D01*
X590951Y377526D01*
X590359Y379991D01*
X589390Y382332D01*
X588065Y384493D01*
X586420Y386420D01*
X584493Y388066D01*
X582332Y389390D01*
X579991Y390359D01*
X577526Y390951D01*
X575000Y391150D01*
D02*
G37*
G36*
X25000D02*
X22474Y390951D01*
X20009Y390359D01*
X17668Y389390D01*
X15507Y388066D01*
X13580Y386420D01*
X11935Y384493D01*
X10610Y382332D01*
X9641Y379991D01*
X9049Y377526D01*
X8850Y375000D01*
X9049Y372474D01*
X9641Y370009D01*
X10610Y367668D01*
X11935Y365507D01*
X13580Y363580D01*
X15507Y361934D01*
X17668Y360610D01*
X20009Y359641D01*
X22474Y359049D01*
X25000Y358850D01*
X27526Y359049D01*
X29991Y359641D01*
X32332Y360610D01*
X34493Y361934D01*
X36420Y363580D01*
X38065Y365507D01*
X39390Y367668D01*
X40359Y370009D01*
X40951Y372474D01*
X41150Y375000D01*
X40951Y377526D01*
X40359Y379991D01*
X39390Y382332D01*
X38065Y384493D01*
X36420Y386420D01*
X34493Y388066D01*
X32332Y389390D01*
X29991Y390359D01*
X27526Y390951D01*
X25000Y391150D01*
D02*
G37*
G36*
X373000Y378033D02*
X371020Y377838D01*
X369116Y377261D01*
X367362Y376323D01*
X365824Y375061D01*
X364562Y373523D01*
X363624Y371768D01*
X363046Y369864D01*
X362851Y367884D01*
X363046Y365904D01*
X363624Y364001D01*
X364562Y362246D01*
X365824Y360708D01*
X367362Y359446D01*
X369116Y358508D01*
X371020Y357930D01*
X373000Y357735D01*
X374980Y357930D01*
X376884Y358508D01*
X378638Y359446D01*
X380176Y360708D01*
X381438Y362246D01*
X382376Y364001D01*
X382954Y365904D01*
X383149Y367884D01*
X382954Y369864D01*
X382376Y371768D01*
X381438Y373523D01*
X380176Y375061D01*
X378638Y376323D01*
X376884Y377261D01*
X374980Y377838D01*
X373000Y378033D01*
D02*
G37*
G36*
X244008Y355400D02*
X243192D01*
X242403Y355189D01*
X241697Y354781D01*
X241119Y354203D01*
X240711Y353497D01*
X240500Y352708D01*
Y351892D01*
X240711Y351103D01*
X241119Y350397D01*
X241697Y349819D01*
X242403Y349411D01*
X243192Y349200D01*
X244008D01*
X244797Y349411D01*
X245503Y349819D01*
X246081Y350397D01*
X246301Y350779D01*
X395484D01*
X395611Y350303D01*
X396019Y349597D01*
X396597Y349019D01*
X397303Y348611D01*
X398092Y348400D01*
X398908D01*
X399697Y348611D01*
X400403Y349019D01*
X400981Y349597D01*
X401389Y350303D01*
X401600Y351092D01*
Y351908D01*
X401389Y352697D01*
X400981Y353403D01*
X400403Y353981D01*
X399697Y354389D01*
X398908Y354600D01*
X398092D01*
X397303Y354389D01*
X396597Y353981D01*
X396019Y353403D01*
X395799Y353022D01*
X246616D01*
X246489Y353497D01*
X246081Y354203D01*
X245503Y354781D01*
X244797Y355189D01*
X244008Y355400D01*
D02*
G37*
G36*
X115592Y334500D02*
X115500D01*
Y330500D01*
X119500D01*
Y330592D01*
X119193Y331737D01*
X118601Y332763D01*
X117763Y333601D01*
X116737Y334193D01*
X115592Y334500D01*
D02*
G37*
G36*
X114500D02*
X114408D01*
X113263Y334193D01*
X112237Y333601D01*
X111399Y332763D01*
X110807Y331737D01*
X110500Y330592D01*
Y330500D01*
X114500D01*
Y334500D01*
D02*
G37*
G36*
X205540Y334100D02*
X204460D01*
X203417Y333821D01*
X202483Y333281D01*
X201719Y332518D01*
X201179Y331582D01*
X200900Y330540D01*
Y329460D01*
X201179Y328417D01*
X201719Y327483D01*
X202483Y326719D01*
X203417Y326179D01*
X204460Y325900D01*
X205540D01*
X206582Y326179D01*
X207518Y326719D01*
X208281Y327483D01*
X208821Y328417D01*
X209100Y329460D01*
Y330540D01*
X208821Y331582D01*
X208281Y332518D01*
X207518Y333281D01*
X206582Y333821D01*
X205540Y334100D01*
D02*
G37*
G36*
X195540D02*
X194460D01*
X193418Y333821D01*
X192482Y333281D01*
X191719Y332518D01*
X191179Y331582D01*
X190900Y330540D01*
Y329460D01*
X191179Y328417D01*
X191719Y327483D01*
X192482Y326719D01*
X193418Y326179D01*
X194460Y325900D01*
X195540D01*
X196582Y326179D01*
X197518Y326719D01*
X198281Y327483D01*
X198821Y328417D01*
X199100Y329460D01*
Y330540D01*
X198821Y331582D01*
X198281Y332518D01*
X197518Y333281D01*
X196582Y333821D01*
X195540Y334100D01*
D02*
G37*
G36*
X185540D02*
X184460D01*
X183417Y333821D01*
X182483Y333281D01*
X181719Y332518D01*
X181179Y331582D01*
X180900Y330540D01*
Y329460D01*
X181179Y328417D01*
X181719Y327483D01*
X182483Y326719D01*
X183417Y326179D01*
X184460Y325900D01*
X185540D01*
X186583Y326179D01*
X187517Y326719D01*
X188281Y327483D01*
X188821Y328417D01*
X189100Y329460D01*
Y330540D01*
X188821Y331582D01*
X188281Y332518D01*
X187517Y333281D01*
X186583Y333821D01*
X185540Y334100D01*
D02*
G37*
G36*
X175540D02*
X174460D01*
X173417Y333821D01*
X172483Y333281D01*
X171719Y332518D01*
X171179Y331582D01*
X170900Y330540D01*
Y329460D01*
X171179Y328417D01*
X171719Y327483D01*
X172483Y326719D01*
X173417Y326179D01*
X174460Y325900D01*
X175540D01*
X176583Y326179D01*
X177517Y326719D01*
X178281Y327483D01*
X178821Y328417D01*
X179100Y329460D01*
Y330540D01*
X178821Y331582D01*
X178281Y332518D01*
X177517Y333281D01*
X176583Y333821D01*
X175540Y334100D01*
D02*
G37*
G36*
X165540D02*
X164460D01*
X163417Y333821D01*
X162483Y333281D01*
X161719Y332518D01*
X161179Y331582D01*
X160900Y330540D01*
Y329460D01*
X161179Y328417D01*
X161719Y327483D01*
X162483Y326719D01*
X163417Y326179D01*
X164460Y325900D01*
X165540D01*
X166583Y326179D01*
X167517Y326719D01*
X168281Y327483D01*
X168821Y328417D01*
X169100Y329460D01*
Y330540D01*
X168821Y331582D01*
X168281Y332518D01*
X167517Y333281D01*
X166583Y333821D01*
X165540Y334100D01*
D02*
G37*
G36*
X155540D02*
X154460D01*
X153418Y333821D01*
X152482Y333281D01*
X151719Y332518D01*
X151179Y331582D01*
X150900Y330540D01*
Y329460D01*
X151179Y328417D01*
X151719Y327483D01*
X152482Y326719D01*
X153418Y326179D01*
X154460Y325900D01*
X155540D01*
X156582Y326179D01*
X157518Y326719D01*
X158281Y327483D01*
X158821Y328417D01*
X159100Y329460D01*
Y330540D01*
X158821Y331582D01*
X158281Y332518D01*
X157518Y333281D01*
X156582Y333821D01*
X155540Y334100D01*
D02*
G37*
G36*
X135540D02*
X134460D01*
X133417Y333821D01*
X132483Y333281D01*
X131719Y332518D01*
X131179Y331582D01*
X130900Y330540D01*
Y329460D01*
X131179Y328417D01*
X131719Y327483D01*
X132483Y326719D01*
X133417Y326179D01*
X134460Y325900D01*
X135540D01*
X136583Y326179D01*
X137517Y326719D01*
X138281Y327483D01*
X138821Y328417D01*
X139100Y329460D01*
Y330540D01*
X138821Y331582D01*
X138281Y332518D01*
X137517Y333281D01*
X136583Y333821D01*
X135540Y334100D01*
D02*
G37*
G36*
X125540D02*
X124460D01*
X123417Y333821D01*
X122483Y333281D01*
X121719Y332518D01*
X121179Y331582D01*
X120900Y330540D01*
Y329460D01*
X121179Y328417D01*
X121719Y327483D01*
X122483Y326719D01*
X123417Y326179D01*
X124460Y325900D01*
X125540D01*
X126583Y326179D01*
X127517Y326719D01*
X128281Y327483D01*
X128821Y328417D01*
X129100Y329460D01*
Y330540D01*
X128821Y331582D01*
X128281Y332518D01*
X127517Y333281D01*
X126583Y333821D01*
X125540Y334100D01*
D02*
G37*
G36*
X105540D02*
X104460D01*
X103418Y333821D01*
X102482Y333281D01*
X101719Y332518D01*
X101179Y331582D01*
X100900Y330540D01*
Y329460D01*
X101179Y328417D01*
X101719Y327483D01*
X102482Y326719D01*
X103418Y326179D01*
X104460Y325900D01*
X105540D01*
X106582Y326179D01*
X107518Y326719D01*
X108281Y327483D01*
X108821Y328417D01*
X109100Y329460D01*
Y330540D01*
X108821Y331582D01*
X108281Y332518D01*
X107518Y333281D01*
X106582Y333821D01*
X105540Y334100D01*
D02*
G37*
G36*
X95540D02*
X94460D01*
X93418Y333821D01*
X92483Y333281D01*
X91719Y332518D01*
X91179Y331582D01*
X90900Y330540D01*
Y329460D01*
X91179Y328417D01*
X91719Y327483D01*
X92483Y326719D01*
X93418Y326179D01*
X94460Y325900D01*
X95540D01*
X96583Y326179D01*
X97518Y326719D01*
X98281Y327483D01*
X98821Y328417D01*
X99100Y329460D01*
Y330540D01*
X98821Y331582D01*
X98281Y332518D01*
X97518Y333281D01*
X96583Y333821D01*
X95540Y334100D01*
D02*
G37*
G36*
X85540D02*
X84460D01*
X83417Y333821D01*
X82482Y333281D01*
X81719Y332518D01*
X81179Y331582D01*
X80900Y330540D01*
Y329460D01*
X81179Y328417D01*
X81719Y327483D01*
X82482Y326719D01*
X83417Y326179D01*
X84460Y325900D01*
X85540D01*
X86582Y326179D01*
X87517Y326719D01*
X88281Y327483D01*
X88821Y328417D01*
X89100Y329460D01*
Y330540D01*
X88821Y331582D01*
X88281Y332518D01*
X87517Y333281D01*
X86582Y333821D01*
X85540Y334100D01*
D02*
G37*
G36*
X75540D02*
X74460D01*
X73418Y333821D01*
X72483Y333281D01*
X71719Y332518D01*
X71179Y331582D01*
X70900Y330540D01*
Y329460D01*
X71179Y328417D01*
X71719Y327483D01*
X72483Y326719D01*
X73418Y326179D01*
X74460Y325900D01*
X75540D01*
X76582Y326179D01*
X77517Y326719D01*
X78281Y327483D01*
X78821Y328417D01*
X79100Y329460D01*
Y330540D01*
X78821Y331582D01*
X78281Y332518D01*
X77517Y333281D01*
X76582Y333821D01*
X75540Y334100D01*
D02*
G37*
G36*
X65540D02*
X64460D01*
X63418Y333821D01*
X62483Y333281D01*
X61719Y332518D01*
X61179Y331582D01*
X60900Y330540D01*
Y329460D01*
X61179Y328417D01*
X61719Y327483D01*
X62483Y326719D01*
X63418Y326179D01*
X64460Y325900D01*
X65540D01*
X66583Y326179D01*
X67518Y326719D01*
X68281Y327483D01*
X68821Y328417D01*
X69100Y329460D01*
Y330540D01*
X68821Y331582D01*
X68281Y332518D01*
X67518Y333281D01*
X66583Y333821D01*
X65540Y334100D01*
D02*
G37*
G36*
X55540D02*
X54460D01*
X53417Y333821D01*
X52482Y333281D01*
X51719Y332518D01*
X51179Y331582D01*
X50900Y330540D01*
Y329460D01*
X51179Y328417D01*
X51719Y327483D01*
X52482Y326719D01*
X53417Y326179D01*
X54460Y325900D01*
X55540D01*
X56582Y326179D01*
X57517Y326719D01*
X58281Y327483D01*
X58821Y328417D01*
X59100Y329460D01*
Y330540D01*
X58821Y331582D01*
X58281Y332518D01*
X57517Y333281D01*
X56582Y333821D01*
X55540Y334100D01*
D02*
G37*
G36*
X45540D02*
X44460D01*
X43418Y333821D01*
X42483Y333281D01*
X41719Y332518D01*
X41179Y331582D01*
X40900Y330540D01*
Y329460D01*
X41179Y328417D01*
X41719Y327483D01*
X42483Y326719D01*
X43418Y326179D01*
X44460Y325900D01*
X45540D01*
X46582Y326179D01*
X47517Y326719D01*
X48281Y327483D01*
X48821Y328417D01*
X49100Y329460D01*
Y330540D01*
X48821Y331582D01*
X48281Y332518D01*
X47517Y333281D01*
X46582Y333821D01*
X45540Y334100D01*
D02*
G37*
G36*
X119500Y329500D02*
X115500D01*
Y325500D01*
X115592D01*
X116737Y325807D01*
X117763Y326399D01*
X118601Y327237D01*
X119193Y328263D01*
X119500Y329408D01*
Y329500D01*
D02*
G37*
G36*
X114500D02*
X110500D01*
Y329408D01*
X110807Y328263D01*
X111399Y327237D01*
X112237Y326399D01*
X113263Y325807D01*
X114408Y325500D01*
X114500D01*
Y329500D01*
D02*
G37*
G36*
X583472Y329495D02*
X582528D01*
X581657Y329133D01*
X580989Y328466D01*
X580628Y327594D01*
Y326651D01*
X580989Y325779D01*
X581657Y325112D01*
X582528Y324751D01*
X583472D01*
X584343Y325112D01*
X585011Y325779D01*
X585372Y326651D01*
Y327594D01*
X585011Y328466D01*
X584343Y329133D01*
X583472Y329495D01*
D02*
G37*
G36*
X65592Y324500D02*
X65500D01*
Y320500D01*
X69500D01*
Y320592D01*
X69193Y321737D01*
X68601Y322763D01*
X67763Y323601D01*
X66737Y324193D01*
X65592Y324500D01*
D02*
G37*
G36*
X64500D02*
X64408D01*
X63263Y324193D01*
X62237Y323601D01*
X61399Y322763D01*
X60807Y321737D01*
X60500Y320592D01*
Y320500D01*
X64500D01*
Y324500D01*
D02*
G37*
G36*
X205540Y324100D02*
X204460D01*
X203417Y323821D01*
X202483Y323281D01*
X201719Y322517D01*
X201179Y321583D01*
X200900Y320540D01*
Y319460D01*
X201179Y318418D01*
X201719Y317482D01*
X202483Y316719D01*
X203417Y316179D01*
X204460Y315900D01*
X205540D01*
X206582Y316179D01*
X207518Y316719D01*
X208281Y317482D01*
X208821Y318418D01*
X209100Y319460D01*
Y320540D01*
X208821Y321583D01*
X208281Y322517D01*
X207518Y323281D01*
X206582Y323821D01*
X205540Y324100D01*
D02*
G37*
G36*
X195540D02*
X194460D01*
X193418Y323821D01*
X192482Y323281D01*
X191719Y322517D01*
X191179Y321583D01*
X190900Y320540D01*
Y319460D01*
X191179Y318418D01*
X191719Y317482D01*
X192482Y316719D01*
X193418Y316179D01*
X194460Y315900D01*
X195540D01*
X196582Y316179D01*
X197518Y316719D01*
X198281Y317482D01*
X198821Y318418D01*
X199100Y319460D01*
Y320540D01*
X198821Y321583D01*
X198281Y322517D01*
X197518Y323281D01*
X196582Y323821D01*
X195540Y324100D01*
D02*
G37*
G36*
X175540D02*
X174460D01*
X173417Y323821D01*
X172483Y323281D01*
X171719Y322517D01*
X171179Y321583D01*
X170900Y320540D01*
Y319460D01*
X171179Y318418D01*
X171719Y317482D01*
X172483Y316719D01*
X173417Y316179D01*
X174460Y315900D01*
X175540D01*
X176583Y316179D01*
X177517Y316719D01*
X178281Y317482D01*
X178821Y318418D01*
X179100Y319460D01*
Y320540D01*
X178821Y321583D01*
X178281Y322517D01*
X177517Y323281D01*
X176583Y323821D01*
X175540Y324100D01*
D02*
G37*
G36*
X165540D02*
X164460D01*
X163417Y323821D01*
X162483Y323281D01*
X161719Y322517D01*
X161179Y321583D01*
X160900Y320540D01*
Y319460D01*
X161179Y318418D01*
X161719Y317482D01*
X162483Y316719D01*
X163417Y316179D01*
X164460Y315900D01*
X165540D01*
X166583Y316179D01*
X167517Y316719D01*
X168281Y317482D01*
X168821Y318418D01*
X169100Y319460D01*
Y320540D01*
X168821Y321583D01*
X168281Y322517D01*
X167517Y323281D01*
X166583Y323821D01*
X165540Y324100D01*
D02*
G37*
G36*
X155540D02*
X154460D01*
X153418Y323821D01*
X152482Y323281D01*
X151719Y322517D01*
X151179Y321583D01*
X150900Y320540D01*
Y319460D01*
X151179Y318418D01*
X151719Y317482D01*
X152482Y316719D01*
X153418Y316179D01*
X154460Y315900D01*
X155540D01*
X156582Y316179D01*
X157518Y316719D01*
X158281Y317482D01*
X158821Y318418D01*
X159100Y319460D01*
Y320540D01*
X158821Y321583D01*
X158281Y322517D01*
X157518Y323281D01*
X156582Y323821D01*
X155540Y324100D01*
D02*
G37*
G36*
X145540D02*
X144460D01*
X143418Y323821D01*
X142482Y323281D01*
X141719Y322517D01*
X141179Y321583D01*
X140900Y320540D01*
Y319460D01*
X141179Y318418D01*
X141719Y317482D01*
X142482Y316719D01*
X143418Y316179D01*
X144460Y315900D01*
X145540D01*
X146582Y316179D01*
X147518Y316719D01*
X148281Y317482D01*
X148821Y318418D01*
X149100Y319460D01*
Y320540D01*
X148821Y321583D01*
X148281Y322517D01*
X147518Y323281D01*
X146582Y323821D01*
X145540Y324100D01*
D02*
G37*
G36*
X135540D02*
X134460D01*
X133417Y323821D01*
X132483Y323281D01*
X131719Y322517D01*
X131179Y321583D01*
X130900Y320540D01*
Y319460D01*
X131179Y318418D01*
X131719Y317482D01*
X132483Y316719D01*
X133417Y316179D01*
X134460Y315900D01*
X135540D01*
X136583Y316179D01*
X137517Y316719D01*
X138281Y317482D01*
X138821Y318418D01*
X139100Y319460D01*
Y320540D01*
X138821Y321583D01*
X138281Y322517D01*
X137517Y323281D01*
X136583Y323821D01*
X135540Y324100D01*
D02*
G37*
G36*
X75540D02*
X74460D01*
X73418Y323821D01*
X72483Y323281D01*
X71719Y322517D01*
X71179Y321583D01*
X70900Y320540D01*
Y319460D01*
X71179Y318418D01*
X71719Y317482D01*
X72483Y316719D01*
X73418Y316179D01*
X74460Y315900D01*
X75540D01*
X76582Y316179D01*
X77517Y316719D01*
X78281Y317482D01*
X78821Y318418D01*
X79100Y319460D01*
Y320540D01*
X78821Y321583D01*
X78281Y322517D01*
X77517Y323281D01*
X76582Y323821D01*
X75540Y324100D01*
D02*
G37*
G36*
X55540D02*
X54460D01*
X53417Y323821D01*
X52482Y323281D01*
X51719Y322517D01*
X51179Y321583D01*
X50900Y320540D01*
Y319460D01*
X51179Y318418D01*
X51719Y317482D01*
X52482Y316719D01*
X53417Y316179D01*
X54460Y315900D01*
X55540D01*
X56582Y316179D01*
X57517Y316719D01*
X58281Y317482D01*
X58821Y318418D01*
X59100Y319460D01*
Y320540D01*
X58821Y321583D01*
X58281Y322517D01*
X57517Y323281D01*
X56582Y323821D01*
X55540Y324100D01*
D02*
G37*
G36*
X45540D02*
X44460D01*
X43418Y323821D01*
X42483Y323281D01*
X41719Y322517D01*
X41179Y321583D01*
X40900Y320540D01*
Y319460D01*
X41179Y318418D01*
X41719Y317482D01*
X42483Y316719D01*
X43418Y316179D01*
X44460Y315900D01*
X45540D01*
X46582Y316179D01*
X47517Y316719D01*
X48281Y317482D01*
X48821Y318418D01*
X49100Y319460D01*
Y320540D01*
X48821Y321583D01*
X48281Y322517D01*
X47517Y323281D01*
X46582Y323821D01*
X45540Y324100D01*
D02*
G37*
G36*
X35540D02*
X34460D01*
X33417Y323821D01*
X32482Y323281D01*
X31719Y322517D01*
X31179Y321583D01*
X30900Y320540D01*
Y319460D01*
X31179Y318418D01*
X31719Y317482D01*
X32482Y316719D01*
X33417Y316179D01*
X34460Y315900D01*
X35540D01*
X36582Y316179D01*
X37517Y316719D01*
X38281Y317482D01*
X38821Y318418D01*
X39100Y319460D01*
Y320540D01*
X38821Y321583D01*
X38281Y322517D01*
X37517Y323281D01*
X36582Y323821D01*
X35540Y324100D01*
D02*
G37*
G36*
X29100D02*
X20900D01*
Y315900D01*
X29100D01*
Y324100D01*
D02*
G37*
G36*
X69500Y319500D02*
X65500D01*
Y315500D01*
X65592D01*
X66737Y315807D01*
X67763Y316399D01*
X68601Y317237D01*
X69193Y318263D01*
X69500Y319408D01*
Y319500D01*
D02*
G37*
G36*
X64500D02*
X60500D01*
Y319408D01*
X60807Y318263D01*
X61399Y317237D01*
X62237Y316399D01*
X63263Y315807D01*
X64408Y315500D01*
X64500D01*
Y319500D01*
D02*
G37*
G36*
X489608Y397400D02*
X488792D01*
X488003Y397189D01*
X487297Y396781D01*
X486719Y396203D01*
X486311Y395497D01*
X486100Y394708D01*
Y393892D01*
X486311Y393103D01*
X486719Y392397D01*
X487297Y391819D01*
X488003Y391411D01*
X488792Y391200D01*
X489608D01*
X490397Y391411D01*
X491103Y391819D01*
X491681Y392397D01*
X492089Y393103D01*
X492109Y393179D01*
X548724D01*
X548967Y392935D01*
Y321370D01*
X548892Y321350D01*
X548185Y320942D01*
X547608Y320365D01*
X547199Y319658D01*
X546988Y318869D01*
Y318053D01*
X547199Y317265D01*
X547608Y316558D01*
X548185Y315981D01*
X548892Y315573D01*
X549680Y315361D01*
X550496D01*
X551285Y315573D01*
X551992Y315981D01*
X552569Y316558D01*
X552977Y317265D01*
X553188Y318053D01*
Y318869D01*
X552977Y319658D01*
X552569Y320365D01*
X551992Y320942D01*
X551285Y321350D01*
X551210Y321370D01*
Y393400D01*
X551124Y393829D01*
X550881Y394193D01*
X550881Y394193D01*
X549981Y395093D01*
X549617Y395336D01*
X549188Y395422D01*
X549188Y395422D01*
X492109D01*
X492089Y395497D01*
X491681Y396203D01*
X491103Y396781D01*
X490397Y397189D01*
X489608Y397400D01*
D02*
G37*
G36*
X583472Y312172D02*
X582528D01*
X581657Y311811D01*
X580989Y311143D01*
X580628Y310272D01*
Y309328D01*
X580989Y308457D01*
X581657Y307789D01*
X582528Y307428D01*
X583472D01*
X584343Y307789D01*
X585011Y308457D01*
X585372Y309328D01*
Y310272D01*
X585011Y311143D01*
X584343Y311811D01*
X583472Y312172D01*
D02*
G37*
G36*
X236714Y372722D02*
X236714Y372722D01*
X145300D01*
X144871Y372636D01*
X144507Y372393D01*
X144507Y372393D01*
X143607Y371493D01*
X143364Y371129D01*
X143278Y370700D01*
X143278Y370700D01*
Y333740D01*
X142482Y333281D01*
X141719Y332518D01*
X141179Y331582D01*
X140900Y330540D01*
Y329460D01*
X141179Y328417D01*
X141719Y327483D01*
X142482Y326719D01*
X143418Y326179D01*
X144460Y325900D01*
X145540D01*
X146582Y326179D01*
X147518Y326719D01*
X148281Y327483D01*
X148821Y328417D01*
X149100Y329460D01*
Y330540D01*
X148821Y331582D01*
X148281Y332518D01*
X147518Y333281D01*
X146582Y333821D01*
X145540Y334100D01*
X145522D01*
Y370235D01*
X145765Y370479D01*
X236178D01*
Y291686D01*
X236178Y291686D01*
X236264Y291257D01*
X236507Y290893D01*
X237093Y290307D01*
X237093Y290307D01*
X237457Y290064D01*
X237886Y289979D01*
X389691D01*
X389711Y289903D01*
X390119Y289197D01*
X390697Y288619D01*
X391403Y288211D01*
X392192Y288000D01*
X393008D01*
X393797Y288211D01*
X394503Y288619D01*
X395081Y289197D01*
X395489Y289903D01*
X395700Y290692D01*
Y291508D01*
X395489Y292297D01*
X395081Y293003D01*
X394503Y293581D01*
X393797Y293989D01*
X393008Y294200D01*
X392192D01*
X391403Y293989D01*
X390697Y293581D01*
X390119Y293003D01*
X389711Y292297D01*
X389691Y292221D01*
X238422D01*
Y371014D01*
X238336Y371443D01*
X238093Y371807D01*
X238093Y371807D01*
X237507Y372393D01*
X237143Y372636D01*
X236714Y372722D01*
D02*
G37*
G36*
X536408Y358448D02*
X535592D01*
X534803Y358237D01*
X534097Y357829D01*
X533519Y357252D01*
X533111Y356545D01*
X532900Y355756D01*
Y354940D01*
X533111Y354152D01*
X533519Y353445D01*
X534097Y352867D01*
X534803Y352459D01*
X534878Y352439D01*
Y265921D01*
X186122D01*
Y316056D01*
X186583Y316179D01*
X187517Y316719D01*
X188281Y317482D01*
X188821Y318418D01*
X189100Y319460D01*
Y320540D01*
X188821Y321583D01*
X188281Y322517D01*
X187517Y323281D01*
X186583Y323821D01*
X185540Y324100D01*
X184460D01*
X183417Y323821D01*
X182483Y323281D01*
X181719Y322517D01*
X181179Y321583D01*
X180900Y320540D01*
Y319460D01*
X181179Y318418D01*
X181719Y317482D01*
X182483Y316719D01*
X183417Y316179D01*
X183878Y316056D01*
Y265386D01*
X183878Y265386D01*
X183964Y264957D01*
X184207Y264593D01*
X184793Y264007D01*
X184793Y264007D01*
X185157Y263764D01*
X185586Y263679D01*
X401999D01*
X402142Y263545D01*
X402532Y262679D01*
X402311Y262297D01*
X402157Y261721D01*
X126565D01*
X126122Y262165D01*
Y316056D01*
X126583Y316179D01*
X127517Y316719D01*
X128281Y317482D01*
X128821Y318418D01*
X129100Y319460D01*
Y320540D01*
X128821Y321583D01*
X128281Y322517D01*
X127517Y323281D01*
X126583Y323821D01*
X125540Y324100D01*
X124460D01*
X123417Y323821D01*
X122483Y323281D01*
X121719Y322517D01*
X121179Y321583D01*
X120900Y320540D01*
Y319460D01*
X121179Y318418D01*
X121719Y317482D01*
X122483Y316719D01*
X123417Y316179D01*
X123878Y316056D01*
Y261700D01*
X123878Y261700D01*
X123964Y261271D01*
X124207Y260907D01*
X125307Y259807D01*
X125307Y259807D01*
X125671Y259564D01*
X126100Y259478D01*
X231871D01*
X232139Y258478D01*
X231797Y258281D01*
X231219Y257703D01*
X230811Y256997D01*
X230791Y256922D01*
X116150D01*
X116122Y256950D01*
Y316056D01*
X116583Y316179D01*
X117517Y316719D01*
X118281Y317482D01*
X118821Y318418D01*
X119100Y319460D01*
Y320540D01*
X118821Y321583D01*
X118281Y322517D01*
X117517Y323281D01*
X116583Y323821D01*
X115540Y324100D01*
X114460D01*
X113417Y323821D01*
X112483Y323281D01*
X111719Y322517D01*
X111179Y321583D01*
X110900Y320540D01*
Y319460D01*
X111179Y318418D01*
X111719Y317482D01*
X112483Y316719D01*
X113417Y316179D01*
X113878Y316056D01*
Y256486D01*
X113878Y256486D01*
X113964Y256057D01*
X114207Y255693D01*
X114893Y255007D01*
X114893Y255007D01*
X115257Y254764D01*
X115686Y254679D01*
X230791D01*
X230811Y254603D01*
X231219Y253897D01*
X231797Y253319D01*
X232503Y252911D01*
X233292Y252700D01*
X234108D01*
X234897Y252911D01*
X235603Y253319D01*
X236181Y253897D01*
X236589Y254603D01*
X236800Y255392D01*
Y256208D01*
X236589Y256997D01*
X236181Y257703D01*
X235603Y258281D01*
X235261Y258478D01*
X235529Y259478D01*
X402557D01*
X402719Y259197D01*
X403297Y258619D01*
X404003Y258211D01*
X404792Y258000D01*
X405608D01*
X406397Y258211D01*
X407103Y258619D01*
X407681Y259197D01*
X408089Y259903D01*
X408300Y260692D01*
Y261508D01*
X408089Y262297D01*
X407868Y262679D01*
X408258Y263545D01*
X408401Y263679D01*
X535414D01*
X535414Y263678D01*
X535843Y263764D01*
X536207Y264007D01*
X536793Y264593D01*
X536793Y264593D01*
X537036Y264957D01*
X537122Y265386D01*
Y352439D01*
X537197Y352459D01*
X537903Y352867D01*
X538481Y353445D01*
X538889Y354152D01*
X539100Y354940D01*
Y355756D01*
X538889Y356545D01*
X538481Y357252D01*
X537903Y357829D01*
X537197Y358237D01*
X536408Y358448D01*
D02*
G37*
G36*
X373000Y252049D02*
X371020Y251854D01*
X369116Y251276D01*
X367362Y250339D01*
X365824Y249076D01*
X364562Y247538D01*
X363624Y245784D01*
X363046Y243880D01*
X362851Y241900D01*
X363046Y239920D01*
X363624Y238016D01*
X364562Y236262D01*
X365824Y234724D01*
X367362Y233461D01*
X369116Y232524D01*
X371020Y231946D01*
X373000Y231751D01*
X374980Y231946D01*
X376884Y232524D01*
X378638Y233461D01*
X380176Y234724D01*
X381438Y236262D01*
X382376Y238016D01*
X382954Y239920D01*
X383149Y241900D01*
X382954Y243880D01*
X382376Y245784D01*
X381438Y247538D01*
X380176Y249076D01*
X378638Y250339D01*
X376884Y251276D01*
X374980Y251854D01*
X373000Y252049D01*
D02*
G37*
G36*
X267882D02*
X265902Y251854D01*
X263998Y251276D01*
X262244Y250339D01*
X260706Y249076D01*
X259443Y247538D01*
X258506Y245784D01*
X257928Y243880D01*
X257733Y241900D01*
X257928Y239920D01*
X258506Y238016D01*
X259443Y236262D01*
X260706Y234724D01*
X262244Y233461D01*
X263998Y232524D01*
X265902Y231946D01*
X267882Y231751D01*
X269862Y231946D01*
X271766Y232524D01*
X273520Y233461D01*
X275058Y234724D01*
X276320Y236262D01*
X277258Y238016D01*
X277836Y239920D01*
X278031Y241900D01*
X277836Y243880D01*
X277258Y245784D01*
X276320Y247538D01*
X275058Y249076D01*
X273520Y250339D01*
X271766Y251276D01*
X269862Y251854D01*
X267882Y252049D01*
D02*
G37*
G36*
X578207Y226955D02*
X577193D01*
X576214Y226692D01*
X575336Y226185D01*
X574619Y225469D01*
X574112Y224591D01*
X573850Y223612D01*
Y222598D01*
X574112Y221619D01*
X574619Y220741D01*
X575336Y220024D01*
X576214Y219517D01*
X577193Y219255D01*
X578207D01*
X579186Y219517D01*
X580064Y220024D01*
X580781Y220741D01*
X581288Y221619D01*
X581550Y222598D01*
Y223612D01*
X581288Y224591D01*
X580781Y225469D01*
X580064Y226185D01*
X579186Y226692D01*
X578207Y226955D01*
D02*
G37*
G36*
X439508Y215700D02*
X438692D01*
X437903Y215489D01*
X437197Y215081D01*
X436619Y214503D01*
X436211Y213797D01*
X436191Y213721D01*
X166086D01*
X165657Y213636D01*
X165293Y213393D01*
X165293Y213393D01*
X164707Y212807D01*
X164464Y212443D01*
X164378Y212014D01*
X164378Y212014D01*
Y94078D01*
X163417Y93821D01*
X162483Y93281D01*
X161719Y92518D01*
X161179Y91583D01*
X160900Y90540D01*
Y89460D01*
X161179Y88418D01*
X161719Y87483D01*
X162483Y86719D01*
X163417Y86179D01*
X164460Y85900D01*
X165540D01*
X166583Y86179D01*
X167517Y86719D01*
X168281Y87483D01*
X168821Y88418D01*
X169100Y89460D01*
Y90540D01*
X168821Y91583D01*
X168281Y92518D01*
X167517Y93281D01*
X166622Y93798D01*
Y211478D01*
X436191D01*
X436211Y211403D01*
X436619Y210697D01*
X437197Y210119D01*
X437903Y209711D01*
X438692Y209500D01*
X439508D01*
X440297Y209711D01*
X441003Y210119D01*
X441581Y210697D01*
X441989Y211403D01*
X442200Y212192D01*
Y213008D01*
X441989Y213797D01*
X441581Y214503D01*
X441003Y215081D01*
X440297Y215489D01*
X439508Y215700D01*
D02*
G37*
G36*
X578207Y216955D02*
X577193D01*
X576214Y216692D01*
X575336Y216185D01*
X574619Y215469D01*
X574112Y214591D01*
X573850Y213612D01*
Y212598D01*
X574112Y211619D01*
X574619Y210741D01*
X575336Y210024D01*
X576214Y209517D01*
X577193Y209255D01*
X578207D01*
X579186Y209517D01*
X580064Y210024D01*
X580781Y210741D01*
X581288Y211619D01*
X581550Y212598D01*
Y213612D01*
X581288Y214591D01*
X580781Y215469D01*
X580064Y216185D01*
X579186Y216692D01*
X578207Y216955D01*
D02*
G37*
G36*
X333808Y206700D02*
X332992D01*
X332203Y206489D01*
X331497Y206081D01*
X330919Y205503D01*
X330511Y204797D01*
X330491Y204722D01*
X175686D01*
X175257Y204636D01*
X174893Y204393D01*
X174893Y204393D01*
X174307Y203807D01*
X174064Y203443D01*
X173978Y203014D01*
X173978Y203014D01*
Y129286D01*
X173978Y129286D01*
X174064Y128857D01*
X174307Y128493D01*
X174893Y127907D01*
X174893Y127907D01*
X175257Y127664D01*
X175686Y127578D01*
X183878D01*
Y93944D01*
X183417Y93821D01*
X182483Y93281D01*
X181719Y92518D01*
X181179Y91583D01*
X180900Y90540D01*
Y89460D01*
X181179Y88418D01*
X181719Y87483D01*
X182483Y86719D01*
X183417Y86179D01*
X184460Y85900D01*
X185540D01*
X186583Y86179D01*
X187517Y86719D01*
X188281Y87483D01*
X188821Y88418D01*
X189100Y89460D01*
Y90540D01*
X188821Y91583D01*
X188281Y92518D01*
X187517Y93281D01*
X186583Y93821D01*
X186122Y93944D01*
Y128114D01*
X186036Y128543D01*
X185793Y128907D01*
X185793Y128907D01*
X185207Y129493D01*
X184843Y129736D01*
X184414Y129822D01*
X184414Y129822D01*
X176222D01*
Y202478D01*
X330491D01*
X330511Y202403D01*
X330919Y201697D01*
X331497Y201119D01*
X332203Y200711D01*
X332992Y200500D01*
X333808D01*
X334597Y200711D01*
X335303Y201119D01*
X335881Y201697D01*
X336289Y202403D01*
X336500Y203192D01*
Y204008D01*
X336289Y204797D01*
X335881Y205503D01*
X335303Y206081D01*
X334597Y206489D01*
X333808Y206700D01*
D02*
G37*
G36*
X578207Y206955D02*
X577193D01*
X576214Y206692D01*
X575336Y206186D01*
X574619Y205469D01*
X574112Y204591D01*
X573850Y203612D01*
Y202598D01*
X574112Y201619D01*
X574619Y200741D01*
X575336Y200024D01*
X576214Y199517D01*
X577193Y199255D01*
X578207D01*
X579186Y199517D01*
X580064Y200024D01*
X580781Y200741D01*
X581288Y201619D01*
X581550Y202598D01*
Y203612D01*
X581288Y204591D01*
X580781Y205469D01*
X580064Y206186D01*
X579186Y206692D01*
X578207Y206955D01*
D02*
G37*
G36*
X111215Y254500D02*
X110399D01*
X109610Y254289D01*
X108903Y253881D01*
X108326Y253303D01*
X107918Y252597D01*
X107707Y251808D01*
Y250992D01*
X107918Y250203D01*
X108326Y249497D01*
X108903Y248919D01*
X109610Y248511D01*
X110399Y248300D01*
X111215D01*
X112003Y248511D01*
X112710Y248919D01*
X113287Y249497D01*
X113695Y250203D01*
X113769Y250479D01*
X199678D01*
Y228400D01*
X199678Y228400D01*
X199764Y227971D01*
X200007Y227607D01*
X202707Y224907D01*
X202707Y224907D01*
X203071Y224664D01*
X203500Y224578D01*
X203500Y224578D01*
X353487D01*
X353935Y223579D01*
X353633Y223241D01*
X161261D01*
X160442Y223078D01*
X159747Y222614D01*
X157990Y220857D01*
X157526Y220162D01*
X157363Y219343D01*
Y102691D01*
X156860Y102188D01*
X95083D01*
X94757Y102514D01*
X94062Y102978D01*
X93243Y103141D01*
X75757D01*
X74938Y102978D01*
X74243Y102514D01*
X72486Y100757D01*
X72022Y100062D01*
X71859Y99243D01*
Y96243D01*
X72022Y95423D01*
X72093Y95316D01*
Y92892D01*
X71719Y92518D01*
X71179Y91583D01*
X70900Y90540D01*
Y89460D01*
X71179Y88418D01*
X71719Y87483D01*
X72483Y86719D01*
X73418Y86179D01*
X74460Y85900D01*
X75540D01*
X76582Y86179D01*
X77517Y86719D01*
X78281Y87483D01*
X78821Y88418D01*
X79100Y89460D01*
Y90540D01*
X78821Y91583D01*
X78281Y92518D01*
X77517Y93281D01*
X76582Y93821D01*
X76376Y93876D01*
Y96008D01*
X76213Y96827D01*
X76141Y96935D01*
Y98356D01*
X76644Y98859D01*
X92356D01*
X92682Y98532D01*
X92682Y98532D01*
X92859Y98356D01*
Y93498D01*
X92483Y93281D01*
X91719Y92518D01*
X91179Y91583D01*
X90900Y90540D01*
Y89460D01*
X91179Y88418D01*
X91719Y87483D01*
X92483Y86719D01*
X93418Y86179D01*
X94460Y85900D01*
X95540D01*
X96583Y86179D01*
X97518Y86719D01*
X98281Y87483D01*
X98821Y88418D01*
X99100Y89460D01*
Y90540D01*
X98821Y91583D01*
X98281Y92518D01*
X97518Y93281D01*
X97141Y93498D01*
Y97905D01*
X157747D01*
X158566Y98068D01*
X159261Y98532D01*
X161018Y100290D01*
X161482Y100984D01*
X161645Y101804D01*
Y218456D01*
X162148Y218959D01*
X353657D01*
X354197Y218419D01*
X354903Y218011D01*
X355692Y217800D01*
X356508D01*
X357297Y218011D01*
X358003Y218419D01*
X358543Y218959D01*
X475956D01*
X477159Y217756D01*
Y202643D01*
X476819Y202303D01*
X476411Y201597D01*
X476200Y200808D01*
Y199992D01*
X476411Y199203D01*
X476819Y198497D01*
X477397Y197919D01*
X478103Y197511D01*
X478892Y197300D01*
X479708D01*
X480497Y197511D01*
X481203Y197919D01*
X481781Y198497D01*
X482189Y199203D01*
X482400Y199992D01*
Y200808D01*
X482189Y201597D01*
X481781Y202303D01*
X481441Y202643D01*
Y218643D01*
X481278Y219462D01*
X480814Y220157D01*
X478357Y222614D01*
X477662Y223078D01*
X476843Y223241D01*
X464274D01*
X463737Y224241D01*
X463889Y224503D01*
X464100Y225292D01*
Y226108D01*
X463889Y226897D01*
X463481Y227603D01*
X462903Y228181D01*
X462197Y228589D01*
X461408Y228800D01*
X460592D01*
X459803Y228589D01*
X459097Y228181D01*
X458519Y227603D01*
X458111Y226897D01*
X458091Y226821D01*
X203965D01*
X201922Y228865D01*
Y251014D01*
X201836Y251443D01*
X201593Y251807D01*
X201593Y251807D01*
X201007Y252393D01*
X200643Y252636D01*
X200214Y252722D01*
X200214Y252722D01*
X113623D01*
X113287Y253303D01*
X112710Y253881D01*
X112003Y254289D01*
X111215Y254500D01*
D02*
G37*
G36*
X581550Y196955D02*
X573850D01*
Y189255D01*
X581550D01*
Y196955D01*
D02*
G37*
G36*
X338808Y192200D02*
X337992D01*
X337203Y191989D01*
X336497Y191581D01*
X335919Y191003D01*
X335511Y190297D01*
X335491Y190222D01*
X181800D01*
X181371Y190136D01*
X181007Y189893D01*
X181007Y189893D01*
X180107Y188993D01*
X179864Y188629D01*
X179778Y188200D01*
X179778Y188200D01*
Y138000D01*
X179778Y138000D01*
X179864Y137571D01*
X180107Y137207D01*
X180907Y136407D01*
X181271Y136164D01*
X181700Y136078D01*
X181700Y136078D01*
X212778D01*
Y73165D01*
X212135Y72522D01*
X206121D01*
Y76056D01*
X206582Y76179D01*
X207518Y76719D01*
X208281Y77482D01*
X208821Y78417D01*
X209100Y79460D01*
Y80540D01*
X208821Y81582D01*
X208281Y82517D01*
X207518Y83281D01*
X206582Y83821D01*
X205540Y84100D01*
X204460D01*
X203417Y83821D01*
X202483Y83281D01*
X201719Y82517D01*
X201179Y81582D01*
X200900Y80540D01*
Y79460D01*
X201179Y78417D01*
X201719Y77482D01*
X202483Y76719D01*
X203417Y76179D01*
X203878Y76056D01*
Y71986D01*
X203878Y71986D01*
X203964Y71557D01*
X204207Y71193D01*
X204793Y70607D01*
X204793Y70607D01*
X205157Y70364D01*
X205586Y70278D01*
X212600D01*
X212600Y70278D01*
X213029Y70364D01*
X213393Y70607D01*
X214693Y71907D01*
X214693Y71907D01*
X214936Y72271D01*
X215022Y72700D01*
X215021Y72700D01*
Y136614D01*
X214936Y137043D01*
X214693Y137407D01*
X214693Y137407D01*
X214107Y137993D01*
X213743Y138236D01*
X213314Y138322D01*
X213314Y138322D01*
X182165D01*
X182022Y138465D01*
Y187735D01*
X182265Y187978D01*
X335491D01*
X335511Y187903D01*
X335919Y187197D01*
X336497Y186619D01*
X337203Y186211D01*
X337992Y186000D01*
X338808D01*
X339597Y186211D01*
X340303Y186619D01*
X340881Y187197D01*
X341289Y187903D01*
X341500Y188692D01*
Y189508D01*
X341289Y190297D01*
X340881Y191003D01*
X340303Y191581D01*
X339597Y191989D01*
X338808Y192200D01*
D02*
G37*
G36*
X85540Y324100D02*
X84460D01*
X83417Y323821D01*
X82482Y323281D01*
X81719Y322517D01*
X81179Y321583D01*
X80900Y320540D01*
Y319460D01*
X81179Y318418D01*
X81719Y317482D01*
X82482Y316719D01*
X83417Y316179D01*
X83428Y316177D01*
Y192265D01*
X83257Y192093D01*
X83014Y191729D01*
X82928Y191300D01*
X82928Y191300D01*
Y190303D01*
X82503Y190189D01*
X81797Y189781D01*
X81219Y189203D01*
X80811Y188497D01*
X80600Y187708D01*
Y186892D01*
X80811Y186103D01*
X81219Y185397D01*
X81797Y184819D01*
X82503Y184411D01*
X83292Y184200D01*
X84108D01*
X84897Y184411D01*
X85603Y184819D01*
X86181Y185397D01*
X86589Y186103D01*
X86800Y186892D01*
Y187708D01*
X86589Y188497D01*
X86181Y189203D01*
X85603Y189781D01*
X85368Y189917D01*
X85283Y190947D01*
X85343Y191007D01*
X85343Y191007D01*
X85586Y191371D01*
X85672Y191800D01*
X85672Y191800D01*
Y315935D01*
X86582Y316179D01*
X87517Y316719D01*
X88281Y317482D01*
X88821Y318418D01*
X89100Y319460D01*
Y320540D01*
X88821Y321583D01*
X88281Y322517D01*
X87517Y323281D01*
X86582Y323821D01*
X85540Y324100D01*
D02*
G37*
G36*
X356308Y179400D02*
X355492D01*
X354703Y179189D01*
X353997Y178781D01*
X353657Y178441D01*
X190400D01*
X189581Y178278D01*
X188886Y177814D01*
X185486Y174414D01*
X185022Y173719D01*
X184859Y172900D01*
Y146043D01*
X184319Y145503D01*
X183911Y144797D01*
X183700Y144008D01*
Y143192D01*
X183911Y142403D01*
X184319Y141697D01*
X184897Y141119D01*
X185603Y140711D01*
X186392Y140500D01*
X187208D01*
X187997Y140711D01*
X188703Y141119D01*
X189281Y141697D01*
X189689Y142403D01*
X189900Y143192D01*
Y144008D01*
X189689Y144797D01*
X189281Y145503D01*
X189141Y145643D01*
Y172013D01*
X191287Y174159D01*
X353657D01*
X353997Y173819D01*
X354703Y173411D01*
X355492Y173200D01*
X356308D01*
X357097Y173411D01*
X357803Y173819D01*
X358381Y174397D01*
X358789Y175103D01*
X359000Y175892D01*
Y176708D01*
X358789Y177497D01*
X358381Y178203D01*
X357803Y178781D01*
X357097Y179189D01*
X356308Y179400D01*
D02*
G37*
G36*
X522208Y173707D02*
X521392D01*
X520603Y173496D01*
X519897Y173088D01*
X519319Y172511D01*
X518911Y171804D01*
X518891Y171729D01*
X427507D01*
X427489Y171797D01*
X427081Y172503D01*
X426503Y173081D01*
X425797Y173489D01*
X425008Y173700D01*
X424192D01*
X423403Y173489D01*
X422697Y173081D01*
X422119Y172503D01*
X421711Y171797D01*
X421500Y171008D01*
Y170192D01*
X421711Y169403D01*
X422119Y168697D01*
X422697Y168119D01*
X423403Y167711D01*
X424192Y167500D01*
X425008D01*
X425797Y167711D01*
X426503Y168119D01*
X427081Y168697D01*
X427489Y169403D01*
X427511Y169485D01*
X518891D01*
X518911Y169411D01*
X519319Y168704D01*
X519897Y168126D01*
X520603Y167718D01*
X521392Y167507D01*
X522208D01*
X522997Y167718D01*
X523703Y168126D01*
X524281Y168704D01*
X524689Y169411D01*
X524900Y170199D01*
Y171015D01*
X524689Y171804D01*
X524281Y172511D01*
X523703Y173088D01*
X522997Y173496D01*
X522208Y173707D01*
D02*
G37*
G36*
X328608Y172900D02*
X327792D01*
X327003Y172689D01*
X326297Y172281D01*
X325719Y171703D01*
X325311Y170997D01*
X325291Y170922D01*
X232686D01*
X232257Y170836D01*
X231893Y170593D01*
X231893Y170593D01*
X231307Y170007D01*
X231064Y169643D01*
X230978Y169214D01*
X230978Y169214D01*
Y79109D01*
X230903Y79089D01*
X230197Y78681D01*
X229619Y78103D01*
X229211Y77397D01*
X229000Y76608D01*
Y75792D01*
X229211Y75003D01*
X229619Y74297D01*
X230197Y73719D01*
X230903Y73311D01*
X231692Y73100D01*
X232508D01*
X233297Y73311D01*
X234003Y73719D01*
X234581Y74297D01*
X234989Y75003D01*
X235200Y75792D01*
Y76608D01*
X234989Y77397D01*
X234581Y78103D01*
X234003Y78681D01*
X233297Y79089D01*
X233222Y79109D01*
Y168678D01*
X325291D01*
X325311Y168603D01*
X325719Y167897D01*
X326297Y167319D01*
X327003Y166911D01*
X327792Y166700D01*
X328608D01*
X329397Y166911D01*
X330103Y167319D01*
X330681Y167897D01*
X331089Y168603D01*
X331300Y169392D01*
Y170208D01*
X331089Y170997D01*
X330681Y171703D01*
X330103Y172281D01*
X329397Y172689D01*
X328608Y172900D01*
D02*
G37*
G36*
X105540Y324100D02*
X104460D01*
X103418Y323821D01*
X102482Y323281D01*
X101719Y322517D01*
X101179Y321583D01*
X100900Y320540D01*
Y319460D01*
X101179Y318418D01*
X101719Y317482D01*
X102482Y316719D01*
X103418Y316179D01*
X103828Y316069D01*
Y168422D01*
X103703Y168389D01*
X102997Y167981D01*
X102419Y167403D01*
X102011Y166697D01*
X101800Y165908D01*
Y165092D01*
X102011Y164303D01*
X102419Y163597D01*
X102997Y163019D01*
X103703Y162611D01*
X104492Y162400D01*
X105308D01*
X106097Y162611D01*
X106803Y163019D01*
X107381Y163597D01*
X107789Y164303D01*
X108000Y165092D01*
Y165908D01*
X107789Y166697D01*
X107381Y167403D01*
X106803Y167981D01*
X106097Y168389D01*
X106072Y168395D01*
Y316042D01*
X106582Y316179D01*
X107518Y316719D01*
X108281Y317482D01*
X108821Y318418D01*
X109100Y319460D01*
Y320540D01*
X108821Y321583D01*
X108281Y322517D01*
X107518Y323281D01*
X106582Y323821D01*
X105540Y324100D01*
D02*
G37*
G36*
X545058Y179800D02*
X544242D01*
X543453Y179589D01*
X542747Y179181D01*
X542169Y178603D01*
X541761Y177897D01*
X541550Y177108D01*
Y176292D01*
X541761Y175503D01*
X542169Y174797D01*
X542747Y174219D01*
X543453Y173811D01*
X544242Y173600D01*
X545058D01*
X545847Y173811D01*
X546178Y174003D01*
X547124Y173543D01*
X547178Y173478D01*
Y152259D01*
X546697Y151981D01*
X546119Y151403D01*
X545711Y150697D01*
X545500Y149908D01*
Y149092D01*
X545711Y148303D01*
X546119Y147597D01*
X546697Y147019D01*
X547403Y146611D01*
X548192Y146400D01*
X549008D01*
X549797Y146611D01*
X550503Y147019D01*
X551081Y147597D01*
X551489Y148303D01*
X551700Y149092D01*
Y149908D01*
X551489Y150697D01*
X551081Y151403D01*
X550503Y151981D01*
X549797Y152389D01*
X549422Y152489D01*
Y175900D01*
X549422Y175900D01*
X549336Y176329D01*
X549093Y176693D01*
X549093Y176693D01*
X548293Y177493D01*
X547929Y177736D01*
X547562Y177809D01*
X547539Y177897D01*
X547131Y178603D01*
X546553Y179181D01*
X545847Y179589D01*
X545058Y179800D01*
D02*
G37*
G36*
X95540Y324100D02*
X94460D01*
X93418Y323821D01*
X92483Y323281D01*
X91719Y322517D01*
X91179Y321583D01*
X90900Y320540D01*
Y319460D01*
X91179Y318418D01*
X91719Y317482D01*
X92483Y316719D01*
X93418Y316179D01*
X94028Y316016D01*
Y134245D01*
X93397Y133881D01*
X92819Y133303D01*
X92411Y132597D01*
X92200Y131808D01*
Y130992D01*
X92411Y130203D01*
X92819Y129497D01*
X93397Y128919D01*
X94103Y128511D01*
X94892Y128300D01*
X95708D01*
X96497Y128511D01*
X97203Y128919D01*
X97781Y129497D01*
X98189Y130203D01*
X98400Y130992D01*
Y131808D01*
X98189Y132597D01*
X97781Y133303D01*
X97203Y133881D01*
X96497Y134289D01*
X96272Y134349D01*
Y316096D01*
X96583Y316179D01*
X97518Y316719D01*
X98281Y317482D01*
X98821Y318418D01*
X99100Y319460D01*
Y320540D01*
X98821Y321583D01*
X98281Y322517D01*
X97518Y323281D01*
X96583Y323821D01*
X95540Y324100D01*
D02*
G37*
G36*
X306108Y106300D02*
X305292D01*
X304503Y106089D01*
X303797Y105681D01*
X303407Y105291D01*
X253393D01*
X253103Y105581D01*
X252397Y105989D01*
X251608Y106200D01*
X250792D01*
X250003Y105989D01*
X249297Y105581D01*
X248719Y105003D01*
X248311Y104297D01*
X248100Y103508D01*
Y102692D01*
X248311Y101903D01*
X248719Y101197D01*
X249297Y100619D01*
X250003Y100211D01*
X250792Y100000D01*
X251608D01*
X252397Y100211D01*
X253103Y100619D01*
X253493Y101009D01*
X303507D01*
X303797Y100719D01*
X304503Y100311D01*
X305292Y100100D01*
X306108D01*
X306897Y100311D01*
X307603Y100719D01*
X308181Y101297D01*
X308589Y102003D01*
X308800Y102792D01*
Y103608D01*
X308589Y104397D01*
X308181Y105103D01*
X307603Y105681D01*
X306897Y106089D01*
X306108Y106300D01*
D02*
G37*
G36*
X55592Y94500D02*
X55500D01*
Y90500D01*
X59500D01*
Y90592D01*
X59193Y91737D01*
X58601Y92763D01*
X57763Y93601D01*
X56737Y94193D01*
X55592Y94500D01*
D02*
G37*
G36*
X54500D02*
X54408D01*
X53263Y94193D01*
X52237Y93601D01*
X51399Y92763D01*
X50807Y91737D01*
X50500Y90592D01*
Y90500D01*
X54500D01*
Y94500D01*
D02*
G37*
G36*
X205540Y94100D02*
X204460D01*
X203417Y93821D01*
X202483Y93281D01*
X201719Y92518D01*
X201179Y91583D01*
X200900Y90540D01*
Y89460D01*
X201179Y88418D01*
X201719Y87483D01*
X202483Y86719D01*
X203417Y86179D01*
X204460Y85900D01*
X205540D01*
X206582Y86179D01*
X207518Y86719D01*
X208281Y87483D01*
X208821Y88418D01*
X209100Y89460D01*
Y90540D01*
X208821Y91583D01*
X208281Y92518D01*
X207518Y93281D01*
X206582Y93821D01*
X205540Y94100D01*
D02*
G37*
G36*
X195540D02*
X194460D01*
X193418Y93821D01*
X192482Y93281D01*
X191719Y92518D01*
X191179Y91583D01*
X190900Y90540D01*
Y89460D01*
X191179Y88418D01*
X191719Y87483D01*
X192482Y86719D01*
X193418Y86179D01*
X194460Y85900D01*
X195540D01*
X196582Y86179D01*
X197518Y86719D01*
X198281Y87483D01*
X198821Y88418D01*
X199100Y89460D01*
Y90540D01*
X198821Y91583D01*
X198281Y92518D01*
X197518Y93281D01*
X196582Y93821D01*
X195540Y94100D01*
D02*
G37*
G36*
X175540D02*
X174460D01*
X173417Y93821D01*
X172483Y93281D01*
X171719Y92518D01*
X171179Y91583D01*
X170900Y90540D01*
Y89460D01*
X171179Y88418D01*
X171719Y87483D01*
X172483Y86719D01*
X173417Y86179D01*
X174460Y85900D01*
X175540D01*
X176583Y86179D01*
X177517Y86719D01*
X178281Y87483D01*
X178821Y88418D01*
X179100Y89460D01*
Y90540D01*
X178821Y91583D01*
X178281Y92518D01*
X177517Y93281D01*
X176583Y93821D01*
X175540Y94100D01*
D02*
G37*
G36*
X155540D02*
X154460D01*
X153418Y93821D01*
X152482Y93281D01*
X151719Y92518D01*
X151179Y91583D01*
X150900Y90540D01*
Y89460D01*
X151179Y88418D01*
X151719Y87483D01*
X152482Y86719D01*
X153418Y86179D01*
X154460Y85900D01*
X155540D01*
X156582Y86179D01*
X157518Y86719D01*
X158281Y87483D01*
X158821Y88418D01*
X159100Y89460D01*
Y90540D01*
X158821Y91583D01*
X158281Y92518D01*
X157518Y93281D01*
X156582Y93821D01*
X155540Y94100D01*
D02*
G37*
G36*
X145540D02*
X144460D01*
X143418Y93821D01*
X142482Y93281D01*
X141719Y92518D01*
X141179Y91583D01*
X140900Y90540D01*
Y89460D01*
X141179Y88418D01*
X141719Y87483D01*
X142482Y86719D01*
X143418Y86179D01*
X144460Y85900D01*
X145540D01*
X146582Y86179D01*
X147518Y86719D01*
X148281Y87483D01*
X148821Y88418D01*
X149100Y89460D01*
Y90540D01*
X148821Y91583D01*
X148281Y92518D01*
X147518Y93281D01*
X146582Y93821D01*
X145540Y94100D01*
D02*
G37*
G36*
X135540D02*
X134460D01*
X133417Y93821D01*
X132483Y93281D01*
X131719Y92518D01*
X131179Y91583D01*
X130900Y90540D01*
Y89460D01*
X131179Y88418D01*
X131719Y87483D01*
X132483Y86719D01*
X133417Y86179D01*
X134460Y85900D01*
X135540D01*
X136583Y86179D01*
X137517Y86719D01*
X138281Y87483D01*
X138821Y88418D01*
X139100Y89460D01*
Y90540D01*
X138821Y91583D01*
X138281Y92518D01*
X137517Y93281D01*
X136583Y93821D01*
X135540Y94100D01*
D02*
G37*
G36*
X125540D02*
X124460D01*
X123417Y93821D01*
X122483Y93281D01*
X121719Y92518D01*
X121179Y91583D01*
X120900Y90540D01*
Y89460D01*
X121179Y88418D01*
X121719Y87483D01*
X122483Y86719D01*
X123417Y86179D01*
X124460Y85900D01*
X125540D01*
X126583Y86179D01*
X127517Y86719D01*
X128281Y87483D01*
X128821Y88418D01*
X129100Y89460D01*
Y90540D01*
X128821Y91583D01*
X128281Y92518D01*
X127517Y93281D01*
X126583Y93821D01*
X125540Y94100D01*
D02*
G37*
G36*
X115540D02*
X114460D01*
X113417Y93821D01*
X112483Y93281D01*
X111719Y92518D01*
X111179Y91583D01*
X110900Y90540D01*
Y89460D01*
X111179Y88418D01*
X111719Y87483D01*
X112483Y86719D01*
X113417Y86179D01*
X114460Y85900D01*
X115540D01*
X116583Y86179D01*
X117517Y86719D01*
X118281Y87483D01*
X118821Y88418D01*
X119100Y89460D01*
Y90540D01*
X118821Y91583D01*
X118281Y92518D01*
X117517Y93281D01*
X116583Y93821D01*
X115540Y94100D01*
D02*
G37*
G36*
X105540D02*
X104460D01*
X103418Y93821D01*
X102482Y93281D01*
X101719Y92518D01*
X101179Y91583D01*
X100900Y90540D01*
Y89460D01*
X101179Y88418D01*
X101719Y87483D01*
X102482Y86719D01*
X103418Y86179D01*
X104460Y85900D01*
X105540D01*
X106582Y86179D01*
X107518Y86719D01*
X108281Y87483D01*
X108821Y88418D01*
X109100Y89460D01*
Y90540D01*
X108821Y91583D01*
X108281Y92518D01*
X107518Y93281D01*
X106582Y93821D01*
X105540Y94100D01*
D02*
G37*
G36*
X85540D02*
X84460D01*
X83417Y93821D01*
X82482Y93281D01*
X81719Y92518D01*
X81179Y91583D01*
X80900Y90540D01*
Y89460D01*
X81179Y88418D01*
X81719Y87483D01*
X82482Y86719D01*
X83417Y86179D01*
X84460Y85900D01*
X85540D01*
X86582Y86179D01*
X87517Y86719D01*
X88281Y87483D01*
X88821Y88418D01*
X89100Y89460D01*
Y90540D01*
X88821Y91583D01*
X88281Y92518D01*
X87517Y93281D01*
X86582Y93821D01*
X85540Y94100D01*
D02*
G37*
G36*
X65540D02*
X64460D01*
X63418Y93821D01*
X62483Y93281D01*
X61719Y92518D01*
X61179Y91583D01*
X60900Y90540D01*
Y89460D01*
X61179Y88418D01*
X61719Y87483D01*
X62483Y86719D01*
X63418Y86179D01*
X64460Y85900D01*
X65540D01*
X66583Y86179D01*
X67518Y86719D01*
X68281Y87483D01*
X68821Y88418D01*
X69100Y89460D01*
Y90540D01*
X68821Y91583D01*
X68281Y92518D01*
X67518Y93281D01*
X66583Y93821D01*
X65540Y94100D01*
D02*
G37*
G36*
X45540D02*
X44460D01*
X43418Y93821D01*
X42483Y93281D01*
X41719Y92518D01*
X41179Y91583D01*
X40900Y90540D01*
Y89460D01*
X41179Y88418D01*
X41719Y87483D01*
X42483Y86719D01*
X43418Y86179D01*
X44460Y85900D01*
X45540D01*
X46582Y86179D01*
X47517Y86719D01*
X48281Y87483D01*
X48821Y88418D01*
X49100Y89460D01*
Y90540D01*
X48821Y91583D01*
X48281Y92518D01*
X47517Y93281D01*
X46582Y93821D01*
X45540Y94100D01*
D02*
G37*
G36*
X35540D02*
X34460D01*
X33417Y93821D01*
X32482Y93281D01*
X31719Y92518D01*
X31179Y91583D01*
X30900Y90540D01*
Y89460D01*
X31179Y88418D01*
X31719Y87483D01*
X32482Y86719D01*
X33417Y86179D01*
X34460Y85900D01*
X35540D01*
X36582Y86179D01*
X37517Y86719D01*
X38281Y87483D01*
X38821Y88418D01*
X39100Y89460D01*
Y90540D01*
X38821Y91583D01*
X38281Y92518D01*
X37517Y93281D01*
X36582Y93821D01*
X35540Y94100D01*
D02*
G37*
G36*
X25540D02*
X24460D01*
X23417Y93821D01*
X22482Y93281D01*
X21719Y92518D01*
X21179Y91583D01*
X20900Y90540D01*
Y89460D01*
X21179Y88418D01*
X21719Y87483D01*
X22482Y86719D01*
X23417Y86179D01*
X24460Y85900D01*
X25540D01*
X26583Y86179D01*
X27518Y86719D01*
X28281Y87483D01*
X28821Y88418D01*
X29100Y89460D01*
Y90540D01*
X28821Y91583D01*
X28281Y92518D01*
X27518Y93281D01*
X26583Y93821D01*
X25540Y94100D01*
D02*
G37*
G36*
X59500Y89500D02*
X55500D01*
Y85500D01*
X55592D01*
X56737Y85807D01*
X57763Y86399D01*
X58601Y87237D01*
X59193Y88263D01*
X59500Y89408D01*
Y89500D01*
D02*
G37*
G36*
X54500D02*
X50500D01*
Y89408D01*
X50807Y88263D01*
X51399Y87237D01*
X52237Y86399D01*
X53263Y85807D01*
X54408Y85500D01*
X54500D01*
Y89500D01*
D02*
G37*
G36*
X115592Y84500D02*
X115500D01*
Y80500D01*
X119500D01*
Y80592D01*
X119193Y81737D01*
X118601Y82763D01*
X117763Y83601D01*
X116737Y84193D01*
X115592Y84500D01*
D02*
G37*
G36*
X114500D02*
X114408D01*
X113263Y84193D01*
X112237Y83601D01*
X111399Y82763D01*
X110807Y81737D01*
X110500Y80592D01*
Y80500D01*
X114500D01*
Y84500D01*
D02*
G37*
G36*
X195540Y84100D02*
X194460D01*
X193418Y83821D01*
X192482Y83281D01*
X191719Y82517D01*
X191179Y81582D01*
X190900Y80540D01*
Y79460D01*
X191179Y78417D01*
X191719Y77482D01*
X192482Y76719D01*
X193418Y76179D01*
X194460Y75900D01*
X195540D01*
X196582Y76179D01*
X197518Y76719D01*
X198281Y77482D01*
X198821Y78417D01*
X199100Y79460D01*
Y80540D01*
X198821Y81582D01*
X198281Y82517D01*
X197518Y83281D01*
X196582Y83821D01*
X195540Y84100D01*
D02*
G37*
G36*
X185540D02*
X184460D01*
X183417Y83821D01*
X182483Y83281D01*
X181719Y82517D01*
X181179Y81582D01*
X180900Y80540D01*
Y79460D01*
X181179Y78417D01*
X181719Y77482D01*
X182483Y76719D01*
X183417Y76179D01*
X184460Y75900D01*
X185540D01*
X186583Y76179D01*
X187517Y76719D01*
X188281Y77482D01*
X188821Y78417D01*
X189100Y79460D01*
Y80540D01*
X188821Y81582D01*
X188281Y82517D01*
X187517Y83281D01*
X186583Y83821D01*
X185540Y84100D01*
D02*
G37*
G36*
X175540D02*
X174460D01*
X173417Y83821D01*
X172483Y83281D01*
X171719Y82517D01*
X171179Y81582D01*
X170900Y80540D01*
Y79460D01*
X171179Y78417D01*
X171719Y77482D01*
X172483Y76719D01*
X173417Y76179D01*
X174460Y75900D01*
X175540D01*
X176583Y76179D01*
X177517Y76719D01*
X178281Y77482D01*
X178821Y78417D01*
X179100Y79460D01*
Y80540D01*
X178821Y81582D01*
X178281Y82517D01*
X177517Y83281D01*
X176583Y83821D01*
X175540Y84100D01*
D02*
G37*
G36*
X165540D02*
X164460D01*
X163417Y83821D01*
X162483Y83281D01*
X161719Y82517D01*
X161179Y81582D01*
X160900Y80540D01*
Y79460D01*
X161179Y78417D01*
X161719Y77482D01*
X162483Y76719D01*
X163417Y76179D01*
X164460Y75900D01*
X165540D01*
X166583Y76179D01*
X167517Y76719D01*
X168281Y77482D01*
X168821Y78417D01*
X169100Y79460D01*
Y80540D01*
X168821Y81582D01*
X168281Y82517D01*
X167517Y83281D01*
X166583Y83821D01*
X165540Y84100D01*
D02*
G37*
G36*
X155540D02*
X154460D01*
X153418Y83821D01*
X152482Y83281D01*
X151719Y82517D01*
X151179Y81582D01*
X150900Y80540D01*
Y79460D01*
X151179Y78417D01*
X151719Y77482D01*
X152482Y76719D01*
X153418Y76179D01*
X154460Y75900D01*
X155540D01*
X156582Y76179D01*
X157518Y76719D01*
X158281Y77482D01*
X158821Y78417D01*
X159100Y79460D01*
Y80540D01*
X158821Y81582D01*
X158281Y82517D01*
X157518Y83281D01*
X156582Y83821D01*
X155540Y84100D01*
D02*
G37*
G36*
X145540D02*
X144460D01*
X143418Y83821D01*
X142482Y83281D01*
X141719Y82517D01*
X141179Y81582D01*
X140900Y80540D01*
Y79460D01*
X141179Y78417D01*
X141719Y77482D01*
X142482Y76719D01*
X143418Y76179D01*
X144460Y75900D01*
X145540D01*
X146582Y76179D01*
X147518Y76719D01*
X148281Y77482D01*
X148821Y78417D01*
X149100Y79460D01*
Y80540D01*
X148821Y81582D01*
X148281Y82517D01*
X147518Y83281D01*
X146582Y83821D01*
X145540Y84100D01*
D02*
G37*
G36*
X135540D02*
X134460D01*
X133417Y83821D01*
X132483Y83281D01*
X131719Y82517D01*
X131179Y81582D01*
X130900Y80540D01*
Y79460D01*
X131179Y78417D01*
X131719Y77482D01*
X132483Y76719D01*
X133417Y76179D01*
X134460Y75900D01*
X135540D01*
X136583Y76179D01*
X137517Y76719D01*
X138281Y77482D01*
X138821Y78417D01*
X139100Y79460D01*
Y80540D01*
X138821Y81582D01*
X138281Y82517D01*
X137517Y83281D01*
X136583Y83821D01*
X135540Y84100D01*
D02*
G37*
G36*
X125540D02*
X124460D01*
X123417Y83821D01*
X122483Y83281D01*
X121719Y82517D01*
X121179Y81582D01*
X120900Y80540D01*
Y79460D01*
X121179Y78417D01*
X121719Y77482D01*
X122483Y76719D01*
X123417Y76179D01*
X124460Y75900D01*
X125540D01*
X126583Y76179D01*
X127517Y76719D01*
X128281Y77482D01*
X128821Y78417D01*
X129100Y79460D01*
Y80540D01*
X128821Y81582D01*
X128281Y82517D01*
X127517Y83281D01*
X126583Y83821D01*
X125540Y84100D01*
D02*
G37*
G36*
X105540D02*
X104460D01*
X103418Y83821D01*
X102482Y83281D01*
X101719Y82517D01*
X101179Y81582D01*
X100900Y80540D01*
Y79460D01*
X101179Y78417D01*
X101719Y77482D01*
X102482Y76719D01*
X103418Y76179D01*
X104460Y75900D01*
X105540D01*
X106582Y76179D01*
X107518Y76719D01*
X108281Y77482D01*
X108821Y78417D01*
X109100Y79460D01*
Y80540D01*
X108821Y81582D01*
X108281Y82517D01*
X107518Y83281D01*
X106582Y83821D01*
X105540Y84100D01*
D02*
G37*
G36*
X95540D02*
X94460D01*
X93418Y83821D01*
X92483Y83281D01*
X91719Y82517D01*
X91179Y81582D01*
X90900Y80540D01*
Y79460D01*
X91179Y78417D01*
X91719Y77482D01*
X92483Y76719D01*
X93418Y76179D01*
X94460Y75900D01*
X95540D01*
X96583Y76179D01*
X97518Y76719D01*
X98281Y77482D01*
X98821Y78417D01*
X99100Y79460D01*
Y80540D01*
X98821Y81582D01*
X98281Y82517D01*
X97518Y83281D01*
X96583Y83821D01*
X95540Y84100D01*
D02*
G37*
G36*
X85540D02*
X84460D01*
X83417Y83821D01*
X82482Y83281D01*
X81719Y82517D01*
X81179Y81582D01*
X80900Y80540D01*
Y79460D01*
X81179Y78417D01*
X81719Y77482D01*
X82482Y76719D01*
X83417Y76179D01*
X84460Y75900D01*
X85540D01*
X86582Y76179D01*
X87517Y76719D01*
X88281Y77482D01*
X88821Y78417D01*
X89100Y79460D01*
Y80540D01*
X88821Y81582D01*
X88281Y82517D01*
X87517Y83281D01*
X86582Y83821D01*
X85540Y84100D01*
D02*
G37*
G36*
X75540D02*
X74460D01*
X73418Y83821D01*
X72483Y83281D01*
X71719Y82517D01*
X71179Y81582D01*
X70900Y80540D01*
Y79460D01*
X71179Y78417D01*
X71719Y77482D01*
X72483Y76719D01*
X73418Y76179D01*
X74460Y75900D01*
X75540D01*
X76582Y76179D01*
X77517Y76719D01*
X78281Y77482D01*
X78821Y78417D01*
X79100Y79460D01*
Y80540D01*
X78821Y81582D01*
X78281Y82517D01*
X77517Y83281D01*
X76582Y83821D01*
X75540Y84100D01*
D02*
G37*
G36*
X65540D02*
X64460D01*
X63418Y83821D01*
X62483Y83281D01*
X61719Y82517D01*
X61179Y81582D01*
X60900Y80540D01*
Y79460D01*
X61179Y78417D01*
X61719Y77482D01*
X62483Y76719D01*
X63418Y76179D01*
X64460Y75900D01*
X65540D01*
X66583Y76179D01*
X67518Y76719D01*
X68281Y77482D01*
X68821Y78417D01*
X69100Y79460D01*
Y80540D01*
X68821Y81582D01*
X68281Y82517D01*
X67518Y83281D01*
X66583Y83821D01*
X65540Y84100D01*
D02*
G37*
G36*
X55540D02*
X54460D01*
X53417Y83821D01*
X52482Y83281D01*
X51719Y82517D01*
X51179Y81582D01*
X50900Y80540D01*
Y79460D01*
X51179Y78417D01*
X51719Y77482D01*
X52482Y76719D01*
X53417Y76179D01*
X54460Y75900D01*
X55540D01*
X56582Y76179D01*
X57517Y76719D01*
X58281Y77482D01*
X58821Y78417D01*
X59100Y79460D01*
Y80540D01*
X58821Y81582D01*
X58281Y82517D01*
X57517Y83281D01*
X56582Y83821D01*
X55540Y84100D01*
D02*
G37*
G36*
X45540D02*
X44460D01*
X43418Y83821D01*
X42483Y83281D01*
X41719Y82517D01*
X41179Y81582D01*
X40900Y80540D01*
Y79460D01*
X41179Y78417D01*
X41719Y77482D01*
X42483Y76719D01*
X43418Y76179D01*
X44460Y75900D01*
X45540D01*
X46582Y76179D01*
X47517Y76719D01*
X48281Y77482D01*
X48821Y78417D01*
X49100Y79460D01*
Y80540D01*
X48821Y81582D01*
X48281Y82517D01*
X47517Y83281D01*
X46582Y83821D01*
X45540Y84100D01*
D02*
G37*
G36*
X35540D02*
X34460D01*
X33417Y83821D01*
X32482Y83281D01*
X31719Y82517D01*
X31179Y81582D01*
X30900Y80540D01*
Y79460D01*
X31179Y78417D01*
X31719Y77482D01*
X32482Y76719D01*
X33417Y76179D01*
X34460Y75900D01*
X35540D01*
X36582Y76179D01*
X37517Y76719D01*
X38281Y77482D01*
X38821Y78417D01*
X39100Y79460D01*
Y80540D01*
X38821Y81582D01*
X38281Y82517D01*
X37517Y83281D01*
X36582Y83821D01*
X35540Y84100D01*
D02*
G37*
G36*
X29100D02*
X20900D01*
Y75900D01*
X29100D01*
Y84100D01*
D02*
G37*
G36*
X119500Y79500D02*
X115500D01*
Y75500D01*
X115592D01*
X116737Y75807D01*
X117763Y76399D01*
X118601Y77237D01*
X119193Y78263D01*
X119500Y79408D01*
Y79500D01*
D02*
G37*
G36*
X114500D02*
X110500D01*
Y79408D01*
X110807Y78263D01*
X111399Y77237D01*
X112237Y76399D01*
X113263Y75807D01*
X114408Y75500D01*
X114500D01*
Y79500D01*
D02*
G37*
G36*
X331708Y69900D02*
X330892D01*
X330103Y69689D01*
X329397Y69281D01*
X329057Y68941D01*
X293343D01*
X293003Y69281D01*
X292297Y69689D01*
X291508Y69900D01*
X290692D01*
X289903Y69689D01*
X289197Y69281D01*
X288619Y68703D01*
X288211Y67997D01*
X288000Y67208D01*
Y66392D01*
X288211Y65603D01*
X288619Y64897D01*
X289197Y64319D01*
X289903Y63911D01*
X290692Y63700D01*
X291508D01*
X292297Y63911D01*
X293003Y64319D01*
X293343Y64659D01*
X329057D01*
X329397Y64319D01*
X330103Y63911D01*
X330892Y63700D01*
X331708D01*
X332497Y63911D01*
X333203Y64319D01*
X333781Y64897D01*
X334189Y65603D01*
X334400Y66392D01*
Y67208D01*
X334189Y67997D01*
X333781Y68703D01*
X333203Y69281D01*
X332497Y69689D01*
X331708Y69900D01*
D02*
G37*
G36*
X389208Y106300D02*
X388392D01*
X387603Y106089D01*
X386897Y105681D01*
X386319Y105103D01*
X385911Y104397D01*
X385700Y103608D01*
Y102792D01*
X385911Y102003D01*
X386319Y101297D01*
X386659Y100957D01*
Y58857D01*
X386822Y58038D01*
X387286Y57343D01*
X389043Y55586D01*
X389738Y55122D01*
X390557Y54959D01*
X426557D01*
X426897Y54619D01*
X427603Y54211D01*
X428392Y54000D01*
X429208D01*
X429997Y54211D01*
X430703Y54619D01*
X431281Y55197D01*
X431689Y55903D01*
X431900Y56692D01*
Y57508D01*
X431689Y58297D01*
X431281Y59003D01*
X430703Y59581D01*
X429997Y59989D01*
X429208Y60200D01*
X428392D01*
X427603Y59989D01*
X426897Y59581D01*
X426557Y59241D01*
X391444D01*
X390941Y59744D01*
Y100957D01*
X391281Y101297D01*
X391689Y102003D01*
X391900Y102792D01*
Y103608D01*
X391689Y104397D01*
X391281Y105103D01*
X390703Y105681D01*
X389997Y106089D01*
X389208Y106300D01*
D02*
G37*
G36*
X379208Y131100D02*
X378392D01*
X377603Y130889D01*
X376897Y130481D01*
X376319Y129903D01*
X375911Y129197D01*
X375700Y128408D01*
Y127592D01*
X375911Y126803D01*
X376319Y126097D01*
X376559Y125857D01*
Y59443D01*
X376119Y59003D01*
X375711Y58297D01*
X375500Y57508D01*
Y56692D01*
X375711Y55903D01*
X376119Y55197D01*
X376697Y54619D01*
X377403Y54211D01*
X378192Y54000D01*
X379008D01*
X379797Y54211D01*
X380503Y54619D01*
X381081Y55197D01*
X381489Y55903D01*
X381700Y56692D01*
Y57508D01*
X381489Y58297D01*
X381081Y59003D01*
X380841Y59243D01*
Y125657D01*
X381281Y126097D01*
X381689Y126803D01*
X381900Y127592D01*
Y128408D01*
X381689Y129197D01*
X381281Y129903D01*
X380703Y130481D01*
X379997Y130889D01*
X379208Y131100D01*
D02*
G37*
G36*
X228850Y45950D02*
X221150D01*
Y38250D01*
X228850D01*
Y45950D01*
D02*
G37*
G36*
X215507D02*
X214493D01*
X213514Y45688D01*
X212636Y45181D01*
X211919Y44464D01*
X211412Y43586D01*
X211150Y42607D01*
Y41593D01*
X211412Y40614D01*
X211919Y39736D01*
X212636Y39019D01*
X213514Y38512D01*
X214493Y38250D01*
X215507D01*
X216486Y38512D01*
X217364Y39019D01*
X218081Y39736D01*
X218588Y40614D01*
X218850Y41593D01*
Y42607D01*
X218588Y43586D01*
X218081Y44464D01*
X217364Y45181D01*
X216486Y45688D01*
X215507Y45950D01*
D02*
G37*
G36*
X205507D02*
X204493D01*
X203514Y45688D01*
X202636Y45181D01*
X201919Y44464D01*
X201412Y43586D01*
X201150Y42607D01*
Y41593D01*
X201412Y40614D01*
X201919Y39736D01*
X202636Y39019D01*
X203514Y38512D01*
X204493Y38250D01*
X205507D01*
X206486Y38512D01*
X207364Y39019D01*
X208081Y39736D01*
X208588Y40614D01*
X208850Y41593D01*
Y42607D01*
X208588Y43586D01*
X208081Y44464D01*
X207364Y45181D01*
X206486Y45688D01*
X205507Y45950D01*
D02*
G37*
G36*
X195507D02*
X194493D01*
X193514Y45688D01*
X192636Y45181D01*
X191919Y44464D01*
X191412Y43586D01*
X191150Y42607D01*
Y41593D01*
X191412Y40614D01*
X191919Y39736D01*
X192636Y39019D01*
X193514Y38512D01*
X194493Y38250D01*
X195507D01*
X196486Y38512D01*
X197364Y39019D01*
X198081Y39736D01*
X198588Y40614D01*
X198850Y41593D01*
Y42607D01*
X198588Y43586D01*
X198081Y44464D01*
X197364Y45181D01*
X196486Y45688D01*
X195507Y45950D01*
D02*
G37*
G36*
X185507D02*
X184493D01*
X183514Y45688D01*
X182636Y45181D01*
X181919Y44464D01*
X181412Y43586D01*
X181150Y42607D01*
Y41593D01*
X181412Y40614D01*
X181919Y39736D01*
X182636Y39019D01*
X183514Y38512D01*
X184493Y38250D01*
X185507D01*
X186486Y38512D01*
X187364Y39019D01*
X188081Y39736D01*
X188588Y40614D01*
X188850Y41593D01*
Y42607D01*
X188588Y43586D01*
X188081Y44464D01*
X187364Y45181D01*
X186486Y45688D01*
X185507Y45950D01*
D02*
G37*
G36*
X175507D02*
X174493D01*
X173514Y45688D01*
X172636Y45181D01*
X171919Y44464D01*
X171412Y43586D01*
X171150Y42607D01*
Y41593D01*
X171412Y40614D01*
X171919Y39736D01*
X172636Y39019D01*
X173514Y38512D01*
X174493Y38250D01*
X175507D01*
X176486Y38512D01*
X177364Y39019D01*
X178081Y39736D01*
X178588Y40614D01*
X178850Y41593D01*
Y42607D01*
X178588Y43586D01*
X178081Y44464D01*
X177364Y45181D01*
X176486Y45688D01*
X175507Y45950D01*
D02*
G37*
G36*
X529900Y36000D02*
X524400D01*
Y30500D01*
X529900D01*
Y36000D01*
D02*
G37*
G36*
X523400D02*
X517900D01*
Y30500D01*
X523400D01*
Y36000D01*
D02*
G37*
G36*
X389359Y33450D02*
X389300D01*
Y29700D01*
X393050D01*
Y29759D01*
X392760Y30840D01*
X392201Y31810D01*
X391410Y32601D01*
X390440Y33160D01*
X389359Y33450D01*
D02*
G37*
G36*
X261660D02*
X261600D01*
Y29700D01*
X265350D01*
Y29759D01*
X265060Y30840D01*
X264501Y31810D01*
X263710Y32601D01*
X262740Y33160D01*
X261660Y33450D01*
D02*
G37*
G36*
X469300Y35200D02*
X463800D01*
Y29700D01*
X469300D01*
Y35200D01*
D02*
G37*
G36*
X462800D02*
X457300D01*
Y29700D01*
X462800D01*
Y35200D01*
D02*
G37*
G36*
X388300Y33450D02*
X388241D01*
X387160Y33160D01*
X386190Y32601D01*
X385399Y31810D01*
X384840Y30840D01*
X384550Y29759D01*
Y29700D01*
X388300D01*
Y33450D01*
D02*
G37*
G36*
X260600D02*
X260541D01*
X259460Y33160D01*
X258490Y32601D01*
X257699Y31810D01*
X257140Y30840D01*
X256850Y29759D01*
Y29700D01*
X260600D01*
Y33450D01*
D02*
G37*
G36*
X432650Y33050D02*
X424950D01*
Y25350D01*
X432650D01*
Y33050D01*
D02*
G37*
G36*
X419307D02*
X418293D01*
X417314Y32788D01*
X416436Y32281D01*
X415719Y31564D01*
X415212Y30686D01*
X414950Y29707D01*
Y28693D01*
X415212Y27714D01*
X415719Y26836D01*
X416436Y26119D01*
X417314Y25612D01*
X418293Y25350D01*
X419307D01*
X420286Y25612D01*
X421164Y26119D01*
X421881Y26836D01*
X422388Y27714D01*
X422650Y28693D01*
Y29707D01*
X422388Y30686D01*
X421881Y31564D01*
X421164Y32281D01*
X420286Y32788D01*
X419307Y33050D01*
D02*
G37*
G36*
X409307D02*
X408293D01*
X407314Y32788D01*
X406436Y32281D01*
X405719Y31564D01*
X405212Y30686D01*
X404950Y29707D01*
Y28693D01*
X405212Y27714D01*
X405719Y26836D01*
X406436Y26119D01*
X407314Y25612D01*
X408293Y25350D01*
X409307D01*
X410286Y25612D01*
X411164Y26119D01*
X411881Y26836D01*
X412388Y27714D01*
X412650Y28693D01*
Y29707D01*
X412388Y30686D01*
X411881Y31564D01*
X411164Y32281D01*
X410286Y32788D01*
X409307Y33050D01*
D02*
G37*
G36*
X399307D02*
X398293D01*
X397314Y32788D01*
X396436Y32281D01*
X395719Y31564D01*
X395212Y30686D01*
X394950Y29707D01*
Y28693D01*
X395212Y27714D01*
X395719Y26836D01*
X396436Y26119D01*
X397314Y25612D01*
X398293Y25350D01*
X399307D01*
X400286Y25612D01*
X401164Y26119D01*
X401881Y26836D01*
X402388Y27714D01*
X402650Y28693D01*
Y29707D01*
X402388Y30686D01*
X401881Y31564D01*
X401164Y32281D01*
X400286Y32788D01*
X399307Y33050D01*
D02*
G37*
G36*
X379307D02*
X378293D01*
X377314Y32788D01*
X376436Y32281D01*
X375719Y31564D01*
X375212Y30686D01*
X374950Y29707D01*
Y28693D01*
X375212Y27714D01*
X375719Y26836D01*
X376436Y26119D01*
X377314Y25612D01*
X378293Y25350D01*
X379307D01*
X380286Y25612D01*
X381164Y26119D01*
X381881Y26836D01*
X382388Y27714D01*
X382650Y28693D01*
Y29707D01*
X382388Y30686D01*
X381881Y31564D01*
X381164Y32281D01*
X380286Y32788D01*
X379307Y33050D01*
D02*
G37*
G36*
X304950D02*
X297250D01*
Y25350D01*
X304950D01*
Y33050D01*
D02*
G37*
G36*
X291607D02*
X290593D01*
X289614Y32788D01*
X288736Y32281D01*
X288019Y31564D01*
X287512Y30686D01*
X287250Y29707D01*
Y28693D01*
X287512Y27714D01*
X288019Y26836D01*
X288736Y26119D01*
X289614Y25612D01*
X290593Y25350D01*
X291607D01*
X292586Y25612D01*
X293464Y26119D01*
X294181Y26836D01*
X294688Y27714D01*
X294950Y28693D01*
Y29707D01*
X294688Y30686D01*
X294181Y31564D01*
X293464Y32281D01*
X292586Y32788D01*
X291607Y33050D01*
D02*
G37*
G36*
X281607D02*
X280593D01*
X279614Y32788D01*
X278736Y32281D01*
X278019Y31564D01*
X277512Y30686D01*
X277250Y29707D01*
Y28693D01*
X277512Y27714D01*
X278019Y26836D01*
X278736Y26119D01*
X279614Y25612D01*
X280593Y25350D01*
X281607D01*
X282586Y25612D01*
X283464Y26119D01*
X284181Y26836D01*
X284688Y27714D01*
X284950Y28693D01*
Y29707D01*
X284688Y30686D01*
X284181Y31564D01*
X283464Y32281D01*
X282586Y32788D01*
X281607Y33050D01*
D02*
G37*
G36*
X271607D02*
X270593D01*
X269614Y32788D01*
X268736Y32281D01*
X268019Y31564D01*
X267512Y30686D01*
X267250Y29707D01*
Y28693D01*
X267512Y27714D01*
X268019Y26836D01*
X268736Y26119D01*
X269614Y25612D01*
X270593Y25350D01*
X271607D01*
X272586Y25612D01*
X273464Y26119D01*
X274181Y26836D01*
X274688Y27714D01*
X274950Y28693D01*
Y29707D01*
X274688Y30686D01*
X274181Y31564D01*
X273464Y32281D01*
X272586Y32788D01*
X271607Y33050D01*
D02*
G37*
G36*
X251607D02*
X250593D01*
X249614Y32788D01*
X248736Y32281D01*
X248019Y31564D01*
X247512Y30686D01*
X247250Y29707D01*
Y28693D01*
X247512Y27714D01*
X248019Y26836D01*
X248736Y26119D01*
X249614Y25612D01*
X250593Y25350D01*
X251607D01*
X252586Y25612D01*
X253464Y26119D01*
X254181Y26836D01*
X254688Y27714D01*
X254950Y28693D01*
Y29707D01*
X254688Y30686D01*
X254181Y31564D01*
X253464Y32281D01*
X252586Y32788D01*
X251607Y33050D01*
D02*
G37*
G36*
X393050Y28700D02*
X389300D01*
Y24950D01*
X389359D01*
X390440Y25240D01*
X391410Y25799D01*
X392201Y26590D01*
X392760Y27560D01*
X393050Y28640D01*
Y28700D01*
D02*
G37*
G36*
X388300D02*
X384550D01*
Y28640D01*
X384840Y27560D01*
X385399Y26590D01*
X386190Y25799D01*
X387160Y25240D01*
X388241Y24950D01*
X388300D01*
Y28700D01*
D02*
G37*
G36*
X265350D02*
X261600D01*
Y24950D01*
X261660D01*
X262740Y25240D01*
X263710Y25799D01*
X264501Y26590D01*
X265060Y27560D01*
X265350Y28640D01*
Y28700D01*
D02*
G37*
G36*
X260600D02*
X256850D01*
Y28640D01*
X257140Y27560D01*
X257699Y26590D01*
X258490Y25799D01*
X259460Y25240D01*
X260541Y24950D01*
X260600D01*
Y28700D01*
D02*
G37*
G36*
X544637Y35600D02*
X543163D01*
X541739Y35218D01*
X540461Y34481D01*
X539419Y33439D01*
X538682Y32162D01*
X538300Y30737D01*
Y29263D01*
X538682Y27839D01*
X539419Y26561D01*
X540461Y25519D01*
X541739Y24782D01*
X543163Y24400D01*
X544637D01*
X546062Y24782D01*
X547338Y25519D01*
X548381Y26561D01*
X549118Y27839D01*
X549500Y29263D01*
Y30737D01*
X549118Y32162D01*
X548381Y33439D01*
X547338Y34481D01*
X546062Y35218D01*
X544637Y35600D01*
D02*
G37*
G36*
X529900Y29500D02*
X524400D01*
Y24000D01*
X529900D01*
Y29500D01*
D02*
G37*
G36*
X523400D02*
X517900D01*
Y24000D01*
X523400D01*
Y29500D01*
D02*
G37*
G36*
X484037Y34800D02*
X482563D01*
X481139Y34418D01*
X479861Y33681D01*
X478819Y32638D01*
X478082Y31361D01*
X477700Y29937D01*
Y28463D01*
X478082Y27038D01*
X478819Y25762D01*
X479861Y24719D01*
X481139Y23982D01*
X482563Y23600D01*
X484037D01*
X485462Y23982D01*
X486738Y24719D01*
X487781Y25762D01*
X488518Y27038D01*
X488900Y28463D01*
Y29937D01*
X488518Y31361D01*
X487781Y32638D01*
X486738Y33681D01*
X485462Y34418D01*
X484037Y34800D01*
D02*
G37*
G36*
X469300Y28700D02*
X463800D01*
Y23200D01*
X469300D01*
Y28700D01*
D02*
G37*
G36*
X462800D02*
X457300D01*
Y23200D01*
X462800D01*
Y28700D01*
D02*
G37*
G36*
X221008Y166100D02*
X220192D01*
X219403Y165889D01*
X218697Y165481D01*
X218119Y164903D01*
X217711Y164197D01*
X217500Y163408D01*
Y162592D01*
X217711Y161803D01*
X218119Y161097D01*
X218459Y160757D01*
Y65244D01*
X217256Y64041D01*
X157747D01*
X156927Y63878D01*
X156233Y63414D01*
X155769Y62719D01*
X155605Y61900D01*
Y23457D01*
X155769Y22638D01*
X156233Y21943D01*
X157990Y20186D01*
X158685Y19722D01*
X159504Y19559D01*
X172357D01*
X172697Y19219D01*
X173403Y18811D01*
X174192Y18600D01*
X175008D01*
X175797Y18811D01*
X176503Y19219D01*
X177081Y19797D01*
X177489Y20503D01*
X177700Y21292D01*
Y22108D01*
X177489Y22897D01*
X177081Y23603D01*
X176503Y24181D01*
X175797Y24589D01*
X175008Y24800D01*
X174192D01*
X173403Y24589D01*
X172697Y24181D01*
X172357Y23841D01*
X160391D01*
X159888Y24344D01*
Y59759D01*
X218143D01*
X218962Y59922D01*
X219657Y60386D01*
X222114Y62843D01*
X222578Y63538D01*
X222741Y64357D01*
Y160757D01*
X223081Y161097D01*
X223489Y161803D01*
X223700Y162592D01*
Y163408D01*
X223489Y164197D01*
X223081Y164903D01*
X222503Y165481D01*
X221797Y165889D01*
X221008Y166100D01*
D02*
G37*
G36*
X575000Y41150D02*
X572474Y40951D01*
X570009Y40359D01*
X567668Y39390D01*
X565507Y38065D01*
X563580Y36420D01*
X561935Y34493D01*
X560610Y32332D01*
X559641Y29991D01*
X559049Y27526D01*
X558850Y25000D01*
X559049Y22474D01*
X559641Y20009D01*
X560610Y17668D01*
X561935Y15507D01*
X563580Y13580D01*
X565507Y11935D01*
X567668Y10610D01*
X570009Y9641D01*
X572474Y9049D01*
X575000Y8850D01*
X577526Y9049D01*
X579991Y9641D01*
X582332Y10610D01*
X584493Y11935D01*
X586420Y13580D01*
X588065Y15507D01*
X589390Y17668D01*
X590359Y20009D01*
X590951Y22474D01*
X591150Y25000D01*
X590951Y27526D01*
X590359Y29991D01*
X589390Y32332D01*
X588065Y34493D01*
X586420Y36420D01*
X584493Y38065D01*
X582332Y39390D01*
X579991Y40359D01*
X577526Y40951D01*
X575000Y41150D01*
D02*
G37*
G36*
X25000D02*
X22474Y40951D01*
X20009Y40359D01*
X17668Y39390D01*
X15507Y38065D01*
X13580Y36420D01*
X11935Y34493D01*
X10610Y32332D01*
X9641Y29991D01*
X9049Y27526D01*
X8850Y25000D01*
X9049Y22474D01*
X9641Y20009D01*
X10610Y17668D01*
X11935Y15507D01*
X13580Y13580D01*
X15507Y11935D01*
X17668Y10610D01*
X20009Y9641D01*
X22474Y9049D01*
X25000Y8850D01*
X27526Y9049D01*
X29991Y9641D01*
X32332Y10610D01*
X34493Y11935D01*
X36420Y13580D01*
X38065Y15507D01*
X39390Y17668D01*
X40359Y20009D01*
X40951Y22474D01*
X41150Y25000D01*
X40951Y27526D01*
X40359Y29991D01*
X39390Y32332D01*
X38065Y34493D01*
X36420Y36420D01*
X34493Y38065D01*
X32332Y39390D01*
X29991Y40359D01*
X27526Y40951D01*
X25000Y41150D01*
D02*
G37*
%LPD*%
G36*
X577173Y388722D02*
X579293Y388213D01*
X581307Y387379D01*
X583166Y386240D01*
X584824Y384824D01*
X586239Y383166D01*
X587379Y381307D01*
X588213Y379293D01*
X588722Y377173D01*
X588893Y375000D01*
X588722Y372827D01*
X588213Y370707D01*
X587379Y368693D01*
X586239Y366834D01*
X584824Y365176D01*
X583166Y363760D01*
X581307Y362621D01*
X579293Y361787D01*
X577173Y361278D01*
X575000Y361107D01*
X572827Y361278D01*
X570707Y361787D01*
X568693Y362621D01*
X566834Y363760D01*
X565176Y365176D01*
X563761Y366834D01*
X562621Y368693D01*
X561787Y370707D01*
X561278Y372827D01*
X561107Y375000D01*
X561278Y377173D01*
X561787Y379293D01*
X562621Y381307D01*
X563761Y383166D01*
X565176Y384824D01*
X566834Y386240D01*
X568693Y387379D01*
X570707Y388213D01*
X572827Y388722D01*
X575000Y388893D01*
X577173Y388722D01*
D02*
G37*
%LPC*%
G36*
X575946Y384600D02*
X574054D01*
X572200Y384231D01*
X570453Y383507D01*
X568880Y382457D01*
X567543Y381120D01*
X566493Y379547D01*
X565769Y377800D01*
X565400Y375945D01*
Y374055D01*
X565769Y372200D01*
X566493Y370453D01*
X567543Y368880D01*
X568880Y367543D01*
X570453Y366493D01*
X572200Y365769D01*
X574054Y365400D01*
X575946D01*
X577800Y365769D01*
X579547Y366493D01*
X581120Y367543D01*
X582457Y368880D01*
X583507Y370453D01*
X584231Y372200D01*
X584600Y374055D01*
Y375945D01*
X584231Y377800D01*
X583507Y379547D01*
X582457Y381120D01*
X581120Y382457D01*
X579547Y383507D01*
X577800Y384231D01*
X575946Y384600D01*
D02*
G37*
%LPD*%
G36*
X27173Y388722D02*
X29293Y388213D01*
X31307Y387379D01*
X33166Y386240D01*
X34824Y384824D01*
X36239Y383166D01*
X37379Y381307D01*
X38213Y379293D01*
X38722Y377173D01*
X38893Y375000D01*
X38722Y372827D01*
X38213Y370707D01*
X37379Y368693D01*
X36239Y366834D01*
X34824Y365176D01*
X33166Y363760D01*
X31307Y362621D01*
X29293Y361787D01*
X27173Y361278D01*
X25000Y361107D01*
X22827Y361278D01*
X20707Y361787D01*
X18693Y362621D01*
X16834Y363760D01*
X15176Y365176D01*
X13760Y366834D01*
X12621Y368693D01*
X11787Y370707D01*
X11278Y372827D01*
X11107Y375000D01*
X11278Y377173D01*
X11787Y379293D01*
X12621Y381307D01*
X13760Y383166D01*
X15176Y384824D01*
X16834Y386240D01*
X18693Y387379D01*
X20707Y388213D01*
X22827Y388722D01*
X25000Y388893D01*
X27173Y388722D01*
D02*
G37*
%LPC*%
G36*
X25945Y384600D02*
X24055D01*
X22200Y384231D01*
X20453Y383507D01*
X18880Y382457D01*
X17543Y381120D01*
X16493Y379547D01*
X15769Y377800D01*
X15400Y375945D01*
Y374055D01*
X15769Y372200D01*
X16493Y370453D01*
X17543Y368880D01*
X18880Y367543D01*
X20453Y366493D01*
X22200Y365769D01*
X24055Y365400D01*
X25945D01*
X27800Y365769D01*
X29547Y366493D01*
X31120Y367543D01*
X32457Y368880D01*
X33507Y370453D01*
X34231Y372200D01*
X34600Y374055D01*
Y375945D01*
X34231Y377800D01*
X33507Y379547D01*
X32457Y381120D01*
X31120Y382457D01*
X29547Y383507D01*
X27800Y384231D01*
X25945Y384600D01*
D02*
G37*
%LPD*%
G36*
X457511Y224241D02*
X456943Y223241D01*
X358566D01*
X358265Y223579D01*
X358713Y224578D01*
X457309D01*
X457511Y224241D01*
D02*
G37*
G36*
X577173Y38722D02*
X579293Y38213D01*
X581307Y37379D01*
X583166Y36239D01*
X584824Y34824D01*
X586239Y33166D01*
X587379Y31307D01*
X588213Y29293D01*
X588722Y27173D01*
X588893Y25000D01*
X588722Y22827D01*
X588213Y20707D01*
X587379Y18693D01*
X586239Y16834D01*
X584824Y15176D01*
X583166Y13760D01*
X581307Y12621D01*
X579293Y11787D01*
X577173Y11278D01*
X575000Y11107D01*
X572827Y11278D01*
X570707Y11787D01*
X568693Y12621D01*
X566834Y13760D01*
X565176Y15176D01*
X563761Y16834D01*
X562621Y18693D01*
X561787Y20707D01*
X561278Y22827D01*
X561107Y25000D01*
X561278Y27173D01*
X561787Y29293D01*
X562621Y31307D01*
X563761Y33166D01*
X565176Y34824D01*
X566834Y36239D01*
X568693Y37379D01*
X570707Y38213D01*
X572827Y38722D01*
X575000Y38893D01*
X577173Y38722D01*
D02*
G37*
%LPC*%
G36*
X575946Y34600D02*
X574054D01*
X572200Y34231D01*
X570453Y33507D01*
X568880Y32457D01*
X567543Y31120D01*
X566493Y29547D01*
X565769Y27800D01*
X565400Y25945D01*
Y24055D01*
X565769Y22200D01*
X566493Y20453D01*
X567543Y18880D01*
X568880Y17543D01*
X570453Y16493D01*
X572200Y15769D01*
X574054Y15400D01*
X575946D01*
X577800Y15769D01*
X579547Y16493D01*
X581120Y17543D01*
X582457Y18880D01*
X583507Y20453D01*
X584231Y22200D01*
X584600Y24055D01*
Y25945D01*
X584231Y27800D01*
X583507Y29547D01*
X582457Y31120D01*
X581120Y32457D01*
X579547Y33507D01*
X577800Y34231D01*
X575946Y34600D01*
D02*
G37*
%LPD*%
G36*
X27173Y38722D02*
X29293Y38213D01*
X31307Y37379D01*
X33166Y36239D01*
X34824Y34824D01*
X36239Y33166D01*
X37379Y31307D01*
X38213Y29293D01*
X38722Y27173D01*
X38893Y25000D01*
X38722Y22827D01*
X38213Y20707D01*
X37379Y18693D01*
X36239Y16834D01*
X34824Y15176D01*
X33166Y13760D01*
X31307Y12621D01*
X29293Y11787D01*
X27173Y11278D01*
X25000Y11107D01*
X22827Y11278D01*
X20707Y11787D01*
X18693Y12621D01*
X16834Y13760D01*
X15176Y15176D01*
X13760Y16834D01*
X12621Y18693D01*
X11787Y20707D01*
X11278Y22827D01*
X11107Y25000D01*
X11278Y27173D01*
X11787Y29293D01*
X12621Y31307D01*
X13760Y33166D01*
X15176Y34824D01*
X16834Y36239D01*
X18693Y37379D01*
X20707Y38213D01*
X22827Y38722D01*
X25000Y38893D01*
X27173Y38722D01*
D02*
G37*
%LPC*%
G36*
X25945Y34600D02*
X24055D01*
X22200Y34231D01*
X20453Y33507D01*
X18880Y32457D01*
X17543Y31120D01*
X16493Y29547D01*
X15769Y27800D01*
X15400Y25945D01*
Y24055D01*
X15769Y22200D01*
X16493Y20453D01*
X17543Y18880D01*
X18880Y17543D01*
X20453Y16493D01*
X22200Y15769D01*
X24055Y15400D01*
X25945D01*
X27800Y15769D01*
X29547Y16493D01*
X31120Y17543D01*
X32457Y18880D01*
X33507Y20453D01*
X34231Y22200D01*
X34600Y24055D01*
Y25945D01*
X34231Y27800D01*
X33507Y29547D01*
X32457Y31120D01*
X31120Y32457D01*
X29547Y33507D01*
X27800Y34231D01*
X25945Y34600D01*
D02*
G37*
%LPD*%
D14*
X68469Y384100D02*
G03*
X67764Y383809I0J-1000D01*
G01*
X398100Y351900D02*
X398500Y351500D01*
X243600Y352300D02*
X244000Y351900D01*
X398100D01*
X245300Y379000D02*
X245918Y379618D01*
X314882D01*
X315500Y379000D01*
X424614Y384100D02*
X425200Y383514D01*
X67764Y383809D02*
Y383809D01*
X68469Y384100D02*
X424614D01*
X34541Y332125D02*
X35000Y330000D01*
X67764Y346664D02*
Y383809D01*
X315500Y365366D02*
X316082Y364784D01*
X315500Y365366D02*
Y379000D01*
X115686Y255800D02*
X233700D01*
X404700Y260600D02*
X405200Y261100D01*
X126100Y260600D02*
X404700D01*
X125000Y261700D02*
X126100Y260600D01*
X115000Y256486D02*
X115686Y255800D01*
X115000Y256486D02*
Y320000D01*
X111007Y251600D02*
X200214D01*
X110807Y251400D02*
X111007Y251600D01*
X200214D02*
X200800Y251014D01*
X118286Y8314D02*
X342514D01*
X343100Y8900D02*
Y163114D01*
X342514Y8314D02*
X343100Y8900D01*
X343686Y163700D02*
X430400D01*
X343100Y163114D02*
X343686Y163700D01*
X424607Y170607D02*
X521800D01*
X203500Y225700D02*
X461000D01*
X166086Y212600D02*
X439100D01*
X17386Y116000D02*
X147720D01*
X149600Y117880D02*
Y239100D01*
X147720Y116000D02*
X149600Y117880D01*
X165500Y90500D02*
Y212014D01*
X166086Y212600D01*
X185000Y90000D02*
Y128114D01*
X165000Y90000D02*
X165500Y90500D01*
X205000Y71986D02*
Y80000D01*
X205586Y71400D02*
X212600D01*
X205000Y71986D02*
X205586Y71400D01*
X213900Y72700D02*
Y136614D01*
X181700Y137200D02*
X213314D01*
X213900Y136614D01*
X212600Y71400D02*
X213900Y72700D01*
X180900Y138000D02*
X181700Y137200D01*
X180900Y138000D02*
Y188200D01*
X181800Y189100D01*
X338400D01*
X237300Y291686D02*
X237886Y291100D01*
X392600D01*
X175686Y128700D02*
X184414D01*
X185000Y128114D01*
X175100Y129286D02*
X175686Y128700D01*
X175100Y129286D02*
Y203014D01*
X175686Y203600D01*
X333400D01*
X232686Y169800D02*
X328200D01*
X232100Y76200D02*
Y169214D01*
X232686Y169800D01*
X149000Y239700D02*
X149600Y239100D01*
X95150Y131550D02*
Y319850D01*
X95000Y320000D02*
X95150Y319850D01*
Y131550D02*
X95300Y131400D01*
X236714Y371600D02*
X237300Y371014D01*
X145300Y371600D02*
X236714D01*
X237300Y291686D02*
Y371014D01*
X185586Y264800D02*
X535414D01*
X185000Y265386D02*
Y320000D01*
X536000Y265386D02*
Y355348D01*
X535414Y264800D02*
X536000Y265386D01*
X185000D02*
X185586Y264800D01*
X200800Y228400D02*
Y251014D01*
Y228400D02*
X203500Y225700D01*
X548300Y149800D02*
X548600Y149500D01*
X548300Y149800D02*
Y175900D01*
X544650Y176700D02*
X547500D01*
X548300Y175900D01*
X10200Y50186D02*
X10786Y49600D01*
X10200Y50186D02*
Y342300D01*
X13400Y345500D01*
X10786Y49600D02*
X116014D01*
X116600Y10000D02*
Y49014D01*
X116014Y49600D02*
X116600Y49014D01*
X13400Y345500D02*
X24414D01*
X25000Y344914D01*
Y330000D02*
Y344914D01*
X16800Y63286D02*
Y115414D01*
X17386Y116000D01*
X116600Y10000D02*
X118286Y8314D01*
X8400Y44300D02*
X104600D01*
X105000Y44700D02*
X105300D01*
X84550Y319550D02*
X85000Y320000D01*
X83700Y187300D02*
X84050Y187650D01*
Y191300D02*
X84550Y191800D01*
Y319550D01*
X84050Y187650D02*
Y191300D01*
X145714Y62700D02*
X146300Y62114D01*
X17386Y62700D02*
X145714D01*
X146300Y12900D02*
Y62114D01*
X16800Y63286D02*
X17386Y62700D01*
X104950Y165550D02*
Y319950D01*
X104900Y165500D02*
X104950Y165550D01*
Y319950D02*
X105000Y320000D01*
X104600Y44300D02*
X105000Y44700D01*
X6000Y46700D02*
X8400Y44300D01*
X6000Y46700D02*
Y354628D01*
X6586Y355214D01*
X56214D02*
X56800Y355800D01*
X6586Y355214D02*
X56214D01*
X56800Y355800D02*
Y389200D01*
X462514Y394886D02*
X463100Y394300D01*
X62486Y394886D02*
X462514D01*
X56800Y389200D02*
X62486Y394886D01*
X463100Y364300D02*
Y394300D01*
X35000Y344914D02*
X35586Y345500D01*
X66600D01*
X35000Y330000D02*
Y344914D01*
X66600Y345500D02*
X67764Y346664D01*
X550088Y318461D02*
Y393400D01*
X549188Y394300D02*
X550088Y393400D01*
X489200Y394300D02*
X549188D01*
X144400Y330600D02*
X145000Y330000D01*
X144400Y330600D02*
Y370700D01*
X145300Y371600D01*
X125000Y261700D02*
Y320000D01*
D59*
X356100Y220900D02*
X356300Y221100D01*
X476843D01*
X355900D02*
X356100Y220900D01*
X161261Y221100D02*
X355900D01*
X291100Y66800D02*
X331300D01*
X251250Y103150D02*
X305650D01*
X305700Y103200D01*
X251200Y103100D02*
X251250Y103150D01*
X390557Y57100D02*
X428800D01*
X388800Y58857D02*
Y103200D01*
Y58857D02*
X390557Y57100D01*
X479300Y200400D02*
Y218643D01*
X476843Y221100D02*
X479300Y218643D01*
X94196Y100046D02*
X95000Y99243D01*
X93243Y101000D02*
X94196Y100046D01*
X159504Y101804D02*
Y219343D01*
X161261Y221100D01*
X94196Y100046D02*
X157747D01*
X159504Y101804D01*
X74000Y96243D02*
X74235Y96008D01*
X75757Y101000D02*
X93243D01*
X74235Y90765D02*
X75000Y90000D01*
X74235Y90765D02*
Y96008D01*
X74000Y96243D02*
Y99243D01*
X75757Y101000D01*
X95000Y90000D02*
Y99243D01*
X187000Y143800D02*
Y172900D01*
X190400Y176300D02*
X355900D01*
X187000Y172900D02*
X190400Y176300D01*
X220600Y64357D02*
Y163000D01*
X218143Y61900D02*
X220600Y64357D01*
X157747Y61900D02*
X218143D01*
X186800Y143600D02*
X187000Y143800D01*
X157747Y23457D02*
Y61900D01*
X159504Y21700D02*
X174600D01*
X157747Y23457D02*
X159504Y21700D01*
X378700Y127900D02*
X378800Y128000D01*
X378700Y57200D02*
Y127900D01*
X378600Y57100D02*
X378700Y57200D01*
D60*
X583000Y327123D02*
D03*
Y309800D02*
D03*
D61*
X428800Y29200D02*
D03*
X301100D02*
D03*
X356082Y364784D02*
D03*
X225000Y42100D02*
D03*
D62*
X418800Y29200D02*
D03*
X408800D02*
D03*
X398800D02*
D03*
X388800D02*
D03*
X378800D02*
D03*
X577700Y203105D02*
D03*
Y213105D02*
D03*
Y223105D02*
D03*
X251100Y29200D02*
D03*
X261100D02*
D03*
X271100D02*
D03*
X281100D02*
D03*
X291100D02*
D03*
X286082Y364784D02*
D03*
X296082D02*
D03*
X306082D02*
D03*
X316082D02*
D03*
X326082D02*
D03*
X336082D02*
D03*
X346082D02*
D03*
X175000Y42100D02*
D03*
X185000D02*
D03*
X195000D02*
D03*
X205000D02*
D03*
X215000D02*
D03*
D63*
X25000Y80000D02*
D03*
Y320000D02*
D03*
D64*
Y90000D02*
D03*
X35000Y80000D02*
D03*
Y90000D02*
D03*
X45000Y80000D02*
D03*
Y90000D02*
D03*
X55000Y80000D02*
D03*
Y90000D02*
D03*
X65000Y80000D02*
D03*
Y90000D02*
D03*
X75000Y80000D02*
D03*
Y90000D02*
D03*
X85000Y80000D02*
D03*
Y90000D02*
D03*
X95000Y80000D02*
D03*
Y90000D02*
D03*
X105000Y80000D02*
D03*
Y90000D02*
D03*
X115000Y80000D02*
D03*
Y90000D02*
D03*
X125000Y80000D02*
D03*
Y90000D02*
D03*
X135000Y80000D02*
D03*
Y90000D02*
D03*
X145000Y80000D02*
D03*
Y90000D02*
D03*
X155000Y80000D02*
D03*
Y90000D02*
D03*
X165000Y80000D02*
D03*
Y90000D02*
D03*
X175000Y80000D02*
D03*
Y90000D02*
D03*
X185000Y80000D02*
D03*
Y90000D02*
D03*
X195000Y80000D02*
D03*
Y90000D02*
D03*
X205000Y80000D02*
D03*
Y90000D02*
D03*
X25000Y330000D02*
D03*
X35000Y320000D02*
D03*
Y330000D02*
D03*
X45000Y320000D02*
D03*
Y330000D02*
D03*
X55000Y320000D02*
D03*
Y330000D02*
D03*
X65000Y320000D02*
D03*
Y330000D02*
D03*
X75000Y320000D02*
D03*
Y330000D02*
D03*
X85000Y320000D02*
D03*
Y330000D02*
D03*
X95000Y320000D02*
D03*
Y330000D02*
D03*
X105000Y320000D02*
D03*
Y330000D02*
D03*
X115000Y320000D02*
D03*
Y330000D02*
D03*
X125000Y320000D02*
D03*
Y330000D02*
D03*
X135000Y320000D02*
D03*
Y330000D02*
D03*
X145000Y320000D02*
D03*
Y330000D02*
D03*
X155000Y320000D02*
D03*
Y330000D02*
D03*
X165000Y320000D02*
D03*
Y330000D02*
D03*
X175000Y320000D02*
D03*
Y330000D02*
D03*
X185000Y320000D02*
D03*
Y330000D02*
D03*
X195000Y320000D02*
D03*
Y330000D02*
D03*
X205000Y320000D02*
D03*
Y330000D02*
D03*
D65*
X523900Y30000D02*
D03*
X463300Y29200D02*
D03*
D66*
X543900Y30000D02*
D03*
X483300Y29200D02*
D03*
D67*
X577700Y193105D02*
D03*
D68*
X267882Y367884D02*
D03*
X373000D02*
D03*
Y241900D02*
D03*
X267882D02*
D03*
D69*
X243600Y352300D02*
D03*
X245300Y379000D02*
D03*
X233700Y255800D02*
D03*
X110807Y251400D02*
D03*
X356100Y220900D02*
D03*
X398500Y351500D02*
D03*
X291100Y66800D02*
D03*
X331300D02*
D03*
X305700Y103200D02*
D03*
X428800Y57100D02*
D03*
X521800Y170607D02*
D03*
X424600Y170600D02*
D03*
X479300Y200400D02*
D03*
X461000Y225700D02*
D03*
X355900Y176300D02*
D03*
X338400Y189100D02*
D03*
X333400Y203600D02*
D03*
X232100Y76200D02*
D03*
X328200Y169800D02*
D03*
X251200Y103100D02*
D03*
X220600Y163000D02*
D03*
X149000Y239700D02*
D03*
X186800Y143600D02*
D03*
X95300Y131400D02*
D03*
X174600Y21700D02*
D03*
X392600Y291100D02*
D03*
X405200Y261100D02*
D03*
X548600Y149500D02*
D03*
X544650Y176700D02*
D03*
X430400Y163700D02*
D03*
X388800Y103200D02*
D03*
X104900Y165500D02*
D03*
X83700Y187300D02*
D03*
X378800Y128000D02*
D03*
X439100Y212600D02*
D03*
X424614Y384100D02*
D03*
X536000Y355348D02*
D03*
X105000Y44700D02*
D03*
X463100Y364300D02*
D03*
X550088Y318461D02*
D03*
X489200Y394300D02*
D03*
X146300Y12900D02*
D03*
X378600Y57100D02*
D03*
D70*
X25000Y375000D02*
D03*
X575000D02*
D03*
Y25000D02*
D03*
X25000D02*
D03*
M02*
