G04*
G04 #@! TF.GenerationSoftware,Altium Limited,Altium Designer,24.8.2 (39)*
G04*
G04 Layer_Color=65535*
%FSLAX25Y25*%
%MOIN*%
G70*
G04*
G04 #@! TF.SameCoordinates,32E85319-11A5-466C-997F-65B2DE774383*
G04*
G04*
G04 #@! TF.FilePolarity,Positive*
G04*
G01*
G75*
%ADD10C,0.00984*%
%ADD11C,0.02362*%
%ADD12C,0.01968*%
%ADD13C,0.00787*%
%ADD14C,0.01000*%
%ADD15C,0.00800*%
D10*
X551404Y101120D02*
G03*
X551404Y101120I-492J0D01*
G01*
X505725Y189100D02*
G03*
X505725Y189100I-492J0D01*
G01*
X461772Y94612D02*
G03*
X461772Y94612I-492J0D01*
G01*
X518139Y373852D02*
G03*
X518139Y373852I-492J0D01*
G01*
X430802Y311300D02*
G03*
X430802Y311300I-492J0D01*
G01*
X321679Y141446D02*
G03*
X321679Y141446I-492J0D01*
G01*
D11*
X511729Y197761D02*
G03*
X511729Y197761I-1181J0D01*
G01*
X332407Y137253D02*
G03*
X332407Y137253I-1181J0D01*
G01*
D12*
X606327Y305666D02*
Y331257D01*
X565972Y305666D02*
X606327D01*
X565972D02*
Y331257D01*
X606327D01*
D13*
X373800Y22200D02*
X433800D01*
X373800Y41700D02*
X433800D01*
Y17000D02*
Y41700D01*
X373800Y17000D02*
X433800D01*
X373800D02*
Y41700D01*
X210600Y75000D02*
Y95000D01*
X20000Y75000D02*
Y95000D01*
X210600D01*
X20000Y75000D02*
X210600D01*
Y315000D02*
Y335000D01*
X20000Y315000D02*
Y335000D01*
X210600D01*
X20000Y315000D02*
X210600D01*
X539495Y80450D02*
X540479D01*
X539495Y98561D02*
X540479D01*
X550321Y80450D02*
X551305D01*
X550321Y98561D02*
X551305D01*
X539495Y80450D02*
Y98561D01*
X551305Y80450D02*
Y98561D01*
X506611Y193824D02*
X532989D01*
X506611Y208785D02*
X532989D01*
X506611Y193824D02*
Y208785D01*
X532989Y193824D02*
Y208785D01*
X565400Y228105D02*
X590100D01*
Y188105D02*
Y228105D01*
X565400Y188105D02*
Y228105D01*
Y188105D02*
X590100D01*
X570700D02*
Y228005D01*
X551535Y243161D02*
X552323D01*
X551535Y238239D02*
X552323D01*
X552039Y199906D02*
Y200694D01*
X556961Y199906D02*
Y200694D01*
X481950Y83195D02*
Y84179D01*
X463839Y83195D02*
Y84179D01*
X481950Y94021D02*
Y95006D01*
X463839Y94021D02*
Y95006D01*
Y83195D02*
X481950D01*
X463839Y95006D02*
X481950D01*
X477115Y368537D02*
X516485D01*
X477115Y360663D02*
X516485D01*
Y368537D01*
X477115Y360663D02*
Y368537D01*
X437199Y317009D02*
Y320552D01*
Y302048D02*
Y305591D01*
X487199Y302048D02*
Y305591D01*
Y317009D02*
Y320552D01*
X437199Y302048D02*
X487199D01*
X437199Y320552D02*
X487199D01*
X246100Y17000D02*
Y41700D01*
Y17000D02*
X306100D01*
Y41700D01*
X246100D02*
X306100D01*
X246100Y22200D02*
X306100D01*
X327289Y90009D02*
X350911D01*
X327289Y141191D02*
X350911D01*
Y90009D02*
Y141191D01*
X327289Y90009D02*
Y141191D01*
X169100Y37100D02*
Y47100D01*
Y37100D02*
X222500D01*
X230000D01*
Y47100D01*
X169100D02*
X230000D01*
D14*
X513900Y12300D02*
Y47700D01*
X553900D01*
Y12300D02*
Y47700D01*
X513900Y12300D02*
X553900D01*
X518967Y119463D02*
X520863Y117567D01*
X518967Y136537D02*
X520863Y138433D01*
X539833Y133000D02*
Y138433D01*
X520863D02*
X539833D01*
X520863Y117567D02*
X539833D01*
Y123335D01*
X518967Y119463D02*
Y123265D01*
Y132665D02*
Y136537D01*
X527337Y322433D02*
X529233Y320537D01*
X527337Y301567D02*
X529233Y303463D01*
X508367Y301567D02*
Y307000D01*
Y301567D02*
X527337D01*
X508367Y322433D02*
X527337D01*
X508367Y316665D02*
Y322433D01*
X529233Y316735D02*
Y320537D01*
Y303463D02*
Y307335D01*
X453300Y11500D02*
Y46900D01*
X493300D01*
Y11500D02*
Y46900D01*
X453300Y11500D02*
X493300D01*
X443737Y103767D02*
X445633Y105663D01*
X424767D02*
X426663Y103767D01*
X424767Y124633D02*
X430200D01*
X424767Y105663D02*
Y124633D01*
X445633Y105663D02*
Y124633D01*
X439865D02*
X445633D01*
X439935Y103767D02*
X443737D01*
X426663D02*
X430535D01*
X383482Y231084D02*
Y376684D01*
X258682D02*
X383482D01*
X258682Y231084D02*
Y376684D01*
Y231084D02*
X383482D01*
X494132Y154857D02*
X493132Y155856D01*
X491133D01*
X490133Y154857D01*
Y150858D01*
X491133Y149858D01*
X493132D01*
X494132Y150858D01*
X496131Y149858D02*
X498131D01*
X497131D01*
Y155856D01*
X496131Y154857D01*
X505128Y149858D02*
X501130D01*
X505128Y153857D01*
Y154857D01*
X504129Y155856D01*
X502129D01*
X501130Y154857D01*
X430300Y329998D02*
Y328998D01*
X432299Y326999D01*
X434299Y328998D01*
Y329998D01*
X432299Y326999D02*
Y324000D01*
X436298D02*
X438297D01*
X437298D01*
Y329998D01*
X436298Y328998D01*
X505200Y227698D02*
Y222700D01*
X506200Y221700D01*
X508199D01*
X509199Y222700D01*
Y227698D01*
X511198Y226698D02*
X512198Y227698D01*
X514197D01*
X515197Y226698D01*
Y225699D01*
X514197Y224699D01*
X513197D01*
X514197D01*
X515197Y223699D01*
Y222700D01*
X514197Y221700D01*
X512198D01*
X511198Y222700D01*
X316500Y151498D02*
Y146500D01*
X317500Y145500D01*
X319499D01*
X320499Y146500D01*
Y151498D01*
X326497Y145500D02*
X322498D01*
X326497Y149499D01*
Y150498D01*
X325497Y151498D01*
X323498D01*
X322498Y150498D01*
X477500Y387198D02*
Y382200D01*
X478500Y381200D01*
X480499D01*
X481499Y382200D01*
Y387198D01*
X483498Y381200D02*
X485497D01*
X484498D01*
Y387198D01*
X483498Y386198D01*
X544000Y248700D02*
Y254698D01*
X546999D01*
X547999Y253698D01*
Y251699D01*
X546999Y250699D01*
X544000D01*
X545999D02*
X547999Y248700D01*
X553997D02*
X549998D01*
X553997Y252699D01*
Y253698D01*
X552997Y254698D01*
X550998D01*
X549998Y253698D01*
X550500Y212300D02*
Y218298D01*
X553499D01*
X554499Y217298D01*
Y215299D01*
X553499Y214299D01*
X550500D01*
X552499D02*
X554499Y212300D01*
X556498D02*
X558497D01*
X557498D01*
Y218298D01*
X556498Y217298D01*
X13900Y338400D02*
Y344398D01*
X16899D01*
X17899Y343398D01*
Y341399D01*
X16899Y340399D01*
X13900D01*
X19898Y338400D02*
X21897D01*
X20898D01*
Y344398D01*
X19898Y343398D01*
X24896D02*
X25896Y344398D01*
X27896D01*
X28895Y343398D01*
Y339400D01*
X27896Y338400D01*
X25896D01*
X24896Y339400D01*
Y343398D01*
X13900Y98400D02*
Y104398D01*
X16899D01*
X17899Y103398D01*
Y101399D01*
X16899Y100399D01*
X13900D01*
X19898Y104398D02*
X23897D01*
Y103398D01*
X19898Y99400D01*
Y98400D01*
X566000Y231500D02*
Y237498D01*
X568999D01*
X569999Y236498D01*
Y234499D01*
X568999Y233499D01*
X566000D01*
X575997Y237498D02*
X573997Y236498D01*
X571998Y234499D01*
Y232500D01*
X572998Y231500D01*
X574997D01*
X575997Y232500D01*
Y233499D01*
X574997Y234499D01*
X571998D01*
X514000Y51200D02*
Y57198D01*
X516999D01*
X517999Y56198D01*
Y54199D01*
X516999Y53199D01*
X514000D01*
X523997Y57198D02*
X519998D01*
Y54199D01*
X521997Y55199D01*
X522997D01*
X523997Y54199D01*
Y52200D01*
X522997Y51200D01*
X520998D01*
X519998Y52200D01*
X169700Y50500D02*
Y56498D01*
X172699D01*
X173699Y55498D01*
Y53499D01*
X172699Y52499D01*
X169700D01*
X178697Y50500D02*
Y56498D01*
X175698Y53499D01*
X179697D01*
X374400Y45100D02*
Y51098D01*
X377399D01*
X378399Y50098D01*
Y48099D01*
X377399Y47099D01*
X374400D01*
X380398Y50098D02*
X381398Y51098D01*
X383397D01*
X384397Y50098D01*
Y49099D01*
X383397Y48099D01*
X382397D01*
X383397D01*
X384397Y47099D01*
Y46100D01*
X383397Y45100D01*
X381398D01*
X380398Y46100D01*
X246700Y45100D02*
Y51098D01*
X249699D01*
X250699Y50098D01*
Y48099D01*
X249699Y47099D01*
X246700D01*
X256697Y45100D02*
X252698D01*
X256697Y49099D01*
Y50098D01*
X255697Y51098D01*
X253698D01*
X252698Y50098D01*
X453400Y50400D02*
Y56398D01*
X456399D01*
X457399Y55398D01*
Y53399D01*
X456399Y52399D01*
X453400D01*
X459398Y50400D02*
X461397D01*
X460398D01*
Y56398D01*
X459398Y55398D01*
X575000Y351999D02*
X573001D01*
X574000D01*
Y347001D01*
X573001Y346001D01*
X572001D01*
X571001Y347001D01*
X576999Y346001D02*
X578999D01*
X577999D01*
Y351999D01*
X576999Y350999D01*
X259200Y386398D02*
Y380400D01*
X262199D01*
X263199Y381400D01*
Y385398D01*
X262199Y386398D01*
X259200D01*
X269197Y385398D02*
X268197Y386398D01*
X266198D01*
X265198Y385398D01*
Y384399D01*
X266198Y383399D01*
X268197D01*
X269197Y382399D01*
Y381400D01*
X268197Y380400D01*
X266198D01*
X265198Y381400D01*
X271196Y380400D02*
X273196D01*
X272196D01*
Y386398D01*
X271196Y385398D01*
X538400Y112798D02*
Y106800D01*
X541399D01*
X542399Y107800D01*
Y111798D01*
X541399Y112798D01*
X538400D01*
X548397Y106800D02*
X544398D01*
X548397Y110799D01*
Y111798D01*
X547397Y112798D01*
X545398D01*
X544398Y111798D01*
X459600Y106098D02*
Y100100D01*
X462599D01*
X463599Y101100D01*
Y105098D01*
X462599Y106098D01*
X459600D01*
X465598Y100100D02*
X467597D01*
X466598D01*
Y106098D01*
X465598Y105098D01*
X451299Y194798D02*
X450299Y195798D01*
X448300D01*
X447300Y194798D01*
Y190800D01*
X448300Y189800D01*
X450299D01*
X451299Y190800D01*
X453298Y189800D02*
X455297D01*
X454298D01*
Y195798D01*
X453298Y194798D01*
X458296Y189800D02*
X460296D01*
X459296D01*
Y195798D01*
X458296Y194798D01*
X520799Y108998D02*
X519799Y109998D01*
X517800D01*
X516800Y108998D01*
Y105000D01*
X517800Y104000D01*
X519799D01*
X520799Y105000D01*
X522798Y104000D02*
X524797D01*
X523798D01*
Y109998D01*
X522798Y108998D01*
X527796D02*
X528796Y109998D01*
X530795D01*
X531795Y108998D01*
Y105000D01*
X530795Y104000D01*
X528796D01*
X527796Y105000D01*
Y108998D01*
X519299Y146898D02*
X518299Y147898D01*
X516300D01*
X515300Y146898D01*
Y142900D01*
X516300Y141900D01*
X518299D01*
X519299Y142900D01*
X521298D02*
X522298Y141900D01*
X524297D01*
X525297Y142900D01*
Y146898D01*
X524297Y147898D01*
X522298D01*
X521298Y146898D01*
Y145899D01*
X522298Y144899D01*
X525297D01*
X479199Y290498D02*
X478199Y291498D01*
X476200D01*
X475200Y290498D01*
Y286500D01*
X476200Y285500D01*
X478199D01*
X479199Y286500D01*
X481198Y290498D02*
X482198Y291498D01*
X484197D01*
X485197Y290498D01*
Y289499D01*
X484197Y288499D01*
X485197Y287499D01*
Y286500D01*
X484197Y285500D01*
X482198D01*
X481198Y286500D01*
Y287499D01*
X482198Y288499D01*
X481198Y289499D01*
Y290498D01*
X482198Y288499D02*
X484197D01*
X435799Y290498D02*
X434799Y291498D01*
X432800D01*
X431800Y290498D01*
Y286500D01*
X432800Y285500D01*
X434799D01*
X435799Y286500D01*
X437798Y291498D02*
X441797D01*
Y290498D01*
X437798Y286500D01*
Y285500D01*
X377299Y189098D02*
X376299Y190098D01*
X374300D01*
X373300Y189098D01*
Y185100D01*
X374300Y184100D01*
X376299D01*
X377299Y185100D01*
X383297Y190098D02*
X381297Y189098D01*
X379298Y187099D01*
Y185100D01*
X380298Y184100D01*
X382297D01*
X383297Y185100D01*
Y186099D01*
X382297Y187099D01*
X379298D01*
X528999Y387298D02*
X527999Y388298D01*
X526000D01*
X525000Y387298D01*
Y383300D01*
X526000Y382300D01*
X527999D01*
X528999Y383300D01*
X534997Y388298D02*
X530998D01*
Y385299D01*
X532997Y386299D01*
X533997D01*
X534997Y385299D01*
Y383300D01*
X533997Y382300D01*
X531998D01*
X530998Y383300D01*
X508699Y330898D02*
X507699Y331898D01*
X505700D01*
X504700Y330898D01*
Y326900D01*
X505700Y325900D01*
X507699D01*
X508699Y326900D01*
X513697Y325900D02*
Y331898D01*
X510698Y328899D01*
X514697D01*
X429299Y137298D02*
X428299Y138298D01*
X426300D01*
X425300Y137298D01*
Y133300D01*
X426300Y132300D01*
X428299D01*
X429299Y133300D01*
X431298Y137298D02*
X432298Y138298D01*
X434297D01*
X435297Y137298D01*
Y136299D01*
X434297Y135299D01*
X433297D01*
X434297D01*
X435297Y134299D01*
Y133300D01*
X434297Y132300D01*
X432298D01*
X431298Y133300D01*
X518799Y348498D02*
X517799Y349498D01*
X515800D01*
X514800Y348498D01*
Y344500D01*
X515800Y343500D01*
X517799D01*
X518799Y344500D01*
X524797Y343500D02*
X520798D01*
X524797Y347499D01*
Y348498D01*
X523797Y349498D01*
X521798D01*
X520798Y348498D01*
X414699Y128698D02*
X413699Y129698D01*
X411700D01*
X410700Y128698D01*
Y124700D01*
X411700Y123700D01*
X413699D01*
X414699Y124700D01*
X416698Y123700D02*
X418697D01*
X417698D01*
Y129698D01*
X416698Y128698D01*
X649300Y374600D02*
Y380598D01*
X651299Y378599D01*
X653299Y380598D01*
Y374600D01*
X659297Y380598D02*
X655298D01*
Y377599D01*
X657297Y378599D01*
X658297D01*
X659297Y377599D01*
Y375600D01*
X658297Y374600D01*
X656298D01*
X655298Y375600D01*
X21500Y350500D02*
Y356498D01*
X23499Y354499D01*
X25499Y356498D01*
Y350500D01*
X27498D02*
X29497D01*
X28498D01*
Y356498D01*
X27498Y355498D01*
X569700Y392800D02*
Y398798D01*
X571699Y396799D01*
X573699Y398798D01*
Y392800D01*
X579697D02*
X575698D01*
X579697Y396799D01*
Y397798D01*
X578697Y398798D01*
X576698D01*
X575698Y397798D01*
X569500Y43500D02*
Y49498D01*
X571499Y47499D01*
X573499Y49498D01*
Y43500D01*
X575498Y48498D02*
X576498Y49498D01*
X578497D01*
X579497Y48498D01*
Y47499D01*
X578497Y46499D01*
X577497D01*
X578497D01*
X579497Y45499D01*
Y44500D01*
X578497Y43500D01*
X576498D01*
X575498Y44500D01*
X21500Y44500D02*
Y50498D01*
X23499Y48499D01*
X25499Y50498D01*
Y44500D01*
X30497D02*
Y50498D01*
X27498Y47499D01*
X31497D01*
D15*
X17032Y88100D02*
X13700D01*
X17032Y91432D01*
Y92265D01*
X16199Y93098D01*
X14533D01*
X13700Y92265D01*
X15000Y78000D02*
X16666D01*
X15833D01*
Y82998D01*
X15000Y82165D01*
X214100Y81765D02*
X214933Y82598D01*
X216599D01*
X217432Y81765D01*
Y80932D01*
X216599Y80099D01*
X215766D01*
X216599D01*
X217432Y79266D01*
Y78433D01*
X216599Y77600D01*
X214933D01*
X214100Y78433D01*
X219098Y82598D02*
X222431D01*
Y81765D01*
X219098Y78433D01*
Y77600D01*
X214500Y91665D02*
X215333Y92498D01*
X216999D01*
X217832Y91665D01*
Y90832D01*
X216999Y89999D01*
X216166D01*
X216999D01*
X217832Y89166D01*
Y88333D01*
X216999Y87500D01*
X215333D01*
X214500Y88333D01*
X219498Y91665D02*
X220331Y92498D01*
X221998D01*
X222831Y91665D01*
Y90832D01*
X221998Y89999D01*
X222831Y89166D01*
Y88333D01*
X221998Y87500D01*
X220331D01*
X219498Y88333D01*
Y89166D01*
X220331Y89999D01*
X219498Y90832D01*
Y91665D01*
X220331Y89999D02*
X221998D01*
X17032Y328100D02*
X13700D01*
X17032Y331432D01*
Y332265D01*
X16199Y333098D01*
X14533D01*
X13700Y332265D01*
X15000Y318000D02*
X16666D01*
X15833D01*
Y322998D01*
X15000Y322165D01*
X214100Y321765D02*
X214933Y322598D01*
X216599D01*
X217432Y321765D01*
Y320932D01*
X216599Y320099D01*
X215766D01*
X216599D01*
X217432Y319266D01*
Y318433D01*
X216599Y317600D01*
X214933D01*
X214100Y318433D01*
X219098Y322598D02*
X222431D01*
Y321765D01*
X219098Y318433D01*
Y317600D01*
X214500Y331665D02*
X215333Y332498D01*
X216999D01*
X217832Y331665D01*
Y330832D01*
X216999Y329999D01*
X216166D01*
X216999D01*
X217832Y329166D01*
Y328333D01*
X216999Y327500D01*
X215333D01*
X214500Y328333D01*
X219498Y331665D02*
X220331Y332498D01*
X221998D01*
X222831Y331665D01*
Y330832D01*
X221998Y329999D01*
X222831Y329166D01*
Y328333D01*
X221998Y327500D01*
X220331D01*
X219498Y328333D01*
Y329166D01*
X220331Y329999D01*
X219498Y330832D01*
Y331665D01*
X220331Y329999D02*
X221998D01*
M02*
