G04*
G04 #@! TF.GenerationSoftware,Altium Limited,Altium Designer,24.8.2 (39)*
G04*
G04 Layer_Color=16711935*
%FSLAX25Y25*%
%MOIN*%
G70*
G04*
G04 #@! TF.SameCoordinates,32E85319-11A5-466C-997F-65B2DE774383*
G04*
G04*
G04 #@! TF.FilePolarity,Positive*
G04*
G01*
G75*
%ADD71C,0.00394*%
%ADD72R,0.11496X0.02436*%
%ADD73R,0.02436X0.11496*%
D71*
X512123Y195793D02*
G03*
X512123Y195793I-1969J0D01*
G01*
X514910Y368931D02*
G03*
X514910Y368931I-1969J0D01*
G01*
X329848Y137253D02*
G03*
X329848Y137253I-1969J0D01*
G01*
X494776Y124010D02*
Y132672D01*
X500485Y124010D02*
Y132672D01*
X494776Y124010D02*
X500485D01*
X494776Y132672D02*
X500485D01*
X528669Y371246D02*
X537331D01*
X528669Y376954D02*
X537331D01*
Y371246D02*
Y376954D01*
X528669Y371246D02*
Y376954D01*
X518469Y338154D02*
X527131D01*
X518469Y332446D02*
X527131D01*
X518469D02*
Y338154D01*
X527131Y332446D02*
Y338154D01*
X539652Y80450D02*
Y98561D01*
X551148Y80450D02*
Y98561D01*
X539652Y80450D02*
X551148D01*
X539652Y98561D02*
X551148D01*
X518146Y87669D02*
X523854D01*
X518146Y96331D02*
X523854D01*
X518146Y87669D02*
Y96331D01*
X523854Y87669D02*
Y96331D01*
X459553Y178746D02*
Y184454D01*
X450892Y178746D02*
Y184454D01*
Y178746D02*
X459553D01*
X450892Y184454D02*
X459553D01*
X506611Y192250D02*
X532989D01*
X506611Y210360D02*
X532989D01*
X506611Y192250D02*
Y210360D01*
X532989Y192250D02*
Y210360D01*
X547598Y237944D02*
Y243456D01*
X556260Y237944D02*
Y243456D01*
X547598D02*
X556260D01*
X547598Y237944D02*
X556260D01*
X551744Y195969D02*
X557256D01*
X551744Y204631D02*
X557256D01*
X551744Y195969D02*
Y204631D01*
X557256Y195969D02*
Y204631D01*
X463839Y83352D02*
X481950D01*
X463839Y94848D02*
X481950D01*
Y83352D02*
Y94848D01*
X463839Y83352D02*
Y94848D01*
X477115Y372474D02*
X516485D01*
X477115Y356726D02*
X516485D01*
Y372474D01*
X477115Y356726D02*
Y372474D01*
X487199Y302048D02*
Y320552D01*
X437199Y302048D02*
Y320552D01*
X487199D01*
X437199Y302048D02*
X487199D01*
X385631Y173046D02*
Y178754D01*
X376969Y173046D02*
Y178754D01*
Y173046D02*
X385631D01*
X376969Y178754D02*
X385631D01*
X478808Y274446D02*
Y280154D01*
X487469Y274446D02*
Y280154D01*
X478808D02*
X487469D01*
X478808Y274446D02*
X487469D01*
X444131D02*
Y280154D01*
X435469Y274446D02*
Y280154D01*
Y274446D02*
X444131D01*
X435469Y280154D02*
X444131D01*
X324336Y90403D02*
X353864D01*
X324336Y140797D02*
X353864D01*
Y90403D02*
Y140797D01*
X324336Y90403D02*
Y140797D01*
X412046Y116092D02*
X417754D01*
X412046Y107431D02*
X417754D01*
Y116092D01*
X412046Y107431D02*
Y116092D01*
D72*
X545400Y97343D02*
D03*
D73*
X465057Y89100D02*
D03*
M02*
