G04*
G04 #@! TF.GenerationSoftware,Altium Limited,Altium Designer,24.8.2 (39)*
G04*
G04 Layer_Physical_Order=1*
G04 Layer_Color=255*
%FSLAX25Y25*%
%MOIN*%
G70*
G04*
G04 #@! TF.SameCoordinates,D5B995EF-E859-4182-B092-416B0F4975BE*
G04*
G04*
G04 #@! TF.FilePolarity,Positive*
G04*
G01*
G75*
%ADD14C,0.01000*%
%ADD43R,0.06299X0.05906*%
G04:AMPARAMS|DCode=44|XSize=110.24mil|YSize=19.68mil|CornerRadius=4.92mil|HoleSize=0mil|Usage=FLASHONLY|Rotation=0.000|XOffset=0mil|YOffset=0mil|HoleType=Round|Shape=RoundedRectangle|*
%AMROUNDEDRECTD44*
21,1,0.11024,0.00984,0,0,0.0*
21,1,0.10039,0.01968,0,0,0.0*
1,1,0.00984,0.05020,-0.00492*
1,1,0.00984,-0.05020,-0.00492*
1,1,0.00984,-0.05020,0.00492*
1,1,0.00984,0.05020,0.00492*
%
%ADD44ROUNDEDRECTD44*%
G04:AMPARAMS|DCode=45|XSize=137.8mil|YSize=80.71mil|CornerRadius=20.18mil|HoleSize=0mil|Usage=FLASHONLY|Rotation=0.000|XOffset=0mil|YOffset=0mil|HoleType=Round|Shape=RoundedRectangle|*
%AMROUNDEDRECTD45*
21,1,0.13780,0.04036,0,0,0.0*
21,1,0.09744,0.08071,0,0,0.0*
1,1,0.04035,0.04872,-0.02018*
1,1,0.04035,-0.04872,-0.02018*
1,1,0.04035,-0.04872,0.02018*
1,1,0.04035,0.04872,0.02018*
%
%ADD45ROUNDEDRECTD45*%
G04:AMPARAMS|DCode=46|XSize=157.48mil|YSize=80.71mil|CornerRadius=20.18mil|HoleSize=0mil|Usage=FLASHONLY|Rotation=0.000|XOffset=0mil|YOffset=0mil|HoleType=Round|Shape=RoundedRectangle|*
%AMROUNDEDRECTD46*
21,1,0.15748,0.04035,0,0,0.0*
21,1,0.11713,0.08071,0,0,0.0*
1,1,0.04035,0.05856,-0.02018*
1,1,0.04035,-0.05856,-0.02018*
1,1,0.04035,-0.05856,0.02018*
1,1,0.04035,0.05856,0.02018*
%
%ADD46ROUNDEDRECTD46*%
G04:AMPARAMS|DCode=47|XSize=137.8mil|YSize=80.71mil|CornerRadius=20.18mil|HoleSize=0mil|Usage=FLASHONLY|Rotation=0.000|XOffset=0mil|YOffset=0mil|HoleType=Round|Shape=RoundedRectangle|*
%AMROUNDEDRECTD47*
21,1,0.13780,0.04035,0,0,0.0*
21,1,0.09744,0.08071,0,0,0.0*
1,1,0.04035,0.04872,-0.02018*
1,1,0.04035,-0.04872,-0.02018*
1,1,0.04035,-0.04872,0.02018*
1,1,0.04035,0.04872,0.02018*
%
%ADD47ROUNDEDRECTD47*%
%ADD48R,0.05906X0.06299*%
%ADD49R,0.06693X0.11417*%
%ADD50R,0.11811X0.06299*%
%ADD51O,0.01772X0.06299*%
%ADD52R,0.04921X0.05709*%
%ADD53R,0.05709X0.04921*%
%ADD54R,0.11417X0.06693*%
%ADD55O,0.02362X0.07480*%
%ADD56R,0.06299X0.11811*%
%ADD57R,0.22047X0.08268*%
%ADD58O,0.09055X0.02362*%
%ADD59C,0.03000*%
%ADD60C,0.03543*%
%ADD61R,0.06500X0.06500*%
%ADD62C,0.06500*%
%ADD63R,0.07000X0.07000*%
%ADD64C,0.07000*%
%ADD65R,0.10000X0.10000*%
%ADD66C,0.10000*%
%ADD67R,0.06500X0.06500*%
%ADD68C,0.14500*%
%ADD69C,0.05000*%
%ADD70C,0.18000*%
G36*
X600000Y341524D02*
X599000Y341325D01*
X598973Y341391D01*
X598489Y342021D01*
X597859Y342505D01*
X597124Y342809D01*
X596337Y342913D01*
X590980D01*
Y337851D01*
Y332790D01*
X596337D01*
X597124Y332893D01*
X597859Y333197D01*
X598489Y333681D01*
X598973Y334312D01*
X599000Y334378D01*
X600000Y334179D01*
Y302744D01*
X599000Y302545D01*
X598973Y302611D01*
X598489Y303242D01*
X597859Y303725D01*
X597124Y304029D01*
X596337Y304133D01*
X590980D01*
Y299072D01*
Y294010D01*
X596337D01*
X597124Y294114D01*
X597859Y294418D01*
X598489Y294902D01*
X598973Y295532D01*
X599000Y295598D01*
X600000Y295399D01*
Y0D01*
X0D01*
Y400000D01*
X600000D01*
Y341524D01*
D02*
G37*
%LPC*%
G36*
X289700Y387122D02*
X289700Y387122D01*
X151700D01*
X151700Y387122D01*
X151271Y387036D01*
X150907Y386793D01*
X150907Y386793D01*
X134207Y370093D01*
X133964Y369729D01*
X133878Y369300D01*
X133878Y369300D01*
Y333944D01*
X133417Y333821D01*
X132483Y333281D01*
X131719Y332518D01*
X131179Y331582D01*
X130900Y330540D01*
Y329460D01*
X131179Y328417D01*
X131719Y327483D01*
X132483Y326719D01*
X133417Y326179D01*
X134460Y325900D01*
X135540D01*
X136583Y326179D01*
X137517Y326719D01*
X138281Y327483D01*
X138821Y328417D01*
X139100Y329460D01*
Y330540D01*
X138821Y331582D01*
X138281Y332518D01*
X137517Y333281D01*
X136583Y333821D01*
X136122Y333944D01*
Y368835D01*
X152165Y384878D01*
X289235D01*
X294960Y379154D01*
Y368469D01*
X294596Y368372D01*
X293718Y367865D01*
X293001Y367148D01*
X292494Y366270D01*
X292232Y365291D01*
Y364277D01*
X292494Y363298D01*
X293001Y362420D01*
X293718Y361703D01*
X294596Y361196D01*
X295575Y360934D01*
X296588D01*
X297568Y361196D01*
X298446Y361703D01*
X299162Y362420D01*
X299669Y363298D01*
X299932Y364277D01*
Y365291D01*
X299669Y366270D01*
X299162Y367148D01*
X298446Y367865D01*
X297568Y368372D01*
X297203Y368469D01*
Y379618D01*
X297118Y380048D01*
X296875Y380412D01*
X296875Y380412D01*
X290493Y386793D01*
X290129Y387036D01*
X289700Y387122D01*
D02*
G37*
G36*
X513800Y378535D02*
X513449Y378466D01*
X512727Y377983D01*
X512245Y377262D01*
X512076Y376411D01*
X511116D01*
X510978Y377106D01*
X510584Y377695D01*
X509995Y378089D01*
X509300Y378227D01*
X508605Y378089D01*
X508016Y377695D01*
X507622Y377106D01*
X507484Y376411D01*
Y371293D01*
X507622Y370598D01*
X508016Y370009D01*
X508178Y369900D01*
Y364886D01*
X508178Y364886D01*
X508264Y364457D01*
X508507Y364093D01*
X510293Y362307D01*
X510293Y362307D01*
X510657Y362064D01*
X511086Y361978D01*
X511086Y361979D01*
X534878D01*
Y358257D01*
X534803Y358237D01*
X534097Y357829D01*
X533519Y357252D01*
X533111Y356545D01*
X532900Y355756D01*
Y354940D01*
X533111Y354152D01*
X533519Y353445D01*
X534097Y352867D01*
X534803Y352459D01*
X535592Y352248D01*
X536408D01*
X537197Y352459D01*
X537903Y352867D01*
X538481Y353445D01*
X538889Y354152D01*
X539100Y354940D01*
Y355756D01*
X538889Y356545D01*
X538481Y357252D01*
X537903Y357829D01*
X537197Y358237D01*
X537122Y358257D01*
Y362514D01*
X537036Y362943D01*
X536793Y363307D01*
X536793Y363307D01*
X536207Y363893D01*
X535843Y364136D01*
X535414Y364222D01*
X535414Y364222D01*
X511550D01*
X510422Y365350D01*
Y369900D01*
X510584Y370009D01*
X510978Y370598D01*
X511116Y371293D01*
X512076D01*
X512245Y370442D01*
X512727Y369720D01*
X513449Y369238D01*
X513800Y369169D01*
Y373852D01*
Y378535D01*
D02*
G37*
G36*
X537339Y378250D02*
Y374600D01*
X540791D01*
Y378250D01*
X537339D01*
D02*
G37*
G36*
X514800Y378535D02*
Y374352D01*
X516524D01*
Y376411D01*
X516355Y377262D01*
X515872Y377983D01*
X515151Y378466D01*
X514800Y378535D01*
D02*
G37*
G36*
X540791Y373600D02*
X537339D01*
Y369950D01*
X540791D01*
Y373600D01*
D02*
G37*
G36*
X519361Y386041D02*
X501057D01*
X500238Y385878D01*
X499543Y385414D01*
X497786Y383657D01*
X497322Y382962D01*
X497159Y382143D01*
Y373852D01*
X497322Y373033D01*
X497484Y372790D01*
Y371293D01*
X497622Y370598D01*
X498016Y370009D01*
X498605Y369615D01*
X499300Y369477D01*
X499995Y369615D01*
X500584Y370009D01*
X500978Y370598D01*
X501116Y371293D01*
Y372790D01*
X501278Y373033D01*
X501441Y373852D01*
Y381256D01*
X501944Y381759D01*
X518474D01*
X525609Y374625D01*
Y370350D01*
X532052D01*
X532886Y369950D01*
X533548Y369950D01*
X536339D01*
Y374100D01*
Y378250D01*
X533548D01*
X532886Y378250D01*
X532052Y377850D01*
X528440D01*
X520875Y385414D01*
X520181Y385878D01*
X519361Y386041D01*
D02*
G37*
G36*
X489608Y397400D02*
X488792D01*
X488003Y397189D01*
X487297Y396781D01*
X486719Y396203D01*
X486311Y395497D01*
X486100Y394708D01*
Y393892D01*
X486311Y393103D01*
X486719Y392397D01*
X487297Y391819D01*
X488003Y391411D01*
X488178Y391364D01*
Y377804D01*
X488016Y377695D01*
X487622Y377106D01*
X487484Y376411D01*
Y371293D01*
X487622Y370598D01*
X488016Y370009D01*
X488605Y369615D01*
X489300Y369477D01*
X489995Y369615D01*
X490584Y370009D01*
X490978Y370598D01*
X491116Y371293D01*
Y376411D01*
X490978Y377106D01*
X490584Y377695D01*
X490422Y377804D01*
Y391426D01*
X491103Y391819D01*
X491681Y392397D01*
X492089Y393103D01*
X492300Y393892D01*
Y394708D01*
X492089Y395497D01*
X491681Y396203D01*
X491103Y396781D01*
X490397Y397189D01*
X489608Y397400D01*
D02*
G37*
G36*
X484014Y384022D02*
X484014Y384021D01*
X444084D01*
X443655Y383936D01*
X443291Y383693D01*
X443291Y383693D01*
X442705Y383107D01*
X442462Y382743D01*
X442377Y382314D01*
X442377Y382314D01*
Y316034D01*
X431875D01*
Y306566D01*
X442756D01*
Y281050D01*
X440749D01*
X439914Y281450D01*
X439252Y281450D01*
X436461D01*
Y277300D01*
Y273150D01*
X439252D01*
X439914Y273150D01*
X440749Y273550D01*
X447191D01*
Y281050D01*
X444999D01*
Y306566D01*
X455122D01*
Y316034D01*
X444620D01*
Y381779D01*
X452918D01*
X453202Y381249D01*
X453278Y380779D01*
X452807Y380307D01*
X452564Y379943D01*
X452478Y379514D01*
X452478Y379514D01*
Y344700D01*
X452478Y344700D01*
X452564Y344271D01*
X452807Y343907D01*
X456007Y340707D01*
X456007Y340707D01*
X456371Y340464D01*
X456800Y340378D01*
X479435D01*
X479778Y340035D01*
Y316034D01*
X469276D01*
Y306566D01*
X479040D01*
Y281050D01*
X475747D01*
Y273550D01*
X482190D01*
X483024Y273150D01*
X483687Y273150D01*
X486477D01*
Y277300D01*
Y281450D01*
X483687D01*
X483024Y281450D01*
X482283Y281094D01*
X481781Y281259D01*
X481283Y281757D01*
Y306566D01*
X492524D01*
Y316034D01*
X482022D01*
Y340500D01*
X481936Y340929D01*
X481693Y341293D01*
X481693Y341293D01*
X480693Y342293D01*
X480329Y342536D01*
X479900Y342622D01*
X479900Y342621D01*
X457265D01*
X454722Y345165D01*
Y378978D01*
X478230D01*
Y377838D01*
X478016Y377695D01*
X477622Y377106D01*
X477484Y376411D01*
Y371293D01*
X477622Y370598D01*
X478016Y370009D01*
X478605Y369615D01*
X479300Y369477D01*
X479995Y369615D01*
X480584Y370009D01*
X480978Y370598D01*
X481116Y371293D01*
Y376411D01*
X480978Y377106D01*
X480584Y377695D01*
X480474Y377769D01*
Y379514D01*
X480388Y379943D01*
X480145Y380307D01*
X480145Y380307D01*
X479674Y380779D01*
X479750Y381249D01*
X480034Y381779D01*
X483478D01*
Y378004D01*
X483016Y377695D01*
X482622Y377106D01*
X482484Y376411D01*
Y371293D01*
X482622Y370598D01*
X483016Y370009D01*
X483605Y369615D01*
X484300Y369477D01*
X484995Y369615D01*
X485584Y370009D01*
X485978Y370598D01*
X486116Y371293D01*
Y376411D01*
X485978Y377106D01*
X485722Y377489D01*
Y382314D01*
X485636Y382743D01*
X485393Y383107D01*
X485393Y383107D01*
X484807Y383693D01*
X484443Y383936D01*
X484014Y384022D01*
D02*
G37*
G36*
X516524Y373352D02*
X514800D01*
Y369169D01*
X515151Y369238D01*
X515872Y369720D01*
X516355Y370442D01*
X516524Y371293D01*
Y373352D01*
D02*
G37*
G36*
X504300Y378227D02*
X503605Y378089D01*
X503016Y377695D01*
X502622Y377106D01*
X502484Y376411D01*
Y371293D01*
X502622Y370598D01*
X503016Y370009D01*
X503178Y369900D01*
Y365665D01*
X502935Y365422D01*
X466009D01*
X465989Y365497D01*
X465581Y366203D01*
X465003Y366781D01*
X464297Y367189D01*
X463508Y367400D01*
X462692D01*
X461903Y367189D01*
X461197Y366781D01*
X460619Y366203D01*
X460211Y365497D01*
X460000Y364708D01*
Y363892D01*
X460211Y363103D01*
X460619Y362397D01*
X461197Y361819D01*
X461903Y361411D01*
X462692Y361200D01*
X463508D01*
X464297Y361411D01*
X465003Y361819D01*
X465581Y362397D01*
X465989Y363103D01*
X466009Y363178D01*
X503400D01*
X503400Y363178D01*
X503829Y363264D01*
X504193Y363507D01*
X505093Y364407D01*
X505093Y364407D01*
X505336Y364771D01*
X505422Y365200D01*
Y369900D01*
X505584Y370009D01*
X505978Y370598D01*
X506116Y371293D01*
Y376411D01*
X505978Y377106D01*
X505584Y377695D01*
X504995Y378089D01*
X504300Y378227D01*
D02*
G37*
G36*
X346641Y369034D02*
X346582D01*
Y365284D01*
X350332D01*
Y365343D01*
X350042Y366424D01*
X349482Y367393D01*
X348691Y368185D01*
X347722Y368744D01*
X346641Y369034D01*
D02*
G37*
G36*
X345582D02*
X345522D01*
X344441Y368744D01*
X343472Y368185D01*
X342681Y367393D01*
X342121Y366424D01*
X341832Y365343D01*
Y365284D01*
X345582D01*
Y369034D01*
D02*
G37*
G36*
X336588Y368634D02*
X335575D01*
X334595Y368372D01*
X333718Y367865D01*
X333001Y367148D01*
X332494Y366270D01*
X332232Y365291D01*
Y364277D01*
X332494Y363298D01*
X333001Y362420D01*
X333718Y361703D01*
X334595Y361196D01*
X335575Y360934D01*
X336588D01*
X337568Y361196D01*
X338445Y361703D01*
X339162Y362420D01*
X339669Y363298D01*
X339932Y364277D01*
Y365291D01*
X339669Y366270D01*
X339162Y367148D01*
X338445Y367865D01*
X337568Y368372D01*
X336588Y368634D01*
D02*
G37*
G36*
X316588D02*
X315575D01*
X314596Y368372D01*
X313718Y367865D01*
X313001Y367148D01*
X312494Y366270D01*
X312232Y365291D01*
Y364277D01*
X312494Y363298D01*
X313001Y362420D01*
X313718Y361703D01*
X314596Y361196D01*
X315575Y360934D01*
X316588D01*
X317568Y361196D01*
X318445Y361703D01*
X319162Y362420D01*
X319669Y363298D01*
X319932Y364277D01*
Y365291D01*
X319669Y366270D01*
X319162Y367148D01*
X318445Y367865D01*
X317568Y368372D01*
X316588Y368634D01*
D02*
G37*
G36*
X295100Y390722D02*
X295100Y390722D01*
X136400D01*
X135971Y390636D01*
X135607Y390393D01*
X135607Y390393D01*
X124207Y378993D01*
X123964Y378629D01*
X123878Y378200D01*
X123878Y378200D01*
Y333944D01*
X123417Y333821D01*
X122483Y333281D01*
X121719Y332518D01*
X121179Y331582D01*
X120900Y330540D01*
Y329460D01*
X121179Y328417D01*
X121719Y327483D01*
X122483Y326719D01*
X123417Y326179D01*
X124460Y325900D01*
X125540D01*
X126583Y326179D01*
X127517Y326719D01*
X128281Y327483D01*
X128821Y328417D01*
X129100Y329460D01*
Y330540D01*
X128821Y331582D01*
X128281Y332518D01*
X127517Y333281D01*
X126583Y333821D01*
X126122Y333944D01*
Y377735D01*
X136865Y388478D01*
X294635D01*
X304878Y378235D01*
Y368447D01*
X304595Y368372D01*
X303718Y367865D01*
X303001Y367148D01*
X302494Y366270D01*
X302232Y365291D01*
Y364277D01*
X302494Y363298D01*
X303001Y362420D01*
X303718Y361703D01*
X304595Y361196D01*
X305575Y360934D01*
X306588D01*
X307568Y361196D01*
X308446Y361703D01*
X309162Y362420D01*
X309669Y363298D01*
X309932Y364277D01*
Y365291D01*
X309669Y366270D01*
X309162Y367148D01*
X308446Y367865D01*
X307568Y368372D01*
X307121Y368491D01*
Y378700D01*
X307122Y378700D01*
X307036Y379129D01*
X306793Y379493D01*
X306793Y379493D01*
X295893Y390393D01*
X295529Y390636D01*
X295100Y390722D01*
D02*
G37*
G36*
X350332Y364284D02*
X346582D01*
Y360534D01*
X346641D01*
X347722Y360824D01*
X348691Y361383D01*
X349482Y362174D01*
X350042Y363143D01*
X350332Y364224D01*
Y364284D01*
D02*
G37*
G36*
X345582D02*
X341832D01*
Y364224D01*
X342121Y363143D01*
X342681Y362174D01*
X343472Y361383D01*
X344441Y360824D01*
X345522Y360534D01*
X345582D01*
Y364284D01*
D02*
G37*
G36*
X575000Y391150D02*
X572474Y390951D01*
X570009Y390359D01*
X567668Y389390D01*
X565507Y388066D01*
X563580Y386420D01*
X561935Y384493D01*
X560610Y382332D01*
X559641Y379991D01*
X559049Y377526D01*
X558850Y375000D01*
X559049Y372474D01*
X559641Y370009D01*
X560610Y367668D01*
X561935Y365507D01*
X563580Y363580D01*
X565507Y361934D01*
X567668Y360610D01*
X570009Y359641D01*
X572474Y359049D01*
X575000Y358850D01*
X577526Y359049D01*
X579991Y359641D01*
X582332Y360610D01*
X584493Y361934D01*
X586420Y363580D01*
X588065Y365507D01*
X589390Y367668D01*
X590359Y370009D01*
X590951Y372474D01*
X591150Y375000D01*
X590951Y377526D01*
X590359Y379991D01*
X589390Y382332D01*
X588065Y384493D01*
X586420Y386420D01*
X584493Y388066D01*
X582332Y389390D01*
X579991Y390359D01*
X577526Y390951D01*
X575000Y391150D01*
D02*
G37*
G36*
X25000D02*
X22474Y390951D01*
X20009Y390359D01*
X17668Y389390D01*
X15507Y388066D01*
X13580Y386420D01*
X11935Y384493D01*
X10610Y382332D01*
X9641Y379991D01*
X9049Y377526D01*
X8850Y375000D01*
X9049Y372474D01*
X9641Y370009D01*
X10610Y367668D01*
X11935Y365507D01*
X13580Y363580D01*
X15507Y361934D01*
X17668Y360610D01*
X20009Y359641D01*
X22474Y359049D01*
X25000Y358850D01*
X27526Y359049D01*
X29991Y359641D01*
X32332Y360610D01*
X34493Y361934D01*
X36420Y363580D01*
X38065Y365507D01*
X39390Y367668D01*
X40359Y370009D01*
X40951Y372474D01*
X41150Y375000D01*
X40951Y377526D01*
X40359Y379991D01*
X39390Y382332D01*
X38065Y384493D01*
X36420Y386420D01*
X34493Y388066D01*
X32332Y389390D01*
X29991Y390359D01*
X27526Y390951D01*
X25000Y391150D01*
D02*
G37*
G36*
X508800Y360031D02*
X508449Y359962D01*
X507727Y359480D01*
X507245Y358758D01*
X507076Y357907D01*
X506116D01*
X505978Y358602D01*
X505584Y359191D01*
X504995Y359585D01*
X504300Y359723D01*
X503605Y359585D01*
X503016Y359191D01*
X502622Y358602D01*
X502484Y357907D01*
Y352789D01*
X502622Y352094D01*
X503016Y351505D01*
X503605Y351111D01*
X504300Y350973D01*
X504995Y351111D01*
X505584Y351505D01*
X505978Y352094D01*
X506116Y352789D01*
X507076D01*
X507245Y351938D01*
X507727Y351217D01*
X508449Y350734D01*
X508800Y350665D01*
Y355348D01*
Y360031D01*
D02*
G37*
G36*
X373000Y378033D02*
X371020Y377838D01*
X369116Y377261D01*
X367362Y376323D01*
X365824Y375061D01*
X364562Y373523D01*
X363624Y371768D01*
X363046Y369864D01*
X362851Y367884D01*
X363046Y365904D01*
X363624Y364001D01*
X364562Y362246D01*
X365824Y360708D01*
X367362Y359446D01*
X369116Y358508D01*
X371020Y357930D01*
X373000Y357735D01*
X374980Y357930D01*
X376884Y358508D01*
X378638Y359446D01*
X380176Y360708D01*
X381438Y362246D01*
X382376Y364001D01*
X382954Y365904D01*
X383149Y367884D01*
X382954Y369864D01*
X382376Y371768D01*
X381438Y373523D01*
X380176Y375061D01*
X378638Y376323D01*
X376884Y377261D01*
X374980Y377838D01*
X373000Y378033D01*
D02*
G37*
G36*
X267882D02*
X265902Y377838D01*
X263998Y377261D01*
X262244Y376323D01*
X260706Y375061D01*
X259443Y373523D01*
X258506Y371768D01*
X257928Y369864D01*
X257733Y367884D01*
X257928Y365904D01*
X258506Y364001D01*
X259443Y362246D01*
X260706Y360708D01*
X262244Y359446D01*
X263998Y358508D01*
X265902Y357930D01*
X267882Y357735D01*
X269862Y357930D01*
X271766Y358508D01*
X273520Y359446D01*
X275058Y360708D01*
X276320Y362246D01*
X277258Y364001D01*
X277836Y365904D01*
X278031Y367884D01*
X277836Y369864D01*
X277258Y371768D01*
X276320Y373523D01*
X275058Y375061D01*
X273520Y376323D01*
X271766Y377261D01*
X269862Y377838D01*
X267882Y378033D01*
D02*
G37*
G36*
X410714Y398022D02*
X410714Y398022D01*
X95586D01*
X95157Y397936D01*
X94793Y397693D01*
X94793Y397693D01*
X94207Y397107D01*
X93964Y396743D01*
X93878Y396314D01*
X93878Y396314D01*
Y333944D01*
X93418Y333821D01*
X92483Y333281D01*
X91719Y332518D01*
X91179Y331582D01*
X90900Y330540D01*
Y329460D01*
X91179Y328417D01*
X91719Y327483D01*
X92483Y326719D01*
X93418Y326179D01*
X94460Y325900D01*
X95540D01*
X96583Y326179D01*
X97518Y326719D01*
X98281Y327483D01*
X98821Y328417D01*
X99100Y329460D01*
Y330540D01*
X98821Y331582D01*
X98281Y332518D01*
X97518Y333281D01*
X96583Y333821D01*
X96122Y333944D01*
Y395778D01*
X410178D01*
Y357421D01*
X389286D01*
X388857Y357336D01*
X388493Y357093D01*
X388493Y357093D01*
X387907Y356507D01*
X387664Y356143D01*
X387578Y355714D01*
X387579Y355714D01*
Y197822D01*
X346000D01*
X345571Y197736D01*
X345207Y197493D01*
X344964Y197129D01*
X344879Y196700D01*
Y134222D01*
X325926D01*
X325817Y134384D01*
X325228Y134778D01*
X324533Y134916D01*
X317840D01*
X317145Y134778D01*
X316556Y134384D01*
X316162Y133795D01*
X316024Y133100D01*
X316162Y132405D01*
X316272Y132241D01*
X315753Y131241D01*
X299057D01*
X298238Y131078D01*
X297543Y130614D01*
X295786Y128857D01*
X295322Y128162D01*
X295159Y127343D01*
Y67493D01*
X294159Y67362D01*
X293989Y67997D01*
X293581Y68703D01*
X293003Y69281D01*
X292297Y69689D01*
X291508Y69900D01*
X290692D01*
X289903Y69689D01*
X289197Y69281D01*
X288619Y68703D01*
X288211Y67997D01*
X288000Y67208D01*
Y66392D01*
X288211Y65603D01*
X288619Y64897D01*
X288959Y64557D01*
Y32409D01*
X288736Y32281D01*
X288019Y31564D01*
X287512Y30686D01*
X287250Y29707D01*
Y28693D01*
X287512Y27714D01*
X288019Y26836D01*
X288736Y26119D01*
X289614Y25612D01*
X290593Y25350D01*
X291607D01*
X292586Y25612D01*
X293464Y26119D01*
X294181Y26836D01*
X294688Y27714D01*
X294950Y28693D01*
Y29707D01*
X294688Y30686D01*
X294181Y31564D01*
X293464Y32281D01*
X293241Y32409D01*
Y64557D01*
X293581Y64897D01*
X293989Y65603D01*
X294159Y66238D01*
X295159Y66107D01*
Y53000D01*
X295322Y52181D01*
X295786Y51486D01*
X298959Y48313D01*
Y33050D01*
X297250D01*
Y25350D01*
X304950D01*
Y33050D01*
X303241D01*
Y49200D01*
X303078Y50019D01*
X302614Y50714D01*
X299441Y53887D01*
Y126456D01*
X299944Y126959D01*
X316460D01*
X316556Y126816D01*
X317145Y126422D01*
X317236Y126404D01*
X317445Y126265D01*
X317396Y125383D01*
X317339Y125224D01*
X316989Y125154D01*
X316268Y124672D01*
X315786Y123951D01*
X315716Y123600D01*
X321187D01*
X326658D01*
X326588Y123951D01*
X326106Y124672D01*
X325384Y125154D01*
X324533Y125324D01*
Y126284D01*
X325228Y126422D01*
X325817Y126816D01*
X326211Y127405D01*
X326349Y128100D01*
X326211Y128795D01*
X325817Y129384D01*
X325228Y129778D01*
X324533Y129916D01*
X322249D01*
X322006Y130078D01*
X321187Y130241D01*
X320387D01*
X320358Y130284D01*
X320893Y131284D01*
X324533D01*
X325228Y131422D01*
X325817Y131816D01*
X325926Y131978D01*
X345414D01*
X345414Y131978D01*
X345843Y132064D01*
X346207Y132307D01*
X346793Y132893D01*
X346793Y132893D01*
X347036Y133257D01*
X347122Y133686D01*
Y195578D01*
X388114D01*
X388114Y195578D01*
X388543Y195664D01*
X388907Y195907D01*
X389493Y196493D01*
X389493Y196493D01*
X389736Y196857D01*
X389822Y197286D01*
Y288080D01*
X390342Y288401D01*
X390822Y288547D01*
X391403Y288211D01*
X391979Y288057D01*
Y134222D01*
X361753D01*
X361644Y134384D01*
X361055Y134778D01*
X360360Y134916D01*
X353667D01*
X352972Y134778D01*
X352383Y134384D01*
X351989Y133795D01*
X351851Y133100D01*
X351989Y132405D01*
X352383Y131816D01*
X352972Y131422D01*
X353667Y131284D01*
X360360D01*
X361055Y131422D01*
X361644Y131816D01*
X361753Y131978D01*
X377807D01*
X377938Y130978D01*
X377603Y130889D01*
X376897Y130481D01*
X376557Y130141D01*
X357516D01*
X357013Y130241D01*
X356194Y130078D01*
X355951Y129916D01*
X353667D01*
X352972Y129778D01*
X352383Y129384D01*
X351989Y128795D01*
X351851Y128100D01*
X351989Y127405D01*
X352383Y126816D01*
X352972Y126422D01*
X353667Y126284D01*
Y125324D01*
X352816Y125154D01*
X352094Y124672D01*
X351612Y123951D01*
X351543Y123600D01*
X357013D01*
X362484D01*
X362414Y123951D01*
X361932Y124672D01*
X361653Y124859D01*
X361957Y125859D01*
X376557D01*
X376897Y125519D01*
X377603Y125111D01*
X378392Y124900D01*
X379208D01*
X379997Y125111D01*
X380703Y125519D01*
X381281Y126097D01*
X381689Y126803D01*
X381900Y127592D01*
Y128408D01*
X381689Y129197D01*
X381281Y129903D01*
X380703Y130481D01*
X379997Y130889D01*
X379662Y130978D01*
X379793Y131978D01*
X392514D01*
X392514Y131978D01*
X392943Y132064D01*
X393307Y132307D01*
X393893Y132893D01*
X393893Y132893D01*
X394136Y133257D01*
X394221Y133686D01*
Y288457D01*
X394503Y288619D01*
X395081Y289197D01*
X395489Y289903D01*
X395700Y290692D01*
Y291508D01*
X395489Y292297D01*
X395081Y293003D01*
X394503Y293581D01*
X393797Y293989D01*
X393008Y294200D01*
X392192D01*
X391403Y293989D01*
X390822Y293653D01*
X390342Y293799D01*
X389822Y294120D01*
Y355178D01*
X396671D01*
X396939Y354179D01*
X396597Y353981D01*
X396019Y353403D01*
X395611Y352697D01*
X395400Y351908D01*
Y351092D01*
X395611Y350303D01*
X396019Y349597D01*
X396597Y349019D01*
X397303Y348611D01*
X397479Y348564D01*
Y104065D01*
X392635Y99222D01*
X389793D01*
X389662Y100222D01*
X389997Y100311D01*
X390703Y100719D01*
X391281Y101297D01*
X391689Y102003D01*
X391900Y102792D01*
Y103608D01*
X391689Y104397D01*
X391281Y105103D01*
X390703Y105681D01*
X389997Y106089D01*
X389208Y106300D01*
X388392D01*
X387603Y106089D01*
X386897Y105681D01*
X386507Y105291D01*
X361882D01*
X361579Y106291D01*
X361932Y106527D01*
X362414Y107249D01*
X362484Y107600D01*
X357013D01*
X351543D01*
X351612Y107249D01*
X352094Y106527D01*
X352816Y106045D01*
X353667Y105876D01*
Y104916D01*
X352972Y104778D01*
X352383Y104384D01*
X351989Y103795D01*
X351851Y103100D01*
X351989Y102405D01*
X352383Y101816D01*
X352972Y101422D01*
X353667Y101284D01*
X355951D01*
X356194Y101122D01*
X357013Y100959D01*
X357265Y101009D01*
X386607D01*
X386897Y100719D01*
X387603Y100311D01*
X387938Y100222D01*
X387807Y99222D01*
X361753D01*
X361644Y99384D01*
X361055Y99778D01*
X360360Y99916D01*
X353667D01*
X352972Y99778D01*
X352383Y99384D01*
X351989Y98795D01*
X351851Y98100D01*
X351989Y97405D01*
X352383Y96816D01*
X352972Y96422D01*
X353667Y96284D01*
X360360D01*
X361055Y96422D01*
X361644Y96816D01*
X361753Y96978D01*
X393100D01*
X393100Y96978D01*
X393529Y97064D01*
X393893Y97307D01*
X399393Y102807D01*
X399393Y102807D01*
X399636Y103171D01*
X399722Y103600D01*
Y348626D01*
X400403Y349019D01*
X400981Y349597D01*
X401389Y350303D01*
X401600Y351092D01*
Y351908D01*
X401389Y352697D01*
X400981Y353403D01*
X400403Y353981D01*
X400061Y354179D01*
X400329Y355178D01*
X410714D01*
X410714Y355178D01*
X411143Y355264D01*
X411507Y355507D01*
X412093Y356093D01*
X412093Y356093D01*
X412336Y356457D01*
X412422Y356886D01*
Y396314D01*
X412336Y396743D01*
X412093Y397107D01*
X412093Y397107D01*
X411507Y397693D01*
X411143Y397936D01*
X410714Y398022D01*
D02*
G37*
G36*
X244008Y355400D02*
X243192D01*
X242403Y355189D01*
X241697Y354781D01*
X241119Y354203D01*
X240711Y353497D01*
X240691Y353421D01*
X156100D01*
X156100Y353422D01*
X155671Y353336D01*
X155307Y353093D01*
X154507Y352293D01*
X154264Y351929D01*
X154178Y351500D01*
X154178Y351500D01*
Y334025D01*
X153418Y333821D01*
X152482Y333281D01*
X151719Y332518D01*
X151179Y331582D01*
X150900Y330540D01*
Y329460D01*
X151179Y328417D01*
X151719Y327483D01*
X152482Y326719D01*
X153418Y326179D01*
X154460Y325900D01*
X155540D01*
X156582Y326179D01*
X157518Y326719D01*
X158281Y327483D01*
X158821Y328417D01*
X159100Y329460D01*
Y330540D01*
X158821Y331582D01*
X158281Y332518D01*
X157518Y333281D01*
X156582Y333821D01*
X156422Y333864D01*
Y351035D01*
X156565Y351179D01*
X240691D01*
X240711Y351103D01*
X241119Y350397D01*
X241697Y349819D01*
X242403Y349411D01*
X243192Y349200D01*
X244008D01*
X244797Y349411D01*
X245503Y349819D01*
X246081Y350397D01*
X246489Y351103D01*
X246700Y351892D01*
Y352708D01*
X246489Y353497D01*
X246081Y354203D01*
X245503Y354781D01*
X244797Y355189D01*
X244008Y355400D01*
D02*
G37*
G36*
X499300Y359723D02*
X498605Y359585D01*
X498016Y359191D01*
X497622Y358602D01*
X497484Y357907D01*
Y352789D01*
X497622Y352094D01*
X498016Y351505D01*
X498605Y351111D01*
X499300Y350973D01*
X499995Y351111D01*
X500584Y351505D01*
X500978Y352094D01*
X501116Y352789D01*
Y357907D01*
X500978Y358602D01*
X500584Y359191D01*
X499995Y359585D01*
X499300Y359723D01*
D02*
G37*
G36*
X494300D02*
X493605Y359585D01*
X493016Y359191D01*
X492622Y358602D01*
X492484Y357907D01*
Y352789D01*
X492622Y352094D01*
X493016Y351505D01*
X493605Y351111D01*
X494300Y350973D01*
X494995Y351111D01*
X495584Y351505D01*
X495978Y352094D01*
X496116Y352789D01*
Y357907D01*
X495978Y358602D01*
X495584Y359191D01*
X494995Y359585D01*
X494300Y359723D01*
D02*
G37*
G36*
X489300D02*
X488605Y359585D01*
X488016Y359191D01*
X487622Y358602D01*
X487484Y357907D01*
Y352789D01*
X487622Y352094D01*
X488016Y351505D01*
X488605Y351111D01*
X489300Y350973D01*
X489995Y351111D01*
X490584Y351505D01*
X490978Y352094D01*
X491116Y352789D01*
Y357907D01*
X490978Y358602D01*
X490584Y359191D01*
X489995Y359585D01*
X489300Y359723D01*
D02*
G37*
G36*
X484300D02*
X483605Y359585D01*
X483016Y359191D01*
X482622Y358602D01*
X482484Y357907D01*
Y352789D01*
X482622Y352094D01*
X483016Y351505D01*
X483605Y351111D01*
X484300Y350973D01*
X484995Y351111D01*
X485584Y351505D01*
X485978Y352094D01*
X486116Y352789D01*
Y357907D01*
X485978Y358602D01*
X485584Y359191D01*
X484995Y359585D01*
X484300Y359723D01*
D02*
G37*
G36*
X479300D02*
X478605Y359585D01*
X478016Y359191D01*
X477622Y358602D01*
X477484Y357907D01*
Y352789D01*
X477622Y352094D01*
X478016Y351505D01*
X478605Y351111D01*
X479300Y350973D01*
X479995Y351111D01*
X480584Y351505D01*
X480978Y352094D01*
X481116Y352789D01*
Y357907D01*
X480978Y358602D01*
X480584Y359191D01*
X479995Y359585D01*
X479300Y359723D01*
D02*
G37*
G36*
X573248Y342913D02*
X568876D01*
X568088Y342809D01*
X567354Y342505D01*
X566724Y342021D01*
X566240Y341391D01*
X565936Y340657D01*
X565832Y339869D01*
Y338351D01*
X573248D01*
Y342913D01*
D02*
G37*
G36*
X518461Y339450D02*
X515009D01*
Y335800D01*
X518461D01*
Y339450D01*
D02*
G37*
G36*
X578620Y342913D02*
X574248D01*
Y337851D01*
Y332790D01*
X578620D01*
X579408Y332893D01*
X580142Y333197D01*
X580772Y333681D01*
X581029Y334015D01*
X581287Y334095D01*
X581957D01*
X582216Y334015D01*
X582472Y333681D01*
X583102Y333197D01*
X583836Y332893D01*
X584624Y332790D01*
X589980D01*
Y337851D01*
Y342913D01*
X584624D01*
X583836Y342809D01*
X583102Y342505D01*
X582472Y342021D01*
X582216Y341687D01*
X581957Y341607D01*
X581287D01*
X581029Y341687D01*
X580772Y342021D01*
X580142Y342505D01*
X579408Y342809D01*
X578620Y342913D01*
D02*
G37*
G36*
X573248Y337351D02*
X565832D01*
Y335834D01*
X565936Y335046D01*
X566240Y334312D01*
X566724Y333681D01*
X567354Y333197D01*
X568088Y332893D01*
X568876Y332790D01*
X573248D01*
Y337351D01*
D02*
G37*
G36*
X518461Y334800D02*
X515009D01*
Y331150D01*
X518461D01*
Y334800D01*
D02*
G37*
G36*
X115592Y334500D02*
X115500D01*
Y330500D01*
X119500D01*
Y330592D01*
X119193Y331737D01*
X118601Y332763D01*
X117763Y333601D01*
X116737Y334193D01*
X115592Y334500D01*
D02*
G37*
G36*
X114500D02*
X114408D01*
X113263Y334193D01*
X112237Y333601D01*
X111399Y332763D01*
X110807Y331737D01*
X110500Y330592D01*
Y330500D01*
X114500D01*
Y334500D01*
D02*
G37*
G36*
X205540Y334100D02*
X204460D01*
X203417Y333821D01*
X202483Y333281D01*
X201719Y332518D01*
X201179Y331582D01*
X200900Y330540D01*
Y329460D01*
X201179Y328417D01*
X201719Y327483D01*
X202483Y326719D01*
X203417Y326179D01*
X204460Y325900D01*
X205540D01*
X206582Y326179D01*
X207518Y326719D01*
X208281Y327483D01*
X208821Y328417D01*
X209100Y329460D01*
Y330540D01*
X208821Y331582D01*
X208281Y332518D01*
X207518Y333281D01*
X206582Y333821D01*
X205540Y334100D01*
D02*
G37*
G36*
X195540D02*
X194460D01*
X193418Y333821D01*
X192482Y333281D01*
X191719Y332518D01*
X191179Y331582D01*
X190900Y330540D01*
Y329460D01*
X191179Y328417D01*
X191719Y327483D01*
X192482Y326719D01*
X193418Y326179D01*
X194460Y325900D01*
X195540D01*
X196582Y326179D01*
X197518Y326719D01*
X198281Y327483D01*
X198821Y328417D01*
X199100Y329460D01*
Y330540D01*
X198821Y331582D01*
X198281Y332518D01*
X197518Y333281D01*
X196582Y333821D01*
X195540Y334100D01*
D02*
G37*
G36*
X185540D02*
X184460D01*
X183417Y333821D01*
X182483Y333281D01*
X181719Y332518D01*
X181179Y331582D01*
X180900Y330540D01*
Y329460D01*
X181179Y328417D01*
X181719Y327483D01*
X182483Y326719D01*
X183417Y326179D01*
X184460Y325900D01*
X185540D01*
X186583Y326179D01*
X187517Y326719D01*
X188281Y327483D01*
X188821Y328417D01*
X189100Y329460D01*
Y330540D01*
X188821Y331582D01*
X188281Y332518D01*
X187517Y333281D01*
X186583Y333821D01*
X185540Y334100D01*
D02*
G37*
G36*
X145540D02*
X144460D01*
X143418Y333821D01*
X142482Y333281D01*
X141719Y332518D01*
X141179Y331582D01*
X140900Y330540D01*
Y329460D01*
X141179Y328417D01*
X141719Y327483D01*
X142482Y326719D01*
X143418Y326179D01*
X144460Y325900D01*
X145540D01*
X146582Y326179D01*
X147518Y326719D01*
X148281Y327483D01*
X148821Y328417D01*
X149100Y329460D01*
Y330540D01*
X148821Y331582D01*
X148281Y332518D01*
X147518Y333281D01*
X146582Y333821D01*
X145540Y334100D01*
D02*
G37*
G36*
X105540D02*
X104460D01*
X103418Y333821D01*
X102482Y333281D01*
X101719Y332518D01*
X101179Y331582D01*
X100900Y330540D01*
Y329460D01*
X101179Y328417D01*
X101719Y327483D01*
X102482Y326719D01*
X103418Y326179D01*
X104460Y325900D01*
X105540D01*
X106582Y326179D01*
X107518Y326719D01*
X108281Y327483D01*
X108821Y328417D01*
X109100Y329460D01*
Y330540D01*
X108821Y331582D01*
X108281Y332518D01*
X107518Y333281D01*
X106582Y333821D01*
X105540Y334100D01*
D02*
G37*
G36*
X85540D02*
X84460D01*
X83417Y333821D01*
X82482Y333281D01*
X81719Y332518D01*
X81179Y331582D01*
X80900Y330540D01*
Y329460D01*
X81179Y328417D01*
X81719Y327483D01*
X82482Y326719D01*
X83417Y326179D01*
X84460Y325900D01*
X85540D01*
X86582Y326179D01*
X87517Y326719D01*
X88281Y327483D01*
X88821Y328417D01*
X89100Y329460D01*
Y330540D01*
X88821Y331582D01*
X88281Y332518D01*
X87517Y333281D01*
X86582Y333821D01*
X85540Y334100D01*
D02*
G37*
G36*
X75540D02*
X74460D01*
X73418Y333821D01*
X72483Y333281D01*
X71719Y332518D01*
X71179Y331582D01*
X70900Y330540D01*
Y329460D01*
X71179Y328417D01*
X71719Y327483D01*
X72483Y326719D01*
X73418Y326179D01*
X74460Y325900D01*
X75540D01*
X76582Y326179D01*
X77517Y326719D01*
X78281Y327483D01*
X78821Y328417D01*
X79100Y329460D01*
Y330540D01*
X78821Y331582D01*
X78281Y332518D01*
X77517Y333281D01*
X76582Y333821D01*
X75540Y334100D01*
D02*
G37*
G36*
X65540D02*
X64460D01*
X63418Y333821D01*
X62483Y333281D01*
X61719Y332518D01*
X61179Y331582D01*
X60900Y330540D01*
Y329460D01*
X61179Y328417D01*
X61719Y327483D01*
X62483Y326719D01*
X63418Y326179D01*
X64460Y325900D01*
X65540D01*
X66583Y326179D01*
X67518Y326719D01*
X68281Y327483D01*
X68821Y328417D01*
X69100Y329460D01*
Y330540D01*
X68821Y331582D01*
X68281Y332518D01*
X67518Y333281D01*
X66583Y333821D01*
X65540Y334100D01*
D02*
G37*
G36*
X55540D02*
X54460D01*
X53417Y333821D01*
X52482Y333281D01*
X51719Y332518D01*
X51179Y331582D01*
X50900Y330540D01*
Y329460D01*
X51179Y328417D01*
X51719Y327483D01*
X52482Y326719D01*
X53417Y326179D01*
X54460Y325900D01*
X55540D01*
X56582Y326179D01*
X57517Y326719D01*
X58281Y327483D01*
X58821Y328417D01*
X59100Y329460D01*
Y330540D01*
X58821Y331582D01*
X58281Y332518D01*
X57517Y333281D01*
X56582Y333821D01*
X55540Y334100D01*
D02*
G37*
G36*
X45540D02*
X44460D01*
X43418Y333821D01*
X42483Y333281D01*
X41719Y332518D01*
X41179Y331582D01*
X40900Y330540D01*
Y329460D01*
X41179Y328417D01*
X41719Y327483D01*
X42483Y326719D01*
X43418Y326179D01*
X44460Y325900D01*
X45540D01*
X46582Y326179D01*
X47517Y326719D01*
X48281Y327483D01*
X48821Y328417D01*
X49100Y329460D01*
Y330540D01*
X48821Y331582D01*
X48281Y332518D01*
X47517Y333281D01*
X46582Y333821D01*
X45540Y334100D01*
D02*
G37*
G36*
X35540D02*
X34460D01*
X33417Y333821D01*
X32482Y333281D01*
X31719Y332518D01*
X31179Y331582D01*
X30900Y330540D01*
Y329460D01*
X31179Y328417D01*
X31719Y327483D01*
X32482Y326719D01*
X33417Y326179D01*
X34460Y325900D01*
X35540D01*
X36582Y326179D01*
X37517Y326719D01*
X38281Y327483D01*
X38821Y328417D01*
X39100Y329460D01*
Y330540D01*
X38821Y331582D01*
X38281Y332518D01*
X37517Y333281D01*
X36582Y333821D01*
X35540Y334100D01*
D02*
G37*
G36*
X25540D02*
X24460D01*
X23417Y333821D01*
X22482Y333281D01*
X21719Y332518D01*
X21179Y331582D01*
X20900Y330540D01*
Y329460D01*
X21179Y328417D01*
X21719Y327483D01*
X22482Y326719D01*
X23417Y326179D01*
X24460Y325900D01*
X25540D01*
X26583Y326179D01*
X27518Y326719D01*
X28281Y327483D01*
X28821Y328417D01*
X29100Y329460D01*
Y330540D01*
X28821Y331582D01*
X28281Y332518D01*
X27518Y333281D01*
X26583Y333821D01*
X25540Y334100D01*
D02*
G37*
G36*
X119500Y329500D02*
X115500D01*
Y325500D01*
X115592D01*
X116737Y325807D01*
X117763Y326399D01*
X118601Y327237D01*
X119193Y328263D01*
X119500Y329408D01*
Y329500D01*
D02*
G37*
G36*
X114500D02*
X110500D01*
Y329408D01*
X110807Y328263D01*
X111399Y327237D01*
X112237Y326399D01*
X113263Y325807D01*
X114408Y325500D01*
X114500D01*
Y329500D01*
D02*
G37*
G36*
X573347Y326774D02*
X568827D01*
X568245Y326658D01*
X567751Y326328D01*
X567421Y325835D01*
X567307Y325261D01*
X573347D01*
Y326774D01*
D02*
G37*
G36*
X553514Y389522D02*
X553514Y389522D01*
X494886D01*
X494457Y389436D01*
X494093Y389193D01*
X494093Y389193D01*
X493507Y388607D01*
X493264Y388243D01*
X493178Y387814D01*
X493178Y387814D01*
Y377804D01*
X493016Y377695D01*
X492622Y377106D01*
X492484Y376411D01*
Y371293D01*
X492622Y370598D01*
X493016Y370009D01*
X493605Y369615D01*
X494300Y369477D01*
X494995Y369615D01*
X495584Y370009D01*
X495978Y370598D01*
X496116Y371293D01*
Y376411D01*
X495978Y377106D01*
X495584Y377695D01*
X495422Y377804D01*
Y387279D01*
X552978D01*
Y321369D01*
X552066Y320924D01*
X552015Y320918D01*
X551992Y320942D01*
X551285Y321350D01*
X550496Y321561D01*
X549680D01*
X548892Y321350D01*
X548185Y320942D01*
X547608Y320365D01*
X547199Y319658D01*
X547080Y319211D01*
X546080Y319343D01*
Y335300D01*
Y344543D01*
X545917Y345362D01*
X545453Y346057D01*
X543695Y347814D01*
X543001Y348278D01*
X542181Y348441D01*
X517444D01*
X516441Y349444D01*
Y355348D01*
X516278Y356167D01*
X516116Y356410D01*
Y357907D01*
X515978Y358602D01*
X515584Y359191D01*
X514995Y359585D01*
X514300Y359723D01*
X513605Y359585D01*
X513016Y359191D01*
X512622Y358602D01*
X512484Y357907D01*
X511524D01*
X511355Y358758D01*
X510873Y359480D01*
X510151Y359962D01*
X509800Y360031D01*
Y355348D01*
Y350665D01*
X510151Y350734D01*
X510873Y351217D01*
X511159Y351645D01*
X512159Y351342D01*
Y348557D01*
X512322Y347738D01*
X512786Y347043D01*
X515043Y344786D01*
X515738Y344322D01*
X516557Y344159D01*
X541294D01*
X541797Y343656D01*
Y337441D01*
X530191D01*
Y339050D01*
X523748D01*
X522914Y339450D01*
X522252Y339450D01*
X519461D01*
Y335300D01*
Y331150D01*
X522252D01*
X522914Y331150D01*
X523748Y331550D01*
X530191D01*
Y333159D01*
X541797D01*
Y314369D01*
X533967D01*
Y315750D01*
X520956D01*
Y308250D01*
X533967D01*
Y310086D01*
X543939D01*
X544758Y310249D01*
X545453Y310714D01*
X545638Y310990D01*
X567968D01*
X568040Y310883D01*
X568401Y310641D01*
X568827Y310557D01*
X578866D01*
X579292Y310641D01*
X579654Y310883D01*
X579895Y311244D01*
X579980Y311670D01*
Y312654D01*
X579895Y313081D01*
X579654Y313442D01*
Y314032D01*
X579895Y314393D01*
X579980Y314820D01*
Y315804D01*
X579895Y316230D01*
X579654Y316591D01*
Y317182D01*
X579895Y317543D01*
X579980Y317969D01*
Y318953D01*
X579895Y319380D01*
X579654Y319741D01*
Y320332D01*
X579895Y320693D01*
X579980Y321119D01*
Y322103D01*
X579895Y322529D01*
X579942Y323193D01*
X580272Y323686D01*
X580388Y324269D01*
Y324967D01*
X581110Y325368D01*
X581360Y325408D01*
X581657Y325112D01*
X582528Y324751D01*
X583472D01*
X584343Y325112D01*
X585011Y325779D01*
X585372Y326651D01*
Y327594D01*
X585011Y328466D01*
X584343Y329133D01*
X583472Y329495D01*
X582528D01*
X581657Y329133D01*
X580989Y328466D01*
X580628Y327594D01*
Y326981D01*
X580591Y326946D01*
X579693Y326495D01*
X579449Y326658D01*
X578866Y326774D01*
X574347D01*
Y324761D01*
X573847D01*
Y324261D01*
X567307D01*
X567421Y323686D01*
X567751Y323193D01*
X567798Y322529D01*
X567713Y322103D01*
Y321119D01*
X567798Y320693D01*
X567872Y320583D01*
X567555Y319738D01*
X567428Y319583D01*
X557128D01*
X555222Y321490D01*
Y387814D01*
X555136Y388243D01*
X554893Y388607D01*
X554893Y388607D01*
X554307Y389193D01*
X553943Y389436D01*
X553514Y389522D01*
D02*
G37*
G36*
X65592Y324500D02*
X65500D01*
Y320500D01*
X69500D01*
Y320592D01*
X69193Y321737D01*
X68601Y322763D01*
X67763Y323601D01*
X66737Y324193D01*
X65592Y324500D01*
D02*
G37*
G36*
X64500D02*
X64408D01*
X63263Y324193D01*
X62237Y323601D01*
X61399Y322763D01*
X60807Y321737D01*
X60500Y320592D01*
Y320500D01*
X64500D01*
Y324500D01*
D02*
G37*
G36*
X205540Y324100D02*
X204460D01*
X203417Y323821D01*
X202483Y323281D01*
X201719Y322517D01*
X201179Y321583D01*
X200900Y320540D01*
Y319460D01*
X201179Y318418D01*
X201719Y317482D01*
X202483Y316719D01*
X203417Y316179D01*
X204460Y315900D01*
X205540D01*
X206582Y316179D01*
X207518Y316719D01*
X208281Y317482D01*
X208821Y318418D01*
X209100Y319460D01*
Y320540D01*
X208821Y321583D01*
X208281Y322517D01*
X207518Y323281D01*
X206582Y323821D01*
X205540Y324100D01*
D02*
G37*
G36*
X195540D02*
X194460D01*
X193418Y323821D01*
X192482Y323281D01*
X191719Y322517D01*
X191179Y321583D01*
X190900Y320540D01*
Y319460D01*
X191179Y318418D01*
X191719Y317482D01*
X192482Y316719D01*
X193418Y316179D01*
X194460Y315900D01*
X195540D01*
X196582Y316179D01*
X197518Y316719D01*
X198281Y317482D01*
X198821Y318418D01*
X199100Y319460D01*
Y320540D01*
X198821Y321583D01*
X198281Y322517D01*
X197518Y323281D01*
X196582Y323821D01*
X195540Y324100D01*
D02*
G37*
G36*
X185540D02*
X184460D01*
X183417Y323821D01*
X182483Y323281D01*
X181719Y322517D01*
X181179Y321583D01*
X180900Y320540D01*
Y319460D01*
X181179Y318418D01*
X181719Y317482D01*
X182483Y316719D01*
X183417Y316179D01*
X184460Y315900D01*
X185540D01*
X186583Y316179D01*
X187517Y316719D01*
X188281Y317482D01*
X188821Y318418D01*
X189100Y319460D01*
Y320540D01*
X188821Y321583D01*
X188281Y322517D01*
X187517Y323281D01*
X186583Y323821D01*
X185540Y324100D01*
D02*
G37*
G36*
X175540D02*
X174460D01*
X173417Y323821D01*
X172483Y323281D01*
X171719Y322517D01*
X171179Y321583D01*
X170900Y320540D01*
Y319460D01*
X171179Y318418D01*
X171719Y317482D01*
X172483Y316719D01*
X173417Y316179D01*
X174460Y315900D01*
X175540D01*
X176583Y316179D01*
X177517Y316719D01*
X178281Y317482D01*
X178821Y318418D01*
X179100Y319460D01*
Y320540D01*
X178821Y321583D01*
X178281Y322517D01*
X177517Y323281D01*
X176583Y323821D01*
X175540Y324100D01*
D02*
G37*
G36*
X165540D02*
X164460D01*
X163417Y323821D01*
X162483Y323281D01*
X161719Y322517D01*
X161179Y321583D01*
X160900Y320540D01*
Y319460D01*
X161179Y318418D01*
X161719Y317482D01*
X162483Y316719D01*
X163417Y316179D01*
X164460Y315900D01*
X165540D01*
X166583Y316179D01*
X167517Y316719D01*
X168281Y317482D01*
X168821Y318418D01*
X169100Y319460D01*
Y320540D01*
X168821Y321583D01*
X168281Y322517D01*
X167517Y323281D01*
X166583Y323821D01*
X165540Y324100D01*
D02*
G37*
G36*
X155540D02*
X154460D01*
X153418Y323821D01*
X152482Y323281D01*
X151719Y322517D01*
X151179Y321583D01*
X150900Y320540D01*
Y319460D01*
X151179Y318418D01*
X151719Y317482D01*
X152482Y316719D01*
X153418Y316179D01*
X154460Y315900D01*
X155540D01*
X156582Y316179D01*
X157518Y316719D01*
X158281Y317482D01*
X158821Y318418D01*
X159100Y319460D01*
Y320540D01*
X158821Y321583D01*
X158281Y322517D01*
X157518Y323281D01*
X156582Y323821D01*
X155540Y324100D01*
D02*
G37*
G36*
X145540D02*
X144460D01*
X143418Y323821D01*
X142482Y323281D01*
X141719Y322517D01*
X141179Y321583D01*
X140900Y320540D01*
Y319460D01*
X141179Y318418D01*
X141719Y317482D01*
X142482Y316719D01*
X143418Y316179D01*
X144460Y315900D01*
X145540D01*
X146582Y316179D01*
X147518Y316719D01*
X148281Y317482D01*
X148821Y318418D01*
X149100Y319460D01*
Y320540D01*
X148821Y321583D01*
X148281Y322517D01*
X147518Y323281D01*
X146582Y323821D01*
X145540Y324100D01*
D02*
G37*
G36*
X125540D02*
X124460D01*
X123417Y323821D01*
X122483Y323281D01*
X121719Y322517D01*
X121179Y321583D01*
X120900Y320540D01*
Y319460D01*
X121179Y318418D01*
X121719Y317482D01*
X122483Y316719D01*
X123417Y316179D01*
X124460Y315900D01*
X125540D01*
X126583Y316179D01*
X127517Y316719D01*
X128281Y317482D01*
X128821Y318418D01*
X129100Y319460D01*
Y320540D01*
X128821Y321583D01*
X128281Y322517D01*
X127517Y323281D01*
X126583Y323821D01*
X125540Y324100D01*
D02*
G37*
G36*
X115540D02*
X114460D01*
X113417Y323821D01*
X112483Y323281D01*
X111719Y322517D01*
X111179Y321583D01*
X110900Y320540D01*
Y319460D01*
X111179Y318418D01*
X111719Y317482D01*
X112483Y316719D01*
X113417Y316179D01*
X114460Y315900D01*
X115540D01*
X116583Y316179D01*
X117517Y316719D01*
X118281Y317482D01*
X118821Y318418D01*
X119100Y319460D01*
Y320540D01*
X118821Y321583D01*
X118281Y322517D01*
X117517Y323281D01*
X116583Y323821D01*
X115540Y324100D01*
D02*
G37*
G36*
X105540D02*
X104460D01*
X103418Y323821D01*
X102482Y323281D01*
X101719Y322517D01*
X101179Y321583D01*
X100900Y320540D01*
Y319460D01*
X101179Y318418D01*
X101719Y317482D01*
X102482Y316719D01*
X103418Y316179D01*
X104460Y315900D01*
X105540D01*
X106582Y316179D01*
X107518Y316719D01*
X108281Y317482D01*
X108821Y318418D01*
X109100Y319460D01*
Y320540D01*
X108821Y321583D01*
X108281Y322517D01*
X107518Y323281D01*
X106582Y323821D01*
X105540Y324100D01*
D02*
G37*
G36*
X95540D02*
X94460D01*
X93418Y323821D01*
X92483Y323281D01*
X91719Y322517D01*
X91179Y321583D01*
X90900Y320540D01*
Y319460D01*
X91179Y318418D01*
X91719Y317482D01*
X92483Y316719D01*
X93418Y316179D01*
X94460Y315900D01*
X95540D01*
X96583Y316179D01*
X97518Y316719D01*
X98281Y317482D01*
X98821Y318418D01*
X99100Y319460D01*
Y320540D01*
X98821Y321583D01*
X98281Y322517D01*
X97518Y323281D01*
X96583Y323821D01*
X95540Y324100D01*
D02*
G37*
G36*
X85540D02*
X84460D01*
X83417Y323821D01*
X82482Y323281D01*
X81719Y322517D01*
X81179Y321583D01*
X80900Y320540D01*
Y319460D01*
X81179Y318418D01*
X81719Y317482D01*
X82482Y316719D01*
X83417Y316179D01*
X84460Y315900D01*
X85540D01*
X86582Y316179D01*
X87517Y316719D01*
X88281Y317482D01*
X88821Y318418D01*
X89100Y319460D01*
Y320540D01*
X88821Y321583D01*
X88281Y322517D01*
X87517Y323281D01*
X86582Y323821D01*
X85540Y324100D01*
D02*
G37*
G36*
X75540D02*
X74460D01*
X73418Y323821D01*
X72483Y323281D01*
X71719Y322517D01*
X71179Y321583D01*
X70900Y320540D01*
Y319460D01*
X71179Y318418D01*
X71719Y317482D01*
X72483Y316719D01*
X73418Y316179D01*
X74460Y315900D01*
X75540D01*
X76582Y316179D01*
X77517Y316719D01*
X78281Y317482D01*
X78821Y318418D01*
X79100Y319460D01*
Y320540D01*
X78821Y321583D01*
X78281Y322517D01*
X77517Y323281D01*
X76582Y323821D01*
X75540Y324100D01*
D02*
G37*
G36*
X45540D02*
X44460D01*
X43418Y323821D01*
X42483Y323281D01*
X41719Y322517D01*
X41179Y321583D01*
X40900Y320540D01*
Y319460D01*
X41179Y318418D01*
X41719Y317482D01*
X42483Y316719D01*
X43418Y316179D01*
X44460Y315900D01*
X45540D01*
X46582Y316179D01*
X47517Y316719D01*
X48281Y317482D01*
X48821Y318418D01*
X49100Y319460D01*
Y320540D01*
X48821Y321583D01*
X48281Y322517D01*
X47517Y323281D01*
X46582Y323821D01*
X45540Y324100D01*
D02*
G37*
G36*
X35540D02*
X34460D01*
X33417Y323821D01*
X32482Y323281D01*
X31719Y322517D01*
X31179Y321583D01*
X30900Y320540D01*
Y319460D01*
X31179Y318418D01*
X31719Y317482D01*
X32482Y316719D01*
X33417Y316179D01*
X34460Y315900D01*
X35540D01*
X36582Y316179D01*
X37517Y316719D01*
X38281Y317482D01*
X38821Y318418D01*
X39100Y319460D01*
Y320540D01*
X38821Y321583D01*
X38281Y322517D01*
X37517Y323281D01*
X36582Y323821D01*
X35540Y324100D01*
D02*
G37*
G36*
X69500Y319500D02*
X65500D01*
Y315500D01*
X65592D01*
X66737Y315807D01*
X67763Y316399D01*
X68601Y317237D01*
X69193Y318263D01*
X69500Y319408D01*
Y319500D01*
D02*
G37*
G36*
X64500D02*
X60500D01*
Y319408D01*
X60807Y318263D01*
X61399Y317237D01*
X62237Y316399D01*
X63263Y315807D01*
X64408Y315500D01*
X64500D01*
Y319500D01*
D02*
G37*
G36*
X517044Y316150D02*
X510639D01*
Y312500D01*
X517044D01*
Y316150D01*
D02*
G37*
G36*
X509639D02*
X503233D01*
Y312500D01*
X509639D01*
Y316150D01*
D02*
G37*
G36*
X517044Y311500D02*
X510639D01*
Y307850D01*
X517044D01*
Y311500D01*
D02*
G37*
G36*
X509639D02*
X503233D01*
Y307850D01*
X509639D01*
Y311500D01*
D02*
G37*
G36*
X583472Y312172D02*
X582528D01*
X581657Y311811D01*
X580989Y311143D01*
X580628Y310272D01*
Y309328D01*
X580989Y308457D01*
X581657Y307789D01*
X582528Y307428D01*
X583472D01*
X584343Y307789D01*
X585011Y308457D01*
X585372Y309328D01*
Y310272D01*
X585011Y311143D01*
X584343Y311811D01*
X583472Y312172D01*
D02*
G37*
G36*
X589980Y304133D02*
X584624D01*
X583836Y304029D01*
X583102Y303725D01*
X582472Y303242D01*
X582216Y302908D01*
X581957Y302828D01*
X581287D01*
X581029Y302908D01*
X580772Y303242D01*
X580142Y303725D01*
X579408Y304029D01*
X578620Y304133D01*
X574248D01*
Y299072D01*
Y294010D01*
X578620D01*
X579408Y294114D01*
X580142Y294418D01*
X580772Y294902D01*
X581029Y295236D01*
X581287Y295315D01*
X581957D01*
X582216Y295236D01*
X582472Y294902D01*
X583102Y294418D01*
X583836Y294114D01*
X584624Y294010D01*
X589980D01*
Y299072D01*
Y304133D01*
D02*
G37*
G36*
X573248D02*
X568876D01*
X568088Y304029D01*
X567354Y303725D01*
X566724Y303242D01*
X566240Y302611D01*
X565936Y301877D01*
X565832Y301089D01*
Y299572D01*
X573248D01*
Y304133D01*
D02*
G37*
G36*
Y298572D02*
X565832D01*
Y297054D01*
X565936Y296266D01*
X566240Y295532D01*
X566724Y294902D01*
X567354Y294418D01*
X568088Y294114D01*
X568876Y294010D01*
X573248D01*
Y298572D01*
D02*
G37*
G36*
X487477Y281450D02*
Y277800D01*
X490930D01*
Y281450D01*
X487477D01*
D02*
G37*
G36*
X435461D02*
X432009D01*
Y277800D01*
X435461D01*
Y281450D01*
D02*
G37*
G36*
X229700Y343222D02*
X229700Y343221D01*
X165586D01*
X165157Y343136D01*
X164793Y342893D01*
X164793Y342893D01*
X164207Y342307D01*
X163964Y341943D01*
X163878Y341514D01*
X163878Y341514D01*
Y333944D01*
X163417Y333821D01*
X162483Y333281D01*
X161719Y332518D01*
X161179Y331582D01*
X160900Y330540D01*
Y329460D01*
X161179Y328417D01*
X161719Y327483D01*
X162483Y326719D01*
X163417Y326179D01*
X164460Y325900D01*
X165540D01*
X166583Y326179D01*
X167517Y326719D01*
X168281Y327483D01*
X168821Y328417D01*
X169100Y329460D01*
Y330540D01*
X168821Y331582D01*
X168281Y332518D01*
X167517Y333281D01*
X166583Y333821D01*
X166122Y333944D01*
Y340979D01*
X229235D01*
X230079Y340135D01*
Y278465D01*
X229135Y277521D01*
X149586D01*
X149157Y277436D01*
X148793Y277193D01*
X148793Y277193D01*
X148207Y276607D01*
X147964Y276243D01*
X147878Y275814D01*
X147878Y275814D01*
Y242609D01*
X147803Y242589D01*
X147097Y242181D01*
X146519Y241603D01*
X146111Y240897D01*
X145900Y240108D01*
Y239292D01*
X146111Y238503D01*
X146519Y237797D01*
X147097Y237219D01*
X147803Y236811D01*
X148592Y236600D01*
X149408D01*
X150197Y236811D01*
X150903Y237219D01*
X151481Y237797D01*
X151889Y238503D01*
X152100Y239292D01*
Y240108D01*
X151889Y240897D01*
X151481Y241603D01*
X150903Y242181D01*
X150197Y242589D01*
X150122Y242609D01*
Y275278D01*
X229600D01*
X229600Y275278D01*
X230029Y275364D01*
X230393Y275607D01*
X231993Y277207D01*
X231993Y277207D01*
X232236Y277571D01*
X232322Y278000D01*
X232322Y278000D01*
Y340600D01*
X232322Y340600D01*
X232236Y341029D01*
X231993Y341393D01*
X230493Y342893D01*
X230129Y343136D01*
X229700Y343222D01*
D02*
G37*
G36*
X490930Y276800D02*
X487477D01*
Y273150D01*
X490930D01*
Y276800D01*
D02*
G37*
G36*
X435461Y276800D02*
X432009D01*
Y273150D01*
X435461D01*
Y276800D01*
D02*
G37*
G36*
X245708Y382100D02*
X244892D01*
X244103Y381889D01*
X243397Y381481D01*
X242819Y380903D01*
X242411Y380197D01*
X242200Y379408D01*
Y378592D01*
X242411Y377803D01*
X242819Y377097D01*
X243397Y376519D01*
X244103Y376111D01*
X244179Y376091D01*
Y374468D01*
X244178Y374468D01*
X244264Y374039D01*
X244507Y373675D01*
X249179Y369003D01*
Y257865D01*
X248235Y256922D01*
X236609D01*
X236589Y256997D01*
X236181Y257703D01*
X235603Y258281D01*
X234897Y258689D01*
X234108Y258900D01*
X233292D01*
X232503Y258689D01*
X231797Y258281D01*
X231219Y257703D01*
X230811Y256997D01*
X230600Y256208D01*
Y255392D01*
X230811Y254603D01*
X231219Y253897D01*
X231797Y253319D01*
X232503Y252911D01*
X233292Y252700D01*
X234108D01*
X234897Y252911D01*
X235603Y253319D01*
X236181Y253897D01*
X236589Y254603D01*
X236609Y254679D01*
X248700D01*
X248700Y254678D01*
X249129Y254764D01*
X249493Y255007D01*
X251093Y256607D01*
X251093Y256607D01*
X251336Y256971D01*
X251422Y257400D01*
X251421Y257400D01*
Y369468D01*
X251422Y369468D01*
X251336Y369897D01*
X251093Y370261D01*
X251093Y370261D01*
X246422Y374932D01*
Y376091D01*
X246497Y376111D01*
X247203Y376519D01*
X247781Y377097D01*
X248189Y377803D01*
X248400Y378592D01*
Y379408D01*
X248189Y380197D01*
X247781Y380903D01*
X247203Y381481D01*
X246497Y381889D01*
X245708Y382100D01*
D02*
G37*
G36*
X29100Y324100D02*
X20900D01*
Y315900D01*
X23578D01*
Y252300D01*
X23578Y252300D01*
X23664Y251871D01*
X23907Y251507D01*
X24807Y250607D01*
X24807Y250607D01*
X25171Y250364D01*
X25600Y250278D01*
X107898D01*
X107918Y250203D01*
X108326Y249497D01*
X108903Y248919D01*
X109610Y248511D01*
X110399Y248300D01*
X111215D01*
X112003Y248511D01*
X112710Y248919D01*
X113287Y249497D01*
X113695Y250203D01*
X113907Y250992D01*
Y251808D01*
X113695Y252597D01*
X113287Y253303D01*
X112710Y253881D01*
X112003Y254289D01*
X111215Y254500D01*
X110399D01*
X109610Y254289D01*
X108903Y253881D01*
X108326Y253303D01*
X107918Y252597D01*
X107898Y252521D01*
X26065D01*
X25822Y252765D01*
Y315900D01*
X29100D01*
Y324100D01*
D02*
G37*
G36*
X559819Y244554D02*
X556858D01*
Y241200D01*
X559819D01*
Y244554D01*
D02*
G37*
G36*
X555858D02*
X552898D01*
Y241200D01*
X555858D01*
Y244554D01*
D02*
G37*
G36*
X559819Y240200D02*
X556858D01*
Y236846D01*
X559819D01*
Y240200D01*
D02*
G37*
G36*
X555858D02*
X552898D01*
Y236846D01*
X555858D01*
Y240200D01*
D02*
G37*
G36*
X373000Y252049D02*
X371020Y251854D01*
X369116Y251276D01*
X367362Y250339D01*
X365824Y249076D01*
X364562Y247538D01*
X363624Y245784D01*
X363046Y243880D01*
X362851Y241900D01*
X363046Y239920D01*
X363624Y238016D01*
X364562Y236262D01*
X365824Y234724D01*
X367362Y233461D01*
X369116Y232524D01*
X371020Y231946D01*
X373000Y231751D01*
X374980Y231946D01*
X376884Y232524D01*
X378638Y233461D01*
X380176Y234724D01*
X381438Y236262D01*
X382376Y238016D01*
X382954Y239920D01*
X383149Y241900D01*
X382954Y243880D01*
X382376Y245784D01*
X381438Y247538D01*
X380176Y249076D01*
X378638Y250339D01*
X376884Y251276D01*
X374980Y251854D01*
X373000Y252049D01*
D02*
G37*
G36*
X267882D02*
X265902Y251854D01*
X263998Y251276D01*
X262244Y250339D01*
X260706Y249076D01*
X259443Y247538D01*
X258506Y245784D01*
X257928Y243880D01*
X257733Y241900D01*
X257928Y239920D01*
X258506Y238016D01*
X259443Y236262D01*
X260706Y234724D01*
X262244Y233461D01*
X263998Y232524D01*
X265902Y231946D01*
X267882Y231751D01*
X269862Y231946D01*
X271766Y232524D01*
X273520Y233461D01*
X275058Y234724D01*
X276320Y236262D01*
X277258Y238016D01*
X277836Y239920D01*
X278031Y241900D01*
X277836Y243880D01*
X277258Y245784D01*
X276320Y247538D01*
X275058Y249076D01*
X273520Y250339D01*
X271766Y251276D01*
X269862Y251854D01*
X267882Y252049D01*
D02*
G37*
G36*
X575943Y265441D02*
X528898D01*
X528078Y265278D01*
X527384Y264814D01*
X524686Y262116D01*
X524222Y261422D01*
X524059Y260602D01*
Y248621D01*
X524097Y248427D01*
Y236600D01*
X524260Y235781D01*
X524725Y235086D01*
X525076Y234851D01*
Y226924D01*
X524076Y226510D01*
X518722Y231865D01*
Y241931D01*
X518636Y242360D01*
X518393Y242723D01*
X518029Y242967D01*
X517600Y243052D01*
X431070D01*
X430640Y242967D01*
X430276Y242723D01*
X430276Y242723D01*
X429607Y242054D01*
X429364Y241690D01*
X429278Y241261D01*
X429278Y241261D01*
Y166609D01*
X429203Y166589D01*
X428497Y166181D01*
X427919Y165603D01*
X427511Y164897D01*
X427300Y164108D01*
Y163292D01*
X427511Y162503D01*
X427919Y161797D01*
X428497Y161219D01*
X429203Y160811D01*
X429992Y160600D01*
X430808D01*
X431597Y160811D01*
X432303Y161219D01*
X432881Y161797D01*
X433289Y162503D01*
X433500Y163292D01*
Y164108D01*
X433289Y164897D01*
X432881Y165603D01*
X432303Y166181D01*
X431597Y166589D01*
X431522Y166609D01*
Y240796D01*
X431534Y240809D01*
X516478D01*
Y231400D01*
X516478Y231400D01*
X516564Y230971D01*
X516807Y230607D01*
X522517Y224897D01*
Y218284D01*
X522319Y218077D01*
X521580Y217645D01*
Y213509D01*
Y209422D01*
X521815Y209469D01*
X522439Y209886D01*
X522612Y210145D01*
X523059Y209846D01*
X523639Y209731D01*
X524218Y209846D01*
X524918Y210099D01*
X525618Y209846D01*
X526198Y209731D01*
X526777Y209846D01*
X527477Y210099D01*
X528177Y209846D01*
X528757Y209731D01*
X529336Y209846D01*
X530036Y210099D01*
X530736Y209846D01*
X531316Y209731D01*
X531895Y209846D01*
X532387Y210174D01*
X532715Y210666D01*
X532772Y210953D01*
X532828Y211003D01*
X533529Y211324D01*
X533831Y211357D01*
X534176Y211127D01*
X534995Y210964D01*
X574491D01*
X574619Y210741D01*
X575336Y210024D01*
X576214Y209517D01*
X577193Y209255D01*
X578207D01*
X579186Y209517D01*
X580064Y210024D01*
X580781Y210741D01*
X581288Y211619D01*
X581550Y212598D01*
Y213612D01*
X581288Y214591D01*
X580781Y215469D01*
X580064Y216185D01*
X579186Y216692D01*
X578207Y216955D01*
X577193D01*
X576214Y216692D01*
X575336Y216185D01*
X574619Y215469D01*
X574491Y215246D01*
X534995D01*
X534176Y215083D01*
X533831Y214852D01*
X532831Y215308D01*
Y215773D01*
X532715Y216353D01*
X532387Y216845D01*
X531895Y217173D01*
X531316Y217288D01*
X530878Y217201D01*
X530487Y217356D01*
X529878Y217802D01*
Y226278D01*
X533424D01*
X533686Y225886D01*
X534381Y225422D01*
X535200Y225259D01*
X545743D01*
X546562Y225422D01*
X547257Y225886D01*
X549014Y227643D01*
X549478Y228338D01*
X549641Y229157D01*
Y237246D01*
X550561D01*
Y244154D01*
X544439D01*
Y237246D01*
X545359D01*
Y230044D01*
X544856Y229541D01*
X535200D01*
X534381Y229378D01*
X533686Y228914D01*
X533424Y228521D01*
X529343D01*
X528913Y228436D01*
X528549Y228193D01*
X528549Y228193D01*
X528319Y227963D01*
X527319Y228377D01*
Y234796D01*
X527753Y235086D01*
X528217Y235781D01*
X528380Y236600D01*
Y248582D01*
X528341Y248776D01*
Y259716D01*
X529784Y261159D01*
X575056D01*
X575559Y260656D01*
Y226314D01*
X575336Y226185D01*
X574619Y225469D01*
X574112Y224591D01*
X573850Y223612D01*
Y222598D01*
X574112Y221619D01*
X574619Y220741D01*
X575336Y220024D01*
X576214Y219517D01*
X577193Y219255D01*
X578207D01*
X579186Y219517D01*
X580064Y220024D01*
X580781Y220741D01*
X581288Y221619D01*
X581550Y222598D01*
Y223612D01*
X581288Y224591D01*
X580781Y225469D01*
X580064Y226185D01*
X579841Y226314D01*
Y261543D01*
X579678Y262362D01*
X579214Y263057D01*
X577457Y264814D01*
X576762Y265278D01*
X575943Y265441D01*
D02*
G37*
G36*
X359932Y368634D02*
X352232D01*
Y360934D01*
X353950D01*
Y223134D01*
X353619Y222803D01*
X353211Y222097D01*
X353000Y221308D01*
Y220492D01*
X353211Y219703D01*
X353619Y218997D01*
X354197Y218419D01*
X354903Y218011D01*
X355692Y217800D01*
X356508D01*
X357297Y218011D01*
X358003Y218419D01*
X358581Y218997D01*
X358989Y219703D01*
X359200Y220492D01*
Y221308D01*
X358989Y222097D01*
X358581Y222803D01*
X358232Y223152D01*
Y360934D01*
X359932D01*
Y368634D01*
D02*
G37*
G36*
X461408Y228800D02*
X460592D01*
X459803Y228589D01*
X459097Y228181D01*
X458519Y227603D01*
X458111Y226897D01*
X457900Y226108D01*
Y225292D01*
X458111Y224503D01*
X458519Y223797D01*
X459097Y223219D01*
X459803Y222811D01*
X460592Y222600D01*
X461408D01*
X462197Y222811D01*
X462903Y223219D01*
X463481Y223797D01*
X463889Y224503D01*
X463909Y224578D01*
X509674D01*
X509722Y224531D01*
Y217802D01*
X509113Y217356D01*
X508722Y217201D01*
X508284Y217288D01*
X507704Y217173D01*
X507213Y216845D01*
X506885Y216353D01*
X506769Y215773D01*
Y213721D01*
X442009D01*
X441989Y213797D01*
X441581Y214503D01*
X441003Y215081D01*
X440297Y215489D01*
X439508Y215700D01*
X438692D01*
X437903Y215489D01*
X437197Y215081D01*
X436619Y214503D01*
X436211Y213797D01*
X436000Y213008D01*
Y212192D01*
X436211Y211403D01*
X436619Y210697D01*
X437197Y210119D01*
X437903Y209711D01*
X438692Y209500D01*
X439508D01*
X440297Y209711D01*
X441003Y210119D01*
X441581Y210697D01*
X441989Y211403D01*
X442009Y211478D01*
X506769D01*
Y211246D01*
X506885Y210666D01*
X507213Y210174D01*
X507704Y209846D01*
X508284Y209731D01*
X508864Y209846D01*
X509564Y210099D01*
X510264Y209846D01*
X510843Y209731D01*
X511281Y209818D01*
X511672Y209663D01*
X512281Y209216D01*
Y207243D01*
X512281Y207243D01*
X512366Y206814D01*
X512609Y206450D01*
X513195Y205864D01*
X513195Y205864D01*
X513559Y205621D01*
X513988Y205536D01*
X514840D01*
Y202541D01*
X481543D01*
X481203Y202881D01*
X480497Y203289D01*
X479708Y203500D01*
X478892D01*
X478103Y203289D01*
X477397Y202881D01*
X476819Y202303D01*
X476411Y201597D01*
X476200Y200808D01*
Y199992D01*
X476411Y199203D01*
X476819Y198497D01*
X477397Y197919D01*
X478103Y197511D01*
X478892Y197300D01*
X479708D01*
X480497Y197511D01*
X481203Y197919D01*
X481543Y198259D01*
X495490D01*
Y183741D01*
X462614D01*
Y185350D01*
X456171D01*
X455337Y185750D01*
X454674Y185750D01*
X451884D01*
Y181600D01*
Y177450D01*
X454674D01*
X455337Y177450D01*
X456171Y177850D01*
X462614D01*
Y179459D01*
X475359D01*
Y111857D01*
X475522Y111038D01*
X475986Y110343D01*
X477743Y108586D01*
X478438Y108122D01*
X479257Y107959D01*
X498256D01*
X498759Y107456D01*
Y7744D01*
X498256Y7241D01*
X447744D01*
X447241Y7744D01*
Y63500D01*
X447078Y64319D01*
X446614Y65014D01*
X443314Y68314D01*
X442619Y68778D01*
X441800Y68941D01*
X418500D01*
X333543Y68941D01*
X333203Y69281D01*
X332497Y69689D01*
X331708Y69900D01*
X330892D01*
X330103Y69689D01*
X329397Y69281D01*
X328819Y68703D01*
X328411Y67997D01*
X328200Y67208D01*
Y66392D01*
X328411Y65603D01*
X328819Y64897D01*
X329397Y64319D01*
X330103Y63911D01*
X330892Y63700D01*
X331708D01*
X332497Y63911D01*
X333203Y64319D01*
X333543Y64659D01*
X416359Y64659D01*
Y32204D01*
X415719Y31564D01*
X415212Y30686D01*
X414950Y29707D01*
Y28693D01*
X415212Y27714D01*
X415719Y26836D01*
X416436Y26119D01*
X417314Y25612D01*
X418293Y25350D01*
X419307D01*
X420286Y25612D01*
X421164Y26119D01*
X421881Y26836D01*
X422388Y27714D01*
X422650Y28693D01*
Y29707D01*
X422388Y30686D01*
X421881Y31564D01*
X421164Y32281D01*
X420641Y32583D01*
Y64659D01*
X440913D01*
X442959Y62613D01*
Y6857D01*
X443122Y6038D01*
X443586Y5343D01*
X445343Y3586D01*
X446038Y3122D01*
X446857Y2959D01*
X499143D01*
X499962Y3122D01*
X500657Y3586D01*
X502414Y5343D01*
X502878Y6038D01*
X503041Y6857D01*
Y108343D01*
X502878Y109162D01*
X502414Y109857D01*
X500657Y111614D01*
X499962Y112078D01*
X499143Y112241D01*
X480144D01*
X479641Y112744D01*
Y179459D01*
X510843D01*
X511322Y179554D01*
X512322Y178951D01*
Y145622D01*
X498586D01*
X498157Y145536D01*
X497793Y145293D01*
X497793Y145293D01*
X497207Y144707D01*
X496964Y144343D01*
X496878Y143914D01*
X496878Y143914D01*
Y135732D01*
X493881D01*
Y129289D01*
X493481Y128455D01*
X493481Y127793D01*
Y125002D01*
X501780D01*
Y127793D01*
X501780Y128455D01*
X501380Y129289D01*
Y135732D01*
X499122D01*
Y143378D01*
X512857D01*
X512857Y143378D01*
X513287Y143464D01*
X513651Y143707D01*
X514236Y144293D01*
X514236Y144293D01*
X514479Y144657D01*
X514565Y145086D01*
Y182677D01*
X514524Y182883D01*
Y184807D01*
X515132Y185254D01*
X515524Y185408D01*
X515961Y185321D01*
X516541Y185437D01*
X517241Y185690D01*
X517941Y185437D01*
X518104Y185404D01*
X518486Y184372D01*
X516507Y182393D01*
X516264Y182029D01*
X516178Y181600D01*
X516178Y181600D01*
Y150100D01*
X516178Y150100D01*
X516264Y149671D01*
X516507Y149307D01*
X519031Y146783D01*
X518938Y146320D01*
Y131750D01*
X514233D01*
Y124250D01*
X518859D01*
Y99391D01*
X517250D01*
Y92949D01*
X516850Y92114D01*
X516850Y91452D01*
Y88661D01*
X521000D01*
Y88161D01*
D01*
Y88661D01*
X525150D01*
Y91452D01*
X525150Y92114D01*
X524870Y92698D01*
X525179Y93420D01*
X525457Y93698D01*
X541454D01*
X541454Y89505D01*
X541454Y88791D01*
Y76602D01*
X542509D01*
Y35425D01*
X541739Y35218D01*
X540461Y34481D01*
X539419Y33439D01*
X538682Y32162D01*
X538300Y30737D01*
Y29263D01*
X538682Y27839D01*
X539419Y26561D01*
X540461Y25519D01*
X541739Y24782D01*
X543163Y24400D01*
X544637D01*
X546062Y24782D01*
X547338Y25519D01*
X548381Y26561D01*
X549118Y27839D01*
X549500Y29263D01*
Y30737D01*
X549118Y32162D01*
X548381Y33439D01*
X547338Y34481D01*
X546791Y34797D01*
Y76602D01*
X549346D01*
Y88791D01*
X549346Y89505D01*
X549346Y90220D01*
Y102409D01*
X541454D01*
Y97980D01*
X524750D01*
Y99391D01*
X523141D01*
Y124250D01*
X527244D01*
Y131750D01*
X523221D01*
Y146320D01*
X523058Y147140D01*
X522593Y147835D01*
X521899Y148299D01*
X521079Y148462D01*
X520617Y148370D01*
X518422Y150565D01*
Y168259D01*
X518986Y168539D01*
X519422Y168602D01*
X519897Y168126D01*
X520603Y167718D01*
X521392Y167507D01*
X522208D01*
X522997Y167718D01*
X523703Y168126D01*
X524076Y168499D01*
X524928Y168253D01*
X525076Y168149D01*
Y164876D01*
X524684Y164614D01*
X524220Y163919D01*
X524056Y163100D01*
X524220Y162281D01*
X524684Y161586D01*
X525378Y161122D01*
X526198Y160959D01*
X575943D01*
X576762Y161122D01*
X577457Y161586D01*
X579214Y163343D01*
X579678Y164038D01*
X579841Y164857D01*
Y189100D01*
X579968Y189255D01*
X581550D01*
Y196955D01*
X573850D01*
Y189255D01*
X575432D01*
X575559Y189100D01*
Y165744D01*
X575056Y165241D01*
X527319D01*
Y168623D01*
X528319Y169037D01*
X528549Y168807D01*
X528913Y168564D01*
X529343Y168478D01*
X529343Y168478D01*
X552724D01*
X552986Y168086D01*
X553681Y167622D01*
X554500Y167459D01*
X555319Y167622D01*
X556014Y168086D01*
X556478Y168781D01*
X556641Y169600D01*
Y192810D01*
X557954D01*
Y198932D01*
X551046D01*
Y192810D01*
X552359D01*
Y170722D01*
X529837D01*
Y175764D01*
X530837Y176178D01*
X531109Y175907D01*
X531109Y175907D01*
X531472Y175664D01*
X531902Y175578D01*
X541741D01*
X541761Y175503D01*
X542169Y174797D01*
X542747Y174219D01*
X543453Y173811D01*
X544242Y173600D01*
X545058D01*
X545847Y173811D01*
X546553Y174219D01*
X547131Y174797D01*
X547539Y175503D01*
X547750Y176292D01*
Y177108D01*
X547539Y177897D01*
X547131Y178603D01*
X546553Y179181D01*
X545847Y179589D01*
X545058Y179800D01*
X544242D01*
X543453Y179589D01*
X542747Y179181D01*
X542169Y178603D01*
X541761Y177897D01*
X541741Y177822D01*
X532437D01*
Y185840D01*
X532715Y186257D01*
X532831Y186836D01*
Y191364D01*
X532715Y191944D01*
X532387Y192435D01*
X531895Y192763D01*
X531316Y192879D01*
X530736Y192763D01*
X530244Y192435D01*
X529828D01*
X529336Y192763D01*
X528757Y192879D01*
X528177Y192763D01*
X527477Y192510D01*
X526777Y192763D01*
X526198Y192879D01*
X525618Y192763D01*
X524918Y192510D01*
X524218Y192763D01*
X523639Y192879D01*
X523059Y192763D01*
X522359Y192510D01*
X521659Y192763D01*
X521079Y192879D01*
X520642Y192792D01*
X520251Y192946D01*
X519642Y193393D01*
Y197000D01*
X519557Y197429D01*
X519313Y197793D01*
X518950Y198036D01*
X518813Y198274D01*
X518595Y199057D01*
X518598Y199089D01*
X518926Y199581D01*
X519089Y200400D01*
X518926Y201219D01*
X518462Y201914D01*
X517767Y202378D01*
X517083Y202514D01*
Y206657D01*
Y209216D01*
X517691Y209663D01*
X518083Y209818D01*
X518520Y209731D01*
X519100Y209846D01*
X519547Y210145D01*
X519720Y209886D01*
X520344Y209469D01*
X520579Y209422D01*
Y213509D01*
Y217597D01*
X520344Y217550D01*
X519720Y217133D01*
X519547Y216874D01*
X519100Y217173D01*
X518520Y217288D01*
X517941Y217173D01*
X517241Y216920D01*
X516541Y217173D01*
X515961Y217288D01*
X515382Y217173D01*
X514682Y216920D01*
X513982Y217173D01*
X513402Y217288D01*
X512965Y217201D01*
X512573Y217356D01*
X511965Y217802D01*
Y224995D01*
X511965Y224995D01*
X511879Y225425D01*
X511636Y225788D01*
X511636Y225788D01*
X510932Y226493D01*
X510568Y226736D01*
X510139Y226822D01*
X510139Y226821D01*
X463909D01*
X463889Y226897D01*
X463481Y227603D01*
X462903Y228181D01*
X462197Y228589D01*
X461408Y228800D01*
D02*
G37*
G36*
X558354Y208190D02*
X555000D01*
Y205229D01*
X558354D01*
Y208190D01*
D02*
G37*
G36*
X554000D02*
X550646D01*
Y205229D01*
X554000D01*
Y208190D01*
D02*
G37*
G36*
X326588Y368634D02*
X325575D01*
X324595Y368372D01*
X323718Y367865D01*
X323001Y367148D01*
X322494Y366270D01*
X322232Y365291D01*
Y364277D01*
X322494Y363298D01*
X323001Y362420D01*
X323718Y361703D01*
X324595Y361196D01*
X324960Y361099D01*
Y327186D01*
X324960Y327186D01*
X325045Y326757D01*
X325289Y326393D01*
X325874Y325807D01*
X325874Y325807D01*
X326238Y325564D01*
X326667Y325479D01*
X337279D01*
Y204967D01*
X336289Y204797D01*
X335881Y205503D01*
X335303Y206081D01*
X334597Y206489D01*
X334522Y206509D01*
Y248572D01*
X334436Y249001D01*
X334193Y249365D01*
X334193Y249365D01*
X332779Y250779D01*
X332415Y251022D01*
X331986Y251107D01*
X331557Y251022D01*
X331556Y251022D01*
X287203D01*
Y361099D01*
X287568Y361196D01*
X288445Y361703D01*
X289162Y362420D01*
X289669Y363298D01*
X289932Y364277D01*
Y365291D01*
X289669Y366270D01*
X289162Y367148D01*
X288445Y367865D01*
X287568Y368372D01*
X286588Y368634D01*
X285575D01*
X284595Y368372D01*
X283718Y367865D01*
X283001Y367148D01*
X282494Y366270D01*
X282232Y365291D01*
Y364277D01*
X282494Y363298D01*
X283001Y362420D01*
X283718Y361703D01*
X284595Y361196D01*
X284960Y361099D01*
Y250486D01*
X284960Y250486D01*
X285045Y250057D01*
X285289Y249693D01*
X285874Y249107D01*
X285874Y249107D01*
X286238Y248864D01*
X286667Y248779D01*
X331607D01*
X332278Y248107D01*
Y206509D01*
X332203Y206489D01*
X331497Y206081D01*
X330919Y205503D01*
X330511Y204797D01*
X330340Y204158D01*
X330300Y204008D01*
X329322Y204060D01*
Y220100D01*
X329322Y220100D01*
X329236Y220529D01*
X328993Y220893D01*
X328193Y221693D01*
X327829Y221936D01*
X327400Y222022D01*
X327400Y222022D01*
X142822D01*
Y297978D01*
X223600D01*
X223600Y297978D01*
X224029Y298064D01*
X224393Y298307D01*
X226993Y300907D01*
X226993Y300907D01*
X227236Y301271D01*
X227322Y301700D01*
X227322Y301700D01*
Y338214D01*
X227236Y338643D01*
X226993Y339007D01*
X226993Y339007D01*
X226407Y339593D01*
X226043Y339836D01*
X225614Y339922D01*
X225614Y339921D01*
X175586D01*
X175157Y339836D01*
X174793Y339593D01*
X174793Y339593D01*
X174207Y339007D01*
X173964Y338643D01*
X173878Y338214D01*
X173878Y338214D01*
Y333944D01*
X173417Y333821D01*
X172483Y333281D01*
X171719Y332518D01*
X171179Y331582D01*
X170900Y330540D01*
Y329460D01*
X171179Y328417D01*
X171719Y327483D01*
X172483Y326719D01*
X173417Y326179D01*
X174460Y325900D01*
X175540D01*
X176583Y326179D01*
X177517Y326719D01*
X178281Y327483D01*
X178821Y328417D01*
X179100Y329460D01*
Y330540D01*
X178821Y331582D01*
X178281Y332518D01*
X177517Y333281D01*
X176583Y333821D01*
X176122Y333944D01*
Y337679D01*
X225079D01*
Y302165D01*
X223135Y300221D01*
X142286D01*
X141857Y300136D01*
X141493Y299893D01*
X141493Y299893D01*
X140907Y299307D01*
X140664Y298943D01*
X140578Y298514D01*
X140578Y298514D01*
Y220900D01*
X140664Y220471D01*
X140907Y220107D01*
X141271Y219864D01*
X141700Y219778D01*
X326935D01*
X327079Y219635D01*
Y172709D01*
X327003Y172689D01*
X326297Y172281D01*
X325719Y171703D01*
X325311Y170997D01*
X325100Y170208D01*
Y169392D01*
X325311Y168603D01*
X325719Y167897D01*
X326297Y167319D01*
X327003Y166911D01*
X327792Y166700D01*
X328608D01*
X329397Y166911D01*
X330103Y167319D01*
X330681Y167897D01*
X331089Y168603D01*
X331300Y169392D01*
Y170208D01*
X331089Y170997D01*
X330681Y171703D01*
X330103Y172281D01*
X329397Y172689D01*
X329322Y172709D01*
Y203140D01*
X330300Y203192D01*
X330340Y203042D01*
X330511Y202403D01*
X330919Y201697D01*
X331497Y201119D01*
X332203Y200711D01*
X332992Y200500D01*
X333808D01*
X334597Y200711D01*
X335303Y201119D01*
X335881Y201697D01*
X336289Y202403D01*
X337279Y202233D01*
Y192009D01*
X337203Y191989D01*
X336497Y191581D01*
X335919Y191003D01*
X335511Y190297D01*
X335300Y189508D01*
Y188692D01*
X335511Y187903D01*
X335919Y187197D01*
X336497Y186619D01*
X337203Y186211D01*
X337992Y186000D01*
X338808D01*
X339597Y186211D01*
X340303Y186619D01*
X340881Y187197D01*
X341289Y187903D01*
X341500Y188692D01*
Y189508D01*
X341289Y190297D01*
X340881Y191003D01*
X340303Y191581D01*
X339597Y191989D01*
X339522Y192009D01*
Y326014D01*
X339436Y326443D01*
X339193Y326807D01*
X339193Y326807D01*
X338607Y327393D01*
X338243Y327636D01*
X337814Y327722D01*
X337814Y327722D01*
X327203D01*
Y361099D01*
X327568Y361196D01*
X328446Y361703D01*
X329162Y362420D01*
X329669Y363298D01*
X329932Y364277D01*
Y365291D01*
X329669Y366270D01*
X329162Y367148D01*
X328446Y367865D01*
X327568Y368372D01*
X326588Y368634D01*
D02*
G37*
G36*
X558354Y204229D02*
X555000D01*
Y201269D01*
X558354D01*
Y204229D01*
D02*
G37*
G36*
X554000D02*
X550646D01*
Y201269D01*
X554000D01*
Y204229D01*
D02*
G37*
G36*
X450884Y185750D02*
X447432D01*
Y182100D01*
X450884D01*
Y185750D01*
D02*
G37*
G36*
X381186Y180050D02*
X380351Y179650D01*
X373909D01*
Y178241D01*
X358343D01*
X357803Y178781D01*
X357097Y179189D01*
X356308Y179400D01*
X355492D01*
X354703Y179189D01*
X353997Y178781D01*
X353419Y178203D01*
X353011Y177497D01*
X352800Y176708D01*
Y175892D01*
X353011Y175103D01*
X353419Y174397D01*
X353997Y173819D01*
X354703Y173411D01*
X355492Y173200D01*
X356308D01*
X357097Y173411D01*
X357803Y173819D01*
X357943Y173959D01*
X373909D01*
Y172150D01*
X375320D01*
Y141744D01*
X373190Y139614D01*
X372928Y139222D01*
X361753D01*
X361644Y139384D01*
X361055Y139778D01*
X360360Y139916D01*
X353667D01*
X352972Y139778D01*
X352383Y139384D01*
X351989Y138795D01*
X351851Y138100D01*
X351989Y137405D01*
X352383Y136816D01*
X352972Y136422D01*
X353667Y136284D01*
X360360D01*
X361055Y136422D01*
X361644Y136816D01*
X361753Y136978D01*
X372928D01*
X373190Y136586D01*
X373885Y136122D01*
X374704Y135959D01*
X375523Y136122D01*
X376218Y136586D01*
X378975Y139343D01*
X379440Y140038D01*
X379603Y140857D01*
Y171443D01*
X379880Y171721D01*
X380603Y172030D01*
X381186Y171750D01*
X381849Y171750D01*
X384639D01*
Y175900D01*
Y180050D01*
X381849D01*
X381186Y180050D01*
D02*
G37*
G36*
X450884Y181100D02*
X447432D01*
Y177450D01*
X450884D01*
Y181100D01*
D02*
G37*
G36*
X385639Y180050D02*
Y176400D01*
X389091D01*
Y180050D01*
X385639D01*
D02*
G37*
G36*
X389091Y175400D02*
X385639D01*
Y171750D01*
X389091D01*
Y175400D01*
D02*
G37*
G36*
X425022Y387200D02*
X424206D01*
X423418Y386989D01*
X422711Y386581D01*
X422134Y386003D01*
X421726Y385297D01*
X421514Y384508D01*
Y383692D01*
X421726Y382903D01*
X422134Y382197D01*
X422711Y381619D01*
X423418Y381211D01*
X423486Y381193D01*
Y173511D01*
X423403Y173489D01*
X422697Y173081D01*
X422119Y172503D01*
X421711Y171797D01*
X421500Y171008D01*
Y170192D01*
X421711Y169403D01*
X422119Y168697D01*
X422697Y168119D01*
X423403Y167711D01*
X424192Y167500D01*
X425008D01*
X425797Y167711D01*
X426503Y168119D01*
X427081Y168697D01*
X427489Y169403D01*
X427700Y170192D01*
Y171008D01*
X427489Y171797D01*
X427081Y172503D01*
X426503Y173081D01*
X425797Y173489D01*
X425729Y173507D01*
Y381189D01*
X425811Y381211D01*
X426518Y381619D01*
X427095Y382197D01*
X427503Y382903D01*
X427714Y383692D01*
Y384508D01*
X427503Y385297D01*
X427095Y386003D01*
X426518Y386581D01*
X425811Y386989D01*
X425022Y387200D01*
D02*
G37*
G36*
X105308Y168600D02*
X104492D01*
X103703Y168389D01*
X102997Y167981D01*
X102419Y167403D01*
X102026Y166722D01*
X14800D01*
X14800Y166722D01*
X14371Y166636D01*
X14007Y166393D01*
X13207Y165593D01*
X12964Y165229D01*
X12878Y164800D01*
X12878Y164800D01*
Y53786D01*
X12878Y53786D01*
X12964Y53357D01*
X13207Y52993D01*
X13793Y52407D01*
X13793Y52407D01*
X14157Y52164D01*
X14586Y52078D01*
X44378D01*
Y14200D01*
X44378Y14200D01*
X44464Y13771D01*
X44707Y13407D01*
X55407Y2707D01*
X55407Y2707D01*
X55771Y2464D01*
X56200Y2378D01*
X56200Y2379D01*
X408214D01*
X408214Y2378D01*
X408643Y2464D01*
X409007Y2707D01*
X409593Y3293D01*
X409593Y3293D01*
X409836Y3657D01*
X409922Y4086D01*
Y25515D01*
X410286Y25612D01*
X411164Y26119D01*
X411881Y26836D01*
X412388Y27714D01*
X412650Y28693D01*
Y29707D01*
X412388Y30686D01*
X411881Y31564D01*
X411164Y32281D01*
X410286Y32788D01*
X409307Y33050D01*
X408293D01*
X407314Y32788D01*
X406436Y32281D01*
X405719Y31564D01*
X405212Y30686D01*
X404950Y29707D01*
Y28693D01*
X405212Y27714D01*
X405719Y26836D01*
X406436Y26119D01*
X407314Y25612D01*
X407679Y25515D01*
Y4622D01*
X56665D01*
X46622Y14665D01*
Y52614D01*
X46536Y53043D01*
X46293Y53407D01*
X46293Y53407D01*
X45707Y53993D01*
X45343Y54236D01*
X44914Y54322D01*
X44914Y54322D01*
X15122D01*
Y164335D01*
X15265Y164478D01*
X101964D01*
X102011Y164303D01*
X102419Y163597D01*
X102997Y163019D01*
X103703Y162611D01*
X104492Y162400D01*
X105308D01*
X106097Y162611D01*
X106803Y163019D01*
X107381Y163597D01*
X107789Y164303D01*
X108000Y165092D01*
Y165908D01*
X107789Y166697D01*
X107381Y167403D01*
X106803Y167981D01*
X106097Y168389D01*
X105308Y168600D01*
D02*
G37*
G36*
X578207Y206955D02*
X577193D01*
X576214Y206692D01*
X575336Y206186D01*
X574619Y205469D01*
X574112Y204591D01*
X573850Y203612D01*
Y202598D01*
X574112Y201619D01*
X574619Y200741D01*
X575336Y200024D01*
X576214Y199517D01*
X577193Y199255D01*
X578207D01*
X579186Y199517D01*
X579778Y199859D01*
X590413D01*
X591659Y198613D01*
Y153744D01*
X589556Y151641D01*
X550843D01*
X550503Y151981D01*
X549797Y152389D01*
X549008Y152600D01*
X548192D01*
X547403Y152389D01*
X546697Y151981D01*
X546119Y151403D01*
X545711Y150697D01*
X545500Y149908D01*
Y149092D01*
X545711Y148303D01*
X546119Y147597D01*
X546697Y147019D01*
X547403Y146611D01*
X548192Y146400D01*
X549008D01*
X549797Y146611D01*
X550503Y147019D01*
X550843Y147359D01*
X590443D01*
X591262Y147522D01*
X591957Y147986D01*
X595314Y151343D01*
X595778Y152038D01*
X595941Y152857D01*
Y199500D01*
X595778Y200319D01*
X595314Y201014D01*
X592814Y203514D01*
X592119Y203978D01*
X591300Y204141D01*
X581408D01*
X581288Y204591D01*
X580781Y205469D01*
X580064Y206186D01*
X579186Y206692D01*
X578207Y206955D01*
D02*
G37*
G36*
X187208Y146700D02*
X186392D01*
X185603Y146489D01*
X184897Y146081D01*
X184557Y145741D01*
X81257D01*
X80438Y145578D01*
X79743Y145114D01*
X77986Y143357D01*
X77522Y142662D01*
X77359Y141843D01*
Y108957D01*
X77522Y108138D01*
X77986Y107443D01*
X79743Y105686D01*
X80438Y105222D01*
X81257Y105059D01*
X102856D01*
X103359Y104556D01*
Y93787D01*
X102482Y93281D01*
X101719Y92518D01*
X101179Y91583D01*
X100900Y90540D01*
Y89460D01*
X101179Y88418D01*
X101719Y87483D01*
X102482Y86719D01*
X103418Y86179D01*
X104460Y85900D01*
X105540D01*
X106582Y86179D01*
X107518Y86719D01*
X108281Y87483D01*
X108821Y88418D01*
X109100Y89460D01*
Y90540D01*
X108821Y91583D01*
X108281Y92518D01*
X107641Y93157D01*
Y105443D01*
X107478Y106262D01*
X107014Y106957D01*
X105257Y108714D01*
X104562Y109178D01*
X103743Y109341D01*
X82144D01*
X81641Y109844D01*
Y140956D01*
X82144Y141459D01*
X184557D01*
X184897Y141119D01*
X185603Y140711D01*
X186392Y140500D01*
X187208D01*
X187997Y140711D01*
X188703Y141119D01*
X189281Y141697D01*
X189689Y142403D01*
X189900Y143192D01*
Y144008D01*
X189689Y144797D01*
X189281Y145503D01*
X188703Y146081D01*
X187997Y146489D01*
X187208Y146700D01*
D02*
G37*
G36*
X135540Y324100D02*
X134460D01*
X133417Y323821D01*
X132483Y323281D01*
X131719Y322517D01*
X131179Y321583D01*
X130900Y320540D01*
Y319460D01*
X131179Y318418D01*
X131719Y317482D01*
X132483Y316719D01*
X133417Y316179D01*
X133878Y316056D01*
Y217900D01*
X133878Y217900D01*
X133964Y217471D01*
X134207Y217107D01*
X135807Y215507D01*
X135807Y215507D01*
X136171Y215264D01*
X136600Y215178D01*
X136600Y215178D01*
X309278D01*
Y138686D01*
X309278Y138686D01*
X309364Y138257D01*
X309607Y137893D01*
X310193Y137307D01*
X310193Y137307D01*
X310557Y137064D01*
X310986Y136978D01*
X316447D01*
X316556Y136816D01*
X317145Y136422D01*
X317840Y136284D01*
X324533D01*
X325228Y136422D01*
X325817Y136816D01*
X326211Y137405D01*
X326349Y138100D01*
X326211Y138795D01*
X325817Y139384D01*
X325228Y139778D01*
X324533Y139916D01*
X317840D01*
X317145Y139778D01*
X316556Y139384D01*
X316447Y139222D01*
X311522D01*
Y215714D01*
X311436Y216143D01*
X311193Y216507D01*
X311193Y216507D01*
X310607Y217093D01*
X310243Y217336D01*
X309814Y217422D01*
X309814Y217422D01*
X137065D01*
X136122Y218365D01*
Y316056D01*
X136583Y316179D01*
X137517Y316719D01*
X138281Y317482D01*
X138821Y318418D01*
X139100Y319460D01*
Y320540D01*
X138821Y321583D01*
X138281Y322517D01*
X137517Y323281D01*
X136583Y323821D01*
X135540Y324100D01*
D02*
G37*
G36*
X544967Y132150D02*
X538561D01*
Y128500D01*
X544967D01*
Y132150D01*
D02*
G37*
G36*
X537561D02*
X531156D01*
Y128500D01*
X537561D01*
Y132150D01*
D02*
G37*
G36*
X544967Y127500D02*
X538561D01*
Y123850D01*
X544967D01*
Y127500D01*
D02*
G37*
G36*
X537561D02*
X531156D01*
Y123850D01*
X537561D01*
Y127500D01*
D02*
G37*
G36*
X439350Y129767D02*
X435700D01*
Y123361D01*
X439350D01*
Y129767D01*
D02*
G37*
G36*
X434700D02*
X431050D01*
Y123361D01*
X434700D01*
Y129767D01*
D02*
G37*
G36*
X501780Y124002D02*
X498131D01*
Y120550D01*
X501780D01*
Y124002D01*
D02*
G37*
G36*
X497131D02*
X493481D01*
Y120550D01*
X497131D01*
Y124002D01*
D02*
G37*
G36*
X362484Y122600D02*
X357013D01*
X351543D01*
X351612Y122249D01*
X352094Y121528D01*
X352667Y121145D01*
X352749Y120600D01*
X352667Y120055D01*
X352094Y119673D01*
X351612Y118951D01*
X351543Y118600D01*
X357013D01*
X362484D01*
X362414Y118951D01*
X361932Y119673D01*
X361359Y120055D01*
X361278Y120600D01*
X361359Y121145D01*
X361932Y121528D01*
X362414Y122249D01*
X362484Y122600D01*
D02*
G37*
G36*
X326658Y122600D02*
X321187D01*
X315716D01*
X315786Y122249D01*
X316268Y121528D01*
X316841Y121145D01*
X316922Y120600D01*
X316841Y120055D01*
X316268Y119673D01*
X315786Y118951D01*
X315716Y118600D01*
X321187D01*
X326658D01*
X326588Y118951D01*
X326106Y119673D01*
X325533Y120055D01*
X325451Y120600D01*
X325533Y121145D01*
X326106Y121528D01*
X326588Y122249D01*
X326658Y122600D01*
D02*
G37*
G36*
X419050Y119553D02*
X415400D01*
Y116100D01*
X419050D01*
Y119553D01*
D02*
G37*
G36*
X414400D02*
X410750D01*
Y116100D01*
X414400D01*
Y119553D01*
D02*
G37*
G36*
X439350Y122361D02*
X435700D01*
Y115956D01*
X439350D01*
Y122361D01*
D02*
G37*
G36*
X434700D02*
X431050D01*
Y115956D01*
X434700D01*
Y122361D01*
D02*
G37*
G36*
X362484Y117600D02*
X357013D01*
X351543D01*
X351612Y117249D01*
X352094Y116527D01*
X352667Y116145D01*
X352749Y115600D01*
X352667Y115055D01*
X352094Y114673D01*
X351612Y113951D01*
X351543Y113600D01*
X357013D01*
X362484D01*
X362414Y113951D01*
X361932Y114673D01*
X361359Y115055D01*
X361278Y115600D01*
X361359Y116145D01*
X361932Y116527D01*
X362414Y117249D01*
X362484Y117600D01*
D02*
G37*
G36*
X326658Y117600D02*
X321187D01*
X315716D01*
X315786Y117249D01*
X316268Y116527D01*
X316841Y116145D01*
X316922Y115600D01*
X316841Y115055D01*
X316268Y114673D01*
X315786Y113951D01*
X315716Y113600D01*
X321187D01*
X326658D01*
X326588Y113951D01*
X326106Y114673D01*
X325533Y115055D01*
X325451Y115600D01*
X325533Y116145D01*
X326106Y116527D01*
X326588Y117249D01*
X326658Y117600D01*
D02*
G37*
G36*
X362484Y112600D02*
X357013D01*
X351543D01*
X351612Y112249D01*
X352094Y111528D01*
X352667Y111145D01*
X352749Y110600D01*
X352667Y110055D01*
X352094Y109672D01*
X351612Y108951D01*
X351543Y108600D01*
X357013D01*
X362484D01*
X362414Y108951D01*
X361932Y109672D01*
X361359Y110055D01*
X361278Y110600D01*
X361359Y111145D01*
X361932Y111528D01*
X362414Y112249D01*
X362484Y112600D01*
D02*
G37*
G36*
X326658Y112600D02*
X321187D01*
X315716D01*
X315786Y112249D01*
X316268Y111528D01*
X316841Y111145D01*
X316922Y110600D01*
X316841Y110055D01*
X316268Y109672D01*
X315786Y108951D01*
X315716Y108600D01*
X321187D01*
X326658D01*
X326588Y108951D01*
X326106Y109672D01*
X325533Y110055D01*
X325451Y110600D01*
X325533Y111145D01*
X326106Y111528D01*
X326588Y112249D01*
X326658Y112600D01*
D02*
G37*
G36*
Y107600D02*
X321187D01*
X315716D01*
X315786Y107249D01*
X316268Y106527D01*
X316621Y106291D01*
X316318Y105291D01*
X307993D01*
X307603Y105681D01*
X306897Y106089D01*
X306108Y106300D01*
X305292D01*
X304503Y106089D01*
X303797Y105681D01*
X303219Y105103D01*
X302811Y104397D01*
X302600Y103608D01*
Y102792D01*
X302811Y102003D01*
X303219Y101297D01*
X303797Y100719D01*
X304503Y100311D01*
X305292Y100100D01*
X305275Y99335D01*
X305245Y99119D01*
X304907Y98893D01*
X304907Y98893D01*
X304307Y98293D01*
X304064Y97929D01*
X303978Y97500D01*
X303978Y97500D01*
Y64800D01*
X303978Y64800D01*
X304064Y64371D01*
X304307Y64007D01*
X308107Y60207D01*
X308107Y60207D01*
X308471Y59964D01*
X308900Y59878D01*
X308900Y59878D01*
X320579D01*
Y14165D01*
X320435Y14021D01*
X149209D01*
X149189Y14097D01*
X148781Y14803D01*
X148203Y15381D01*
X147497Y15789D01*
X146708Y16000D01*
X145892D01*
X145103Y15789D01*
X144397Y15381D01*
X143819Y14803D01*
X143411Y14097D01*
X143200Y13308D01*
Y12492D01*
X143411Y11703D01*
X143819Y10997D01*
X144397Y10419D01*
X145103Y10011D01*
X145892Y9800D01*
X146708D01*
X147497Y10011D01*
X148203Y10419D01*
X148781Y10997D01*
X149189Y11703D01*
X149209Y11778D01*
X320900D01*
X320900Y11778D01*
X321329Y11864D01*
X321693Y12107D01*
X322493Y12907D01*
X322736Y13271D01*
X322822Y13700D01*
X322821Y13700D01*
Y60414D01*
X322736Y60843D01*
X322493Y61207D01*
X322493Y61207D01*
X321907Y61793D01*
X321543Y62036D01*
X321114Y62122D01*
X321114Y62122D01*
X309365D01*
X306222Y65265D01*
Y96978D01*
X316447D01*
X316556Y96816D01*
X317145Y96422D01*
X317840Y96284D01*
X324533D01*
X325228Y96422D01*
X325817Y96816D01*
X326211Y97405D01*
X326349Y98100D01*
X326211Y98795D01*
X325817Y99384D01*
X325228Y99778D01*
X324533Y99916D01*
X317840D01*
X317145Y99778D01*
X316556Y99384D01*
X316447Y99222D01*
X306693D01*
X306562Y100222D01*
X306897Y100311D01*
X307603Y100719D01*
X307893Y101009D01*
X320935D01*
X321187Y100959D01*
X322006Y101122D01*
X322249Y101284D01*
X324533D01*
X325228Y101422D01*
X325817Y101816D01*
X326211Y102405D01*
X326349Y103100D01*
X326211Y103795D01*
X325817Y104384D01*
X325228Y104778D01*
X324533Y104916D01*
Y105876D01*
X325384Y106045D01*
X326106Y106527D01*
X326588Y107249D01*
X326658Y107600D01*
D02*
G37*
G36*
X213800Y102522D02*
X213800Y102522D01*
X205886D01*
X205886Y102522D01*
X205457Y102436D01*
X205093Y102193D01*
X205093Y102193D01*
X204207Y101307D01*
X203964Y100943D01*
X203878Y100514D01*
X203878Y100514D01*
Y93944D01*
X203417Y93821D01*
X202483Y93281D01*
X201719Y92518D01*
X201179Y91583D01*
X200900Y90540D01*
Y89460D01*
X201179Y88418D01*
X201719Y87483D01*
X202483Y86719D01*
X203417Y86179D01*
X204460Y85900D01*
X205540D01*
X206582Y86179D01*
X207518Y86719D01*
X208281Y87483D01*
X208821Y88418D01*
X209100Y89460D01*
Y90540D01*
X208821Y91583D01*
X208281Y92518D01*
X207518Y93281D01*
X206582Y93821D01*
X206121Y93944D01*
Y100050D01*
X206350Y100278D01*
X213335D01*
X213878Y99735D01*
Y45785D01*
X213514Y45688D01*
X212636Y45181D01*
X211919Y44464D01*
X211412Y43586D01*
X211150Y42607D01*
Y41593D01*
X211412Y40614D01*
X211919Y39736D01*
X212636Y39019D01*
X213514Y38512D01*
X214493Y38250D01*
X215507D01*
X216486Y38512D01*
X217364Y39019D01*
X218081Y39736D01*
X218588Y40614D01*
X218850Y41593D01*
Y42607D01*
X218588Y43586D01*
X218081Y44464D01*
X217364Y45181D01*
X216486Y45688D01*
X216122Y45785D01*
Y100200D01*
X216122Y100200D01*
X216036Y100629D01*
X215793Y100993D01*
X215793Y100993D01*
X214593Y102193D01*
X214229Y102436D01*
X213800Y102522D01*
D02*
G37*
G36*
X405608Y264200D02*
X404792D01*
X404003Y263989D01*
X403297Y263581D01*
X402719Y263003D01*
X402311Y262297D01*
X402100Y261508D01*
Y260692D01*
X402311Y259903D01*
X402719Y259197D01*
X403297Y258619D01*
X404003Y258211D01*
X404778Y258004D01*
Y94222D01*
X361753D01*
X361644Y94384D01*
X361055Y94778D01*
X360360Y94916D01*
X353667D01*
X352972Y94778D01*
X352383Y94384D01*
X351989Y93795D01*
X351851Y93100D01*
X351989Y92405D01*
X352383Y91816D01*
X352972Y91422D01*
X353667Y91284D01*
X360360D01*
X361055Y91422D01*
X361644Y91816D01*
X361753Y91978D01*
X405314D01*
X405314Y91978D01*
X405743Y92064D01*
X406107Y92307D01*
X406693Y92893D01*
X406693Y92893D01*
X406936Y93257D01*
X407022Y93686D01*
Y258572D01*
X407103Y258619D01*
X407681Y259197D01*
X408089Y259903D01*
X408300Y260692D01*
Y261508D01*
X408089Y262297D01*
X407681Y263003D01*
X407103Y263581D01*
X406397Y263989D01*
X405608Y264200D01*
D02*
G37*
G36*
X55592Y94500D02*
X55500D01*
Y90500D01*
X59500D01*
Y90592D01*
X59193Y91737D01*
X58601Y92763D01*
X57763Y93601D01*
X56737Y94193D01*
X55592Y94500D01*
D02*
G37*
G36*
X54500D02*
X54408D01*
X53263Y94193D01*
X52237Y93601D01*
X51399Y92763D01*
X50807Y91737D01*
X50500Y90592D01*
Y90500D01*
X54500D01*
Y94500D01*
D02*
G37*
G36*
X185540Y94100D02*
X184460D01*
X183417Y93821D01*
X182483Y93281D01*
X181719Y92518D01*
X181179Y91583D01*
X180900Y90540D01*
Y89460D01*
X181179Y88418D01*
X181719Y87483D01*
X182483Y86719D01*
X183417Y86179D01*
X184460Y85900D01*
X185540D01*
X186583Y86179D01*
X187517Y86719D01*
X188281Y87483D01*
X188821Y88418D01*
X189100Y89460D01*
Y90540D01*
X188821Y91583D01*
X188281Y92518D01*
X187517Y93281D01*
X186583Y93821D01*
X185540Y94100D01*
D02*
G37*
G36*
X165540D02*
X164460D01*
X163417Y93821D01*
X162483Y93281D01*
X161719Y92518D01*
X161179Y91583D01*
X160900Y90540D01*
Y89460D01*
X161179Y88418D01*
X161719Y87483D01*
X162483Y86719D01*
X163417Y86179D01*
X164460Y85900D01*
X165540D01*
X166583Y86179D01*
X167517Y86719D01*
X168281Y87483D01*
X168821Y88418D01*
X169100Y89460D01*
Y90540D01*
X168821Y91583D01*
X168281Y92518D01*
X167517Y93281D01*
X166583Y93821D01*
X165540Y94100D01*
D02*
G37*
G36*
X155540D02*
X154460D01*
X153418Y93821D01*
X152482Y93281D01*
X151719Y92518D01*
X151179Y91583D01*
X150900Y90540D01*
Y89460D01*
X151179Y88418D01*
X151719Y87483D01*
X152482Y86719D01*
X153418Y86179D01*
X154460Y85900D01*
X155540D01*
X156582Y86179D01*
X157518Y86719D01*
X158281Y87483D01*
X158821Y88418D01*
X159100Y89460D01*
Y90540D01*
X158821Y91583D01*
X158281Y92518D01*
X157518Y93281D01*
X156582Y93821D01*
X155540Y94100D01*
D02*
G37*
G36*
X145540D02*
X144460D01*
X143418Y93821D01*
X142482Y93281D01*
X141719Y92518D01*
X141179Y91583D01*
X140900Y90540D01*
Y89460D01*
X141179Y88418D01*
X141719Y87483D01*
X142482Y86719D01*
X143418Y86179D01*
X144460Y85900D01*
X145540D01*
X146582Y86179D01*
X147518Y86719D01*
X148281Y87483D01*
X148821Y88418D01*
X149100Y89460D01*
Y90540D01*
X148821Y91583D01*
X148281Y92518D01*
X147518Y93281D01*
X146582Y93821D01*
X145540Y94100D01*
D02*
G37*
G36*
X135540D02*
X134460D01*
X133417Y93821D01*
X132483Y93281D01*
X131719Y92518D01*
X131179Y91583D01*
X130900Y90540D01*
Y89460D01*
X131179Y88418D01*
X131719Y87483D01*
X132483Y86719D01*
X133417Y86179D01*
X134460Y85900D01*
X135540D01*
X136583Y86179D01*
X137517Y86719D01*
X138281Y87483D01*
X138821Y88418D01*
X139100Y89460D01*
Y90540D01*
X138821Y91583D01*
X138281Y92518D01*
X137517Y93281D01*
X136583Y93821D01*
X135540Y94100D01*
D02*
G37*
G36*
X125540D02*
X124460D01*
X123417Y93821D01*
X122483Y93281D01*
X121719Y92518D01*
X121179Y91583D01*
X120900Y90540D01*
Y89460D01*
X121179Y88418D01*
X121719Y87483D01*
X122483Y86719D01*
X123417Y86179D01*
X124460Y85900D01*
X125540D01*
X126583Y86179D01*
X127517Y86719D01*
X128281Y87483D01*
X128821Y88418D01*
X129100Y89460D01*
Y90540D01*
X128821Y91583D01*
X128281Y92518D01*
X127517Y93281D01*
X126583Y93821D01*
X125540Y94100D01*
D02*
G37*
G36*
X115540D02*
X114460D01*
X113417Y93821D01*
X112483Y93281D01*
X111719Y92518D01*
X111179Y91583D01*
X110900Y90540D01*
Y89460D01*
X111179Y88418D01*
X111719Y87483D01*
X112483Y86719D01*
X113417Y86179D01*
X114460Y85900D01*
X115540D01*
X116583Y86179D01*
X117517Y86719D01*
X118281Y87483D01*
X118821Y88418D01*
X119100Y89460D01*
Y90540D01*
X118821Y91583D01*
X118281Y92518D01*
X117517Y93281D01*
X116583Y93821D01*
X115540Y94100D01*
D02*
G37*
G36*
X95540D02*
X94460D01*
X93418Y93821D01*
X92483Y93281D01*
X91719Y92518D01*
X91179Y91583D01*
X90900Y90540D01*
Y89460D01*
X91179Y88418D01*
X91719Y87483D01*
X92483Y86719D01*
X93418Y86179D01*
X94460Y85900D01*
X95540D01*
X96583Y86179D01*
X97518Y86719D01*
X98281Y87483D01*
X98821Y88418D01*
X99100Y89460D01*
Y90540D01*
X98821Y91583D01*
X98281Y92518D01*
X97518Y93281D01*
X96583Y93821D01*
X95540Y94100D01*
D02*
G37*
G36*
X85540D02*
X84460D01*
X83417Y93821D01*
X82482Y93281D01*
X81719Y92518D01*
X81179Y91583D01*
X80900Y90540D01*
Y89460D01*
X81179Y88418D01*
X81719Y87483D01*
X82482Y86719D01*
X83417Y86179D01*
X84460Y85900D01*
X85540D01*
X86582Y86179D01*
X87517Y86719D01*
X88281Y87483D01*
X88821Y88418D01*
X89100Y89460D01*
Y90540D01*
X88821Y91583D01*
X88281Y92518D01*
X87517Y93281D01*
X86582Y93821D01*
X85540Y94100D01*
D02*
G37*
G36*
X75540D02*
X74460D01*
X73418Y93821D01*
X72483Y93281D01*
X71719Y92518D01*
X71179Y91583D01*
X70900Y90540D01*
Y89460D01*
X71179Y88418D01*
X71719Y87483D01*
X72483Y86719D01*
X73418Y86179D01*
X74460Y85900D01*
X75540D01*
X76582Y86179D01*
X77517Y86719D01*
X78281Y87483D01*
X78821Y88418D01*
X79100Y89460D01*
Y90540D01*
X78821Y91583D01*
X78281Y92518D01*
X77517Y93281D01*
X76582Y93821D01*
X75540Y94100D01*
D02*
G37*
G36*
X65540D02*
X64460D01*
X63418Y93821D01*
X62483Y93281D01*
X61719Y92518D01*
X61179Y91583D01*
X60900Y90540D01*
Y89460D01*
X61179Y88418D01*
X61719Y87483D01*
X62483Y86719D01*
X63418Y86179D01*
X64460Y85900D01*
X65540D01*
X66583Y86179D01*
X67518Y86719D01*
X68281Y87483D01*
X68821Y88418D01*
X69100Y89460D01*
Y90540D01*
X68821Y91583D01*
X68281Y92518D01*
X67518Y93281D01*
X66583Y93821D01*
X65540Y94100D01*
D02*
G37*
G36*
X45540D02*
X44460D01*
X43418Y93821D01*
X42483Y93281D01*
X41719Y92518D01*
X41179Y91583D01*
X40900Y90540D01*
Y89460D01*
X41179Y88418D01*
X41719Y87483D01*
X42483Y86719D01*
X43418Y86179D01*
X44460Y85900D01*
X45540D01*
X46582Y86179D01*
X47517Y86719D01*
X48281Y87483D01*
X48821Y88418D01*
X49100Y89460D01*
Y90540D01*
X48821Y91583D01*
X48281Y92518D01*
X47517Y93281D01*
X46582Y93821D01*
X45540Y94100D01*
D02*
G37*
G36*
X35540D02*
X34460D01*
X33417Y93821D01*
X32482Y93281D01*
X31719Y92518D01*
X31179Y91583D01*
X30900Y90540D01*
Y89460D01*
X31179Y88418D01*
X31719Y87483D01*
X32482Y86719D01*
X33417Y86179D01*
X34460Y85900D01*
X35540D01*
X36582Y86179D01*
X37517Y86719D01*
X38281Y87483D01*
X38821Y88418D01*
X39100Y89460D01*
Y90540D01*
X38821Y91583D01*
X38281Y92518D01*
X37517Y93281D01*
X36582Y93821D01*
X35540Y94100D01*
D02*
G37*
G36*
X25540D02*
X24460D01*
X23417Y93821D01*
X22482Y93281D01*
X21719Y92518D01*
X21179Y91583D01*
X20900Y90540D01*
Y89460D01*
X21179Y88418D01*
X21719Y87483D01*
X22482Y86719D01*
X23417Y86179D01*
X24460Y85900D01*
X25540D01*
X26583Y86179D01*
X27518Y86719D01*
X28281Y87483D01*
X28821Y88418D01*
X29100Y89460D01*
Y90540D01*
X28821Y91583D01*
X28281Y92518D01*
X27518Y93281D01*
X26583Y93821D01*
X25540Y94100D01*
D02*
G37*
G36*
X59500Y89500D02*
X55500D01*
Y85500D01*
X55592D01*
X56737Y85807D01*
X57763Y86399D01*
X58601Y87237D01*
X59193Y88263D01*
X59500Y89408D01*
Y89500D01*
D02*
G37*
G36*
X54500D02*
X50500D01*
Y89408D01*
X50807Y88263D01*
X51399Y87237D01*
X52237Y86399D01*
X53263Y85807D01*
X54408Y85500D01*
X54500D01*
Y89500D01*
D02*
G37*
G36*
X525150Y87661D02*
X521500D01*
Y84209D01*
X525150D01*
Y87661D01*
D02*
G37*
G36*
X520500D02*
X516850D01*
Y84209D01*
X520500D01*
Y87661D01*
D02*
G37*
G36*
X115592Y84500D02*
X115500D01*
Y80500D01*
X119500D01*
Y80592D01*
X119193Y81737D01*
X118601Y82763D01*
X117763Y83601D01*
X116737Y84193D01*
X115592Y84500D01*
D02*
G37*
G36*
X114500D02*
X114408D01*
X113263Y84193D01*
X112237Y83601D01*
X111399Y82763D01*
X110807Y81737D01*
X110500Y80592D01*
Y80500D01*
X114500D01*
Y84500D01*
D02*
G37*
G36*
X419050Y115100D02*
X410750D01*
Y112310D01*
X410750Y111647D01*
X411150Y110813D01*
Y104370D01*
X412759D01*
Y90857D01*
X412922Y90038D01*
X413386Y89343D01*
X415143Y87586D01*
X415838Y87122D01*
X416657Y86959D01*
X433301D01*
Y77844D01*
X432798Y77341D01*
X312541D01*
Y90456D01*
X313044Y90959D01*
X321187D01*
X322006Y91122D01*
X322249Y91284D01*
X324533D01*
X325228Y91422D01*
X325817Y91816D01*
X326211Y92405D01*
X326349Y93100D01*
X326211Y93795D01*
X325817Y94384D01*
X325228Y94778D01*
X324533Y94916D01*
X322249D01*
X322006Y95078D01*
X321187Y95241D01*
X312157D01*
X311338Y95078D01*
X310643Y94614D01*
X308886Y92857D01*
X308422Y92162D01*
X308259Y91343D01*
Y75200D01*
X308422Y74381D01*
X308886Y73686D01*
X309581Y73222D01*
X310400Y73059D01*
X433685D01*
X434505Y73222D01*
X435199Y73686D01*
X436957Y75443D01*
X437421Y76138D01*
X437584Y76957D01*
Y86959D01*
X459991D01*
Y85154D01*
X472180D01*
X472894Y85154D01*
X473609Y85154D01*
X481159D01*
Y34424D01*
X481139Y34418D01*
X479861Y33681D01*
X478819Y32638D01*
X478082Y31361D01*
X477700Y29937D01*
Y28463D01*
X478082Y27038D01*
X478819Y25762D01*
X479861Y24719D01*
X481139Y23982D01*
X482563Y23600D01*
X484037D01*
X485462Y23982D01*
X486738Y24719D01*
X487781Y25762D01*
X488518Y27038D01*
X488900Y28463D01*
Y29937D01*
X488518Y31361D01*
X487781Y32638D01*
X486738Y33681D01*
X485462Y34418D01*
X485441Y34424D01*
Y85154D01*
X485798D01*
Y93046D01*
X473609D01*
X472894Y93046D01*
X472180Y93046D01*
X459991D01*
Y91241D01*
X437584D01*
Y99033D01*
X438950D01*
Y112044D01*
X431450D01*
Y99033D01*
X433301D01*
Y91241D01*
X417544D01*
X417041Y91744D01*
Y104370D01*
X418650D01*
Y110813D01*
X419050Y111647D01*
X419050Y112310D01*
Y115100D01*
D02*
G37*
G36*
X205540Y84100D02*
X204460D01*
X203417Y83821D01*
X202483Y83281D01*
X201719Y82517D01*
X201179Y81582D01*
X200900Y80540D01*
Y79460D01*
X201179Y78417D01*
X201719Y77482D01*
X202483Y76719D01*
X203417Y76179D01*
X204460Y75900D01*
X205540D01*
X206582Y76179D01*
X207518Y76719D01*
X208281Y77482D01*
X208821Y78417D01*
X209100Y79460D01*
Y80540D01*
X208821Y81582D01*
X208281Y82517D01*
X207518Y83281D01*
X206582Y83821D01*
X205540Y84100D01*
D02*
G37*
G36*
X185540D02*
X184460D01*
X183417Y83821D01*
X182483Y83281D01*
X181719Y82517D01*
X181179Y81582D01*
X180900Y80540D01*
Y79460D01*
X181179Y78417D01*
X181719Y77482D01*
X182483Y76719D01*
X183417Y76179D01*
X184460Y75900D01*
X185540D01*
X186583Y76179D01*
X187517Y76719D01*
X188281Y77482D01*
X188821Y78417D01*
X189100Y79460D01*
Y80540D01*
X188821Y81582D01*
X188281Y82517D01*
X187517Y83281D01*
X186583Y83821D01*
X185540Y84100D01*
D02*
G37*
G36*
X175540D02*
X174460D01*
X173417Y83821D01*
X172483Y83281D01*
X171719Y82517D01*
X171179Y81582D01*
X170900Y80540D01*
Y79460D01*
X171179Y78417D01*
X171719Y77482D01*
X172483Y76719D01*
X173417Y76179D01*
X174460Y75900D01*
X175540D01*
X176583Y76179D01*
X177517Y76719D01*
X178281Y77482D01*
X178821Y78417D01*
X179100Y79460D01*
Y80540D01*
X178821Y81582D01*
X178281Y82517D01*
X177517Y83281D01*
X176583Y83821D01*
X175540Y84100D01*
D02*
G37*
G36*
X165540D02*
X164460D01*
X163417Y83821D01*
X162483Y83281D01*
X161719Y82517D01*
X161179Y81582D01*
X160900Y80540D01*
Y79460D01*
X161179Y78417D01*
X161719Y77482D01*
X162483Y76719D01*
X163417Y76179D01*
X164460Y75900D01*
X165540D01*
X166583Y76179D01*
X167517Y76719D01*
X168281Y77482D01*
X168821Y78417D01*
X169100Y79460D01*
Y80540D01*
X168821Y81582D01*
X168281Y82517D01*
X167517Y83281D01*
X166583Y83821D01*
X165540Y84100D01*
D02*
G37*
G36*
X155540D02*
X154460D01*
X153418Y83821D01*
X152482Y83281D01*
X151719Y82517D01*
X151179Y81582D01*
X150900Y80540D01*
Y79460D01*
X151179Y78417D01*
X151719Y77482D01*
X152482Y76719D01*
X153418Y76179D01*
X154460Y75900D01*
X155540D01*
X156582Y76179D01*
X157518Y76719D01*
X158281Y77482D01*
X158821Y78417D01*
X159100Y79460D01*
Y80540D01*
X158821Y81582D01*
X158281Y82517D01*
X157518Y83281D01*
X156582Y83821D01*
X155540Y84100D01*
D02*
G37*
G36*
X145540D02*
X144460D01*
X143418Y83821D01*
X142482Y83281D01*
X141719Y82517D01*
X141179Y81582D01*
X140900Y80540D01*
Y79460D01*
X141179Y78417D01*
X141719Y77482D01*
X142482Y76719D01*
X143418Y76179D01*
X144460Y75900D01*
X145540D01*
X146582Y76179D01*
X147518Y76719D01*
X148281Y77482D01*
X148821Y78417D01*
X149100Y79460D01*
Y80540D01*
X148821Y81582D01*
X148281Y82517D01*
X147518Y83281D01*
X146582Y83821D01*
X145540Y84100D01*
D02*
G37*
G36*
X135540D02*
X134460D01*
X133417Y83821D01*
X132483Y83281D01*
X131719Y82517D01*
X131179Y81582D01*
X130900Y80540D01*
Y79460D01*
X131179Y78417D01*
X131719Y77482D01*
X132483Y76719D01*
X133417Y76179D01*
X134460Y75900D01*
X135540D01*
X136583Y76179D01*
X137517Y76719D01*
X138281Y77482D01*
X138821Y78417D01*
X139100Y79460D01*
Y80540D01*
X138821Y81582D01*
X138281Y82517D01*
X137517Y83281D01*
X136583Y83821D01*
X135540Y84100D01*
D02*
G37*
G36*
X95540D02*
X94460D01*
X93418Y83821D01*
X92483Y83281D01*
X91719Y82517D01*
X91179Y81582D01*
X90900Y80540D01*
Y79460D01*
X91179Y78417D01*
X91719Y77482D01*
X92483Y76719D01*
X93418Y76179D01*
X94460Y75900D01*
X95540D01*
X96583Y76179D01*
X97518Y76719D01*
X98281Y77482D01*
X98821Y78417D01*
X99100Y79460D01*
Y80540D01*
X98821Y81582D01*
X98281Y82517D01*
X97518Y83281D01*
X96583Y83821D01*
X95540Y84100D01*
D02*
G37*
G36*
X85540D02*
X84460D01*
X83417Y83821D01*
X82482Y83281D01*
X81719Y82517D01*
X81179Y81582D01*
X80900Y80540D01*
Y79460D01*
X81179Y78417D01*
X81719Y77482D01*
X82482Y76719D01*
X83417Y76179D01*
X84460Y75900D01*
X85540D01*
X86582Y76179D01*
X87517Y76719D01*
X88281Y77482D01*
X88821Y78417D01*
X89100Y79460D01*
Y80540D01*
X88821Y81582D01*
X88281Y82517D01*
X87517Y83281D01*
X86582Y83821D01*
X85540Y84100D01*
D02*
G37*
G36*
X75540D02*
X74460D01*
X73418Y83821D01*
X72483Y83281D01*
X71719Y82517D01*
X71179Y81582D01*
X70900Y80540D01*
Y79460D01*
X71179Y78417D01*
X71719Y77482D01*
X72483Y76719D01*
X73418Y76179D01*
X74460Y75900D01*
X75540D01*
X76582Y76179D01*
X77517Y76719D01*
X78281Y77482D01*
X78821Y78417D01*
X79100Y79460D01*
Y80540D01*
X78821Y81582D01*
X78281Y82517D01*
X77517Y83281D01*
X76582Y83821D01*
X75540Y84100D01*
D02*
G37*
G36*
X65540D02*
X64460D01*
X63418Y83821D01*
X62483Y83281D01*
X61719Y82517D01*
X61179Y81582D01*
X60900Y80540D01*
Y79460D01*
X61179Y78417D01*
X61719Y77482D01*
X62483Y76719D01*
X63418Y76179D01*
X64460Y75900D01*
X65540D01*
X66583Y76179D01*
X67518Y76719D01*
X68281Y77482D01*
X68821Y78417D01*
X69100Y79460D01*
Y80540D01*
X68821Y81582D01*
X68281Y82517D01*
X67518Y83281D01*
X66583Y83821D01*
X65540Y84100D01*
D02*
G37*
G36*
X55540D02*
X54460D01*
X53417Y83821D01*
X52482Y83281D01*
X51719Y82517D01*
X51179Y81582D01*
X50900Y80540D01*
Y79460D01*
X51179Y78417D01*
X51719Y77482D01*
X52482Y76719D01*
X53417Y76179D01*
X54460Y75900D01*
X55540D01*
X56582Y76179D01*
X57517Y76719D01*
X58281Y77482D01*
X58821Y78417D01*
X59100Y79460D01*
Y80540D01*
X58821Y81582D01*
X58281Y82517D01*
X57517Y83281D01*
X56582Y83821D01*
X55540Y84100D01*
D02*
G37*
G36*
X45540D02*
X44460D01*
X43418Y83821D01*
X42483Y83281D01*
X41719Y82517D01*
X41179Y81582D01*
X40900Y80540D01*
Y79460D01*
X41179Y78417D01*
X41719Y77482D01*
X42483Y76719D01*
X43418Y76179D01*
X44460Y75900D01*
X45540D01*
X46582Y76179D01*
X47517Y76719D01*
X48281Y77482D01*
X48821Y78417D01*
X49100Y79460D01*
Y80540D01*
X48821Y81582D01*
X48281Y82517D01*
X47517Y83281D01*
X46582Y83821D01*
X45540Y84100D01*
D02*
G37*
G36*
X35540D02*
X34460D01*
X33417Y83821D01*
X32482Y83281D01*
X31719Y82517D01*
X31179Y81582D01*
X30900Y80540D01*
Y79460D01*
X31179Y78417D01*
X31719Y77482D01*
X32482Y76719D01*
X33417Y76179D01*
X34460Y75900D01*
X35540D01*
X36582Y76179D01*
X37517Y76719D01*
X38281Y77482D01*
X38821Y78417D01*
X39100Y79460D01*
Y80540D01*
X38821Y81582D01*
X38281Y82517D01*
X37517Y83281D01*
X36582Y83821D01*
X35540Y84100D01*
D02*
G37*
G36*
X29100D02*
X20900D01*
Y75900D01*
X29100D01*
Y84100D01*
D02*
G37*
G36*
X119500Y79500D02*
X115500D01*
Y75500D01*
X115592D01*
X116737Y75807D01*
X117763Y76399D01*
X118601Y77237D01*
X119193Y78263D01*
X119500Y79408D01*
Y79500D01*
D02*
G37*
G36*
X114500D02*
X110500D01*
Y79408D01*
X110807Y78263D01*
X111399Y77237D01*
X112237Y76399D01*
X113263Y75807D01*
X114408Y75500D01*
X114500D01*
Y79500D01*
D02*
G37*
G36*
X232508Y79300D02*
X231692D01*
X230903Y79089D01*
X230197Y78681D01*
X229619Y78103D01*
X229211Y77397D01*
X229000Y76608D01*
Y75792D01*
X229211Y75003D01*
X229619Y74297D01*
X230197Y73719D01*
X230903Y73311D01*
X230978Y73291D01*
Y61536D01*
X225586D01*
X225157Y61450D01*
X224793Y61207D01*
X224793Y61207D01*
X224207Y60622D01*
X223964Y60258D01*
X223878Y59828D01*
X223879Y59828D01*
Y45950D01*
X221150D01*
Y38250D01*
X228850D01*
Y45950D01*
X226121D01*
Y59293D01*
X231514D01*
X231514Y59293D01*
X231943Y59378D01*
X232307Y59621D01*
X232893Y60207D01*
X232893Y60207D01*
X233136Y60571D01*
X233222Y61000D01*
Y73291D01*
X233297Y73311D01*
X234003Y73719D01*
X234581Y74297D01*
X234989Y75003D01*
X235200Y75792D01*
Y76608D01*
X234989Y77397D01*
X234581Y78103D01*
X234003Y78681D01*
X233297Y79089D01*
X232508Y79300D01*
D02*
G37*
G36*
X105540Y84100D02*
X104460D01*
X103418Y83821D01*
X102482Y83281D01*
X101719Y82517D01*
X101179Y81582D01*
X100900Y80540D01*
Y79460D01*
X101179Y78417D01*
X101719Y77482D01*
X102482Y76719D01*
X103418Y76179D01*
X103878Y76056D01*
Y47609D01*
X103803Y47589D01*
X103097Y47181D01*
X102519Y46603D01*
X102111Y45897D01*
X101900Y45108D01*
Y44292D01*
X102111Y43503D01*
X102519Y42797D01*
X103097Y42219D01*
X103803Y41811D01*
X104592Y41600D01*
X105408D01*
X106197Y41811D01*
X106903Y42219D01*
X107481Y42797D01*
X107889Y43503D01*
X108100Y44292D01*
Y45108D01*
X107889Y45897D01*
X107481Y46603D01*
X106903Y47181D01*
X106197Y47589D01*
X106122Y47609D01*
Y76056D01*
X106582Y76179D01*
X107518Y76719D01*
X108281Y77482D01*
X108821Y78417D01*
X109100Y79460D01*
Y80540D01*
X108821Y81582D01*
X108281Y82517D01*
X107518Y83281D01*
X106582Y83821D01*
X105540Y84100D01*
D02*
G37*
G36*
X195540D02*
X194460D01*
X193418Y83821D01*
X192482Y83281D01*
X191719Y82517D01*
X191179Y81582D01*
X190900Y80540D01*
Y79460D01*
X191179Y78417D01*
X191719Y77482D01*
X192482Y76719D01*
X193418Y76179D01*
X193878Y76056D01*
Y45785D01*
X193514Y45688D01*
X192636Y45181D01*
X191919Y44464D01*
X191412Y43586D01*
X191150Y42607D01*
Y41593D01*
X191412Y40614D01*
X191919Y39736D01*
X192636Y39019D01*
X193514Y38512D01*
X194493Y38250D01*
X195507D01*
X196486Y38512D01*
X197364Y39019D01*
X198081Y39736D01*
X198588Y40614D01*
X198850Y41593D01*
Y42607D01*
X198588Y43586D01*
X198081Y44464D01*
X197364Y45181D01*
X196486Y45688D01*
X196122Y45785D01*
Y76056D01*
X196582Y76179D01*
X197518Y76719D01*
X198281Y77482D01*
X198821Y78417D01*
X199100Y79460D01*
Y80540D01*
X198821Y81582D01*
X198281Y82517D01*
X197518Y83281D01*
X196582Y83821D01*
X195540Y84100D01*
D02*
G37*
G36*
X237014Y114622D02*
X237014Y114622D01*
X195586D01*
X195157Y114536D01*
X194793Y114293D01*
X194793Y114293D01*
X194207Y113707D01*
X193964Y113343D01*
X193878Y112914D01*
X193878Y112914D01*
Y93944D01*
X193418Y93821D01*
X192482Y93281D01*
X191719Y92518D01*
X191179Y91583D01*
X190900Y90540D01*
Y89460D01*
X191179Y88418D01*
X191719Y87483D01*
X192482Y86719D01*
X193418Y86179D01*
X194460Y85900D01*
X195540D01*
X196582Y86179D01*
X197518Y86719D01*
X198281Y87483D01*
X198821Y88418D01*
X199100Y89460D01*
Y90540D01*
X198821Y91583D01*
X198281Y92518D01*
X197518Y93281D01*
X196582Y93821D01*
X196122Y93944D01*
Y112378D01*
X236478D01*
Y33322D01*
X206350D01*
X206121Y33550D01*
Y38415D01*
X206486Y38512D01*
X207364Y39019D01*
X208081Y39736D01*
X208588Y40614D01*
X208850Y41593D01*
Y42607D01*
X208588Y43586D01*
X208081Y44464D01*
X207364Y45181D01*
X206486Y45688D01*
X205507Y45950D01*
X204493D01*
X203514Y45688D01*
X202636Y45181D01*
X201919Y44464D01*
X201412Y43586D01*
X201150Y42607D01*
Y41593D01*
X201412Y40614D01*
X201919Y39736D01*
X202636Y39019D01*
X203514Y38512D01*
X203878Y38415D01*
Y33086D01*
X203878Y33086D01*
X203964Y32657D01*
X204207Y32293D01*
X205093Y31407D01*
X205093Y31407D01*
X205457Y31164D01*
X205886Y31078D01*
X205886Y31078D01*
X237014D01*
X237014Y31078D01*
X237443Y31164D01*
X237807Y31407D01*
X238393Y31993D01*
X238393Y31993D01*
X238636Y32357D01*
X238721Y32786D01*
Y112914D01*
X238636Y113343D01*
X238393Y113707D01*
X238393Y113707D01*
X237807Y114293D01*
X237443Y114536D01*
X237014Y114622D01*
D02*
G37*
G36*
X529900Y36000D02*
X524400D01*
Y30500D01*
X529900D01*
Y36000D01*
D02*
G37*
G36*
X523400D02*
X517900D01*
Y30500D01*
X523400D01*
Y36000D01*
D02*
G37*
G36*
X389359Y33450D02*
X389300D01*
Y29700D01*
X393050D01*
Y29759D01*
X392760Y30840D01*
X392201Y31810D01*
X391410Y32601D01*
X390440Y33160D01*
X389359Y33450D01*
D02*
G37*
G36*
X261660D02*
X261600D01*
Y29700D01*
X265350D01*
Y29759D01*
X265060Y30840D01*
X264501Y31810D01*
X263710Y32601D01*
X262740Y33160D01*
X261660Y33450D01*
D02*
G37*
G36*
X469300Y35200D02*
X463800D01*
Y29700D01*
X469300D01*
Y35200D01*
D02*
G37*
G36*
X462800D02*
X457300D01*
Y29700D01*
X462800D01*
Y35200D01*
D02*
G37*
G36*
X388300Y33450D02*
X388241D01*
X387160Y33160D01*
X386190Y32601D01*
X385399Y31810D01*
X384840Y30840D01*
X384550Y29759D01*
Y29700D01*
X388300D01*
Y33450D01*
D02*
G37*
G36*
X260600D02*
X260541D01*
X259460Y33160D01*
X258490Y32601D01*
X257699Y31810D01*
X257140Y30840D01*
X256850Y29759D01*
Y29700D01*
X260600D01*
Y33450D01*
D02*
G37*
G36*
X241014Y123422D02*
X241014Y123422D01*
X175586D01*
X175157Y123336D01*
X174793Y123093D01*
X174793Y123093D01*
X174207Y122507D01*
X173964Y122143D01*
X173878Y121714D01*
X173878Y121714D01*
Y93944D01*
X173417Y93821D01*
X172483Y93281D01*
X171719Y92518D01*
X171179Y91583D01*
X170900Y90540D01*
Y89460D01*
X171179Y88418D01*
X171719Y87483D01*
X172483Y86719D01*
X173417Y86179D01*
X174460Y85900D01*
X175540D01*
X176583Y86179D01*
X177517Y86719D01*
X178281Y87483D01*
X178821Y88418D01*
X179100Y89460D01*
Y90540D01*
X178821Y91583D01*
X178281Y92518D01*
X177517Y93281D01*
X176583Y93821D01*
X176122Y93944D01*
Y121178D01*
X240478D01*
Y31065D01*
X236235Y26822D01*
X186122D01*
Y38415D01*
X186486Y38512D01*
X187364Y39019D01*
X188081Y39736D01*
X188588Y40614D01*
X188850Y41593D01*
Y42607D01*
X188588Y43586D01*
X188081Y44464D01*
X187364Y45181D01*
X186486Y45688D01*
X185507Y45950D01*
X184493D01*
X183514Y45688D01*
X182636Y45181D01*
X181919Y44464D01*
X181412Y43586D01*
X181150Y42607D01*
Y41593D01*
X181412Y40614D01*
X181919Y39736D01*
X182636Y39019D01*
X183514Y38512D01*
X183878Y38415D01*
Y26286D01*
X183878Y26286D01*
X183964Y25857D01*
X184207Y25493D01*
X184793Y24907D01*
X184793Y24907D01*
X185157Y24664D01*
X185586Y24578D01*
X236700D01*
X236700Y24578D01*
X237129Y24664D01*
X237493Y24907D01*
X242393Y29807D01*
X242393Y29807D01*
X242636Y30171D01*
X242722Y30600D01*
X242722Y30600D01*
Y121714D01*
X242636Y122143D01*
X242393Y122507D01*
X242393Y122507D01*
X241807Y123093D01*
X241443Y123336D01*
X241014Y123422D01*
D02*
G37*
G36*
X429208Y60200D02*
X428392D01*
X427603Y59989D01*
X426897Y59581D01*
X426319Y59003D01*
X425911Y58297D01*
X425700Y57508D01*
Y56692D01*
X425911Y55903D01*
X426319Y55197D01*
X426659Y54857D01*
Y33050D01*
X424950D01*
Y25350D01*
X432650D01*
Y33050D01*
X430941D01*
Y54857D01*
X431281Y55197D01*
X431689Y55903D01*
X431900Y56692D01*
Y57508D01*
X431689Y58297D01*
X431281Y59003D01*
X430703Y59581D01*
X429997Y59989D01*
X429208Y60200D01*
D02*
G37*
G36*
X379008D02*
X378192D01*
X377403Y59989D01*
X376697Y59581D01*
X376119Y59003D01*
X375711Y58297D01*
X375500Y57508D01*
Y56692D01*
X375711Y55903D01*
X376119Y55197D01*
X376559Y54757D01*
Y32352D01*
X376436Y32281D01*
X375719Y31564D01*
X375212Y30686D01*
X374950Y29707D01*
Y28693D01*
X375212Y27714D01*
X375719Y26836D01*
X376436Y26119D01*
X377314Y25612D01*
X378293Y25350D01*
X379307D01*
X380286Y25612D01*
X381164Y26119D01*
X381881Y26836D01*
X382388Y27714D01*
X382650Y28693D01*
Y29707D01*
X382388Y30686D01*
X381881Y31564D01*
X381164Y32281D01*
X380841Y32467D01*
Y54957D01*
X381081Y55197D01*
X381489Y55903D01*
X381700Y56692D01*
Y57508D01*
X381489Y58297D01*
X381081Y59003D01*
X380503Y59581D01*
X379797Y59989D01*
X379008Y60200D01*
D02*
G37*
G36*
X55540Y324100D02*
X54460D01*
X53417Y323821D01*
X52482Y323281D01*
X51719Y322517D01*
X51179Y321583D01*
X50900Y320540D01*
Y319460D01*
X51179Y318418D01*
X51719Y317482D01*
X52482Y316719D01*
X52859Y316502D01*
Y283157D01*
X53022Y282338D01*
X53486Y281643D01*
X55543Y279586D01*
X56238Y279122D01*
X57057Y278959D01*
X114873D01*
X115376Y278456D01*
Y235044D01*
X114873Y234541D01*
X56757D01*
X55938Y234378D01*
X55243Y233914D01*
X53486Y232157D01*
X53022Y231462D01*
X52859Y230643D01*
Y182857D01*
X53022Y182038D01*
X53486Y181343D01*
X55243Y179586D01*
X55938Y179122D01*
X56757Y178959D01*
X217956D01*
X218459Y178456D01*
Y165243D01*
X218119Y164903D01*
X217711Y164197D01*
X217500Y163408D01*
Y162592D01*
X217711Y161803D01*
X218119Y161097D01*
X218697Y160519D01*
X219403Y160111D01*
X220192Y159900D01*
X221008D01*
X221797Y160111D01*
X222503Y160519D01*
X223081Y161097D01*
X223489Y161803D01*
X223700Y162592D01*
Y163408D01*
X223489Y164197D01*
X223081Y164903D01*
X222741Y165243D01*
Y179343D01*
X222578Y180162D01*
X222114Y180857D01*
X220357Y182614D01*
X219662Y183078D01*
X218843Y183241D01*
X84393D01*
X84262Y184241D01*
X84897Y184411D01*
X85603Y184819D01*
X86181Y185397D01*
X86589Y186103D01*
X86609Y186178D01*
X279750D01*
X279978Y185950D01*
Y32885D01*
X279614Y32788D01*
X278736Y32281D01*
X278019Y31564D01*
X277512Y30686D01*
X277250Y29707D01*
Y28693D01*
X277512Y27714D01*
X278019Y26836D01*
X278736Y26119D01*
X279614Y25612D01*
X280593Y25350D01*
X281607D01*
X282586Y25612D01*
X283464Y26119D01*
X284181Y26836D01*
X284688Y27714D01*
X284950Y28693D01*
Y29707D01*
X284688Y30686D01*
X284181Y31564D01*
X283464Y32281D01*
X282586Y32788D01*
X282222Y32885D01*
Y186414D01*
X282222Y186414D01*
X282136Y186843D01*
X281893Y187207D01*
X281893Y187207D01*
X281007Y188093D01*
X280643Y188336D01*
X280214Y188422D01*
X280214Y188422D01*
X86609D01*
X86589Y188497D01*
X86181Y189203D01*
X85603Y189781D01*
X84897Y190189D01*
X84108Y190400D01*
X83292D01*
X82503Y190189D01*
X81797Y189781D01*
X81219Y189203D01*
X80811Y188497D01*
X80600Y187708D01*
Y186892D01*
X80811Y186103D01*
X81219Y185397D01*
X81797Y184819D01*
X82503Y184411D01*
X83138Y184241D01*
X83007Y183241D01*
X57644D01*
X57141Y183744D01*
Y229756D01*
X57644Y230259D01*
X115760D01*
X116579Y230422D01*
X117274Y230886D01*
X119032Y232643D01*
X119496Y233338D01*
X119659Y234157D01*
Y279343D01*
X119496Y280162D01*
X119032Y280857D01*
X117274Y282614D01*
X116579Y283078D01*
X115760Y283241D01*
X57944D01*
X57141Y284044D01*
Y316502D01*
X57517Y316719D01*
X58281Y317482D01*
X58821Y318418D01*
X59100Y319460D01*
Y320540D01*
X58821Y321583D01*
X58281Y322517D01*
X57517Y323281D01*
X56582Y323821D01*
X55540Y324100D01*
D02*
G37*
G36*
X95708Y134500D02*
X94892D01*
X94103Y134289D01*
X93397Y133881D01*
X92819Y133303D01*
X92411Y132597D01*
X92200Y131808D01*
Y130992D01*
X92411Y130203D01*
X92819Y129497D01*
X93397Y128919D01*
X94103Y128511D01*
X94892Y128300D01*
X95708D01*
X96497Y128511D01*
X97203Y128919D01*
X97781Y129497D01*
X98059Y129978D01*
X269978D01*
Y32885D01*
X269614Y32788D01*
X268736Y32281D01*
X268019Y31564D01*
X267512Y30686D01*
X267250Y29707D01*
Y28693D01*
X267512Y27714D01*
X268019Y26836D01*
X268736Y26119D01*
X269614Y25612D01*
X270593Y25350D01*
X271607D01*
X272586Y25612D01*
X273464Y26119D01*
X274181Y26836D01*
X274688Y27714D01*
X274950Y28693D01*
Y29707D01*
X274688Y30686D01*
X274181Y31564D01*
X273464Y32281D01*
X272586Y32788D01*
X272221Y32885D01*
Y130514D01*
X272136Y130943D01*
X271893Y131307D01*
X271893Y131307D01*
X271307Y131893D01*
X270943Y132136D01*
X270514Y132222D01*
X270514Y132222D01*
X98289D01*
X98189Y132597D01*
X97781Y133303D01*
X97203Y133881D01*
X96497Y134289D01*
X95708Y134500D01*
D02*
G37*
G36*
X251608Y106200D02*
X250792D01*
X250003Y105989D01*
X249297Y105581D01*
X248719Y105003D01*
X248311Y104297D01*
X248100Y103508D01*
Y102692D01*
X248311Y101903D01*
X248719Y101197D01*
X249009Y100907D01*
Y32438D01*
X248736Y32281D01*
X248019Y31564D01*
X247512Y30686D01*
X247250Y29707D01*
Y28693D01*
X247512Y27714D01*
X248019Y26836D01*
X248736Y26119D01*
X249614Y25612D01*
X250593Y25350D01*
X251607D01*
X252586Y25612D01*
X253464Y26119D01*
X254181Y26836D01*
X254688Y27714D01*
X254950Y28693D01*
Y29707D01*
X254688Y30686D01*
X254181Y31564D01*
X253464Y32281D01*
X253291Y32381D01*
Y100807D01*
X253681Y101197D01*
X254089Y101903D01*
X254300Y102692D01*
Y103508D01*
X254089Y104297D01*
X253681Y105003D01*
X253103Y105581D01*
X252397Y105989D01*
X251608Y106200D01*
D02*
G37*
G36*
X393050Y28700D02*
X389300D01*
Y24950D01*
X389359D01*
X390440Y25240D01*
X391410Y25799D01*
X392201Y26590D01*
X392760Y27560D01*
X393050Y28640D01*
Y28700D01*
D02*
G37*
G36*
X388300D02*
X384550D01*
Y28640D01*
X384840Y27560D01*
X385399Y26590D01*
X386190Y25799D01*
X387160Y25240D01*
X388241Y24950D01*
X388300D01*
Y28700D01*
D02*
G37*
G36*
X265350D02*
X261600D01*
Y24950D01*
X261660D01*
X262740Y25240D01*
X263710Y25799D01*
X264501Y26590D01*
X265060Y27560D01*
X265350Y28640D01*
Y28700D01*
D02*
G37*
G36*
X260600D02*
X256850D01*
Y28640D01*
X257140Y27560D01*
X257699Y26590D01*
X258490Y25799D01*
X259460Y25240D01*
X260541Y24950D01*
X260600D01*
Y28700D01*
D02*
G37*
G36*
X529900Y29500D02*
X524400D01*
Y24000D01*
X529900D01*
Y29500D01*
D02*
G37*
G36*
X523400D02*
X517900D01*
Y24000D01*
X523400D01*
Y29500D01*
D02*
G37*
G36*
X469300Y28700D02*
X463800D01*
Y23200D01*
X469300D01*
Y28700D01*
D02*
G37*
G36*
X462800D02*
X457300D01*
Y23200D01*
X462800D01*
Y28700D01*
D02*
G37*
G36*
X175507Y45950D02*
X174493D01*
X173514Y45688D01*
X172636Y45181D01*
X171919Y44464D01*
X171412Y43586D01*
X171150Y42607D01*
Y41593D01*
X171412Y40614D01*
X171919Y39736D01*
X172636Y39019D01*
X172859Y38891D01*
Y24274D01*
X172697Y24181D01*
X172119Y23603D01*
X171711Y22897D01*
X171500Y22108D01*
Y21292D01*
X171711Y20503D01*
X172119Y19797D01*
X172697Y19219D01*
X173403Y18811D01*
X174192Y18600D01*
X175008D01*
X175797Y18811D01*
X176503Y19219D01*
X177081Y19797D01*
X177489Y20503D01*
X177700Y21292D01*
Y22108D01*
X177489Y22897D01*
X177141Y23499D01*
Y38891D01*
X177364Y39019D01*
X178081Y39736D01*
X178588Y40614D01*
X178850Y41593D01*
Y42607D01*
X178588Y43586D01*
X178081Y44464D01*
X177364Y45181D01*
X176486Y45688D01*
X175507Y45950D01*
D02*
G37*
G36*
X575000Y41150D02*
X572474Y40951D01*
X570009Y40359D01*
X567668Y39390D01*
X565507Y38065D01*
X563580Y36420D01*
X561935Y34493D01*
X560610Y32332D01*
X559641Y29991D01*
X559049Y27526D01*
X558850Y25000D01*
X559049Y22474D01*
X559641Y20009D01*
X560610Y17668D01*
X561935Y15507D01*
X563580Y13580D01*
X565507Y11935D01*
X567668Y10610D01*
X570009Y9641D01*
X572474Y9049D01*
X575000Y8850D01*
X577526Y9049D01*
X579991Y9641D01*
X582332Y10610D01*
X584493Y11935D01*
X586420Y13580D01*
X588065Y15507D01*
X589390Y17668D01*
X590359Y20009D01*
X590951Y22474D01*
X591150Y25000D01*
X590951Y27526D01*
X590359Y29991D01*
X589390Y32332D01*
X588065Y34493D01*
X586420Y36420D01*
X584493Y38065D01*
X582332Y39390D01*
X579991Y40359D01*
X577526Y40951D01*
X575000Y41150D01*
D02*
G37*
G36*
X25000D02*
X22474Y40951D01*
X20009Y40359D01*
X17668Y39390D01*
X15507Y38065D01*
X13580Y36420D01*
X11935Y34493D01*
X10610Y32332D01*
X9641Y29991D01*
X9049Y27526D01*
X8850Y25000D01*
X9049Y22474D01*
X9641Y20009D01*
X10610Y17668D01*
X11935Y15507D01*
X13580Y13580D01*
X15507Y11935D01*
X17668Y10610D01*
X20009Y9641D01*
X22474Y9049D01*
X25000Y8850D01*
X27526Y9049D01*
X29991Y9641D01*
X32332Y10610D01*
X34493Y11935D01*
X36420Y13580D01*
X38065Y15507D01*
X39390Y17668D01*
X40359Y20009D01*
X40951Y22474D01*
X41150Y25000D01*
X40951Y27526D01*
X40359Y29991D01*
X39390Y32332D01*
X38065Y34493D01*
X36420Y36420D01*
X34493Y38065D01*
X32332Y39390D01*
X29991Y40359D01*
X27526Y40951D01*
X25000Y41150D01*
D02*
G37*
G36*
X125540Y84100D02*
X124460D01*
X123417Y83821D01*
X122483Y83281D01*
X121719Y82517D01*
X121179Y81582D01*
X120900Y80540D01*
Y79460D01*
X121179Y78417D01*
X121719Y77482D01*
X122483Y76719D01*
X123278Y76260D01*
Y16000D01*
X123278Y16000D01*
X123364Y15571D01*
X123607Y15207D01*
X132007Y6807D01*
X132007Y6807D01*
X132371Y6564D01*
X132800Y6478D01*
X395500D01*
X395500Y6478D01*
X395929Y6564D01*
X396293Y6807D01*
X399593Y10107D01*
X399593Y10107D01*
X399836Y10471D01*
X399921Y10900D01*
Y25515D01*
X400286Y25612D01*
X401164Y26119D01*
X401881Y26836D01*
X402388Y27714D01*
X402650Y28693D01*
Y29707D01*
X402388Y30686D01*
X401881Y31564D01*
X401164Y32281D01*
X400286Y32788D01*
X399307Y33050D01*
X398293D01*
X397314Y32788D01*
X396436Y32281D01*
X395719Y31564D01*
X395212Y30686D01*
X394950Y29707D01*
Y28693D01*
X395212Y27714D01*
X395719Y26836D01*
X396436Y26119D01*
X397314Y25612D01*
X397678Y25515D01*
Y11365D01*
X395035Y8722D01*
X133265D01*
X125522Y16465D01*
Y75900D01*
X125540D01*
X126583Y76179D01*
X127517Y76719D01*
X128281Y77482D01*
X128821Y78417D01*
X129100Y79460D01*
Y80540D01*
X128821Y81582D01*
X128281Y82517D01*
X127517Y83281D01*
X126583Y83821D01*
X125540Y84100D01*
D02*
G37*
%LPD*%
G36*
X577173Y388722D02*
X579293Y388213D01*
X581307Y387379D01*
X583166Y386240D01*
X584824Y384824D01*
X586239Y383166D01*
X587379Y381307D01*
X588213Y379293D01*
X588722Y377173D01*
X588893Y375000D01*
X588722Y372827D01*
X588213Y370707D01*
X587379Y368693D01*
X586239Y366834D01*
X584824Y365176D01*
X583166Y363760D01*
X581307Y362621D01*
X579293Y361787D01*
X577173Y361278D01*
X575000Y361107D01*
X572827Y361278D01*
X570707Y361787D01*
X568693Y362621D01*
X566834Y363760D01*
X565176Y365176D01*
X563761Y366834D01*
X562621Y368693D01*
X561787Y370707D01*
X561278Y372827D01*
X561107Y375000D01*
X561278Y377173D01*
X561787Y379293D01*
X562621Y381307D01*
X563761Y383166D01*
X565176Y384824D01*
X566834Y386240D01*
X568693Y387379D01*
X570707Y388213D01*
X572827Y388722D01*
X575000Y388893D01*
X577173Y388722D01*
D02*
G37*
%LPC*%
G36*
X575946Y384600D02*
X574054D01*
X572200Y384231D01*
X570453Y383507D01*
X568880Y382457D01*
X567543Y381120D01*
X566493Y379547D01*
X565769Y377800D01*
X565400Y375945D01*
Y374055D01*
X565769Y372200D01*
X566493Y370453D01*
X567543Y368880D01*
X568880Y367543D01*
X570453Y366493D01*
X572200Y365769D01*
X574054Y365400D01*
X575946D01*
X577800Y365769D01*
X579547Y366493D01*
X581120Y367543D01*
X582457Y368880D01*
X583507Y370453D01*
X584231Y372200D01*
X584600Y374055D01*
Y375945D01*
X584231Y377800D01*
X583507Y379547D01*
X582457Y381120D01*
X581120Y382457D01*
X579547Y383507D01*
X577800Y384231D01*
X575946Y384600D01*
D02*
G37*
%LPD*%
G36*
X27173Y388722D02*
X29293Y388213D01*
X31307Y387379D01*
X33166Y386240D01*
X34824Y384824D01*
X36239Y383166D01*
X37379Y381307D01*
X38213Y379293D01*
X38722Y377173D01*
X38893Y375000D01*
X38722Y372827D01*
X38213Y370707D01*
X37379Y368693D01*
X36239Y366834D01*
X34824Y365176D01*
X33166Y363760D01*
X31307Y362621D01*
X29293Y361787D01*
X27173Y361278D01*
X25000Y361107D01*
X22827Y361278D01*
X20707Y361787D01*
X18693Y362621D01*
X16834Y363760D01*
X15176Y365176D01*
X13760Y366834D01*
X12621Y368693D01*
X11787Y370707D01*
X11278Y372827D01*
X11107Y375000D01*
X11278Y377173D01*
X11787Y379293D01*
X12621Y381307D01*
X13760Y383166D01*
X15176Y384824D01*
X16834Y386240D01*
X18693Y387379D01*
X20707Y388213D01*
X22827Y388722D01*
X25000Y388893D01*
X27173Y388722D01*
D02*
G37*
%LPC*%
G36*
X25945Y384600D02*
X24055D01*
X22200Y384231D01*
X20453Y383507D01*
X18880Y382457D01*
X17543Y381120D01*
X16493Y379547D01*
X15769Y377800D01*
X15400Y375945D01*
Y374055D01*
X15769Y372200D01*
X16493Y370453D01*
X17543Y368880D01*
X18880Y367543D01*
X20453Y366493D01*
X22200Y365769D01*
X24055Y365400D01*
X25945D01*
X27800Y365769D01*
X29547Y366493D01*
X31120Y367543D01*
X32457Y368880D01*
X33507Y370453D01*
X34231Y372200D01*
X34600Y374055D01*
Y375945D01*
X34231Y377800D01*
X33507Y379547D01*
X32457Y381120D01*
X31120Y382457D01*
X29547Y383507D01*
X27800Y384231D01*
X25945Y384600D01*
D02*
G37*
%LPD*%
G36*
X514840Y193393D02*
X514231Y192946D01*
X513840Y192792D01*
X513402Y192879D01*
X512823Y192763D01*
X512331Y192435D01*
X511914D01*
X511423Y192763D01*
X510843Y192879D01*
X510264Y192763D01*
X509772Y192435D01*
X509355D01*
X508864Y192763D01*
X508284Y192879D01*
X507704Y192763D01*
X507213Y192435D01*
X506885Y191944D01*
X506769Y191364D01*
Y186836D01*
X506885Y186257D01*
X507163Y185840D01*
Y183741D01*
X499772D01*
Y198259D01*
X514840D01*
Y193393D01*
D02*
G37*
G36*
X577173Y38722D02*
X579293Y38213D01*
X581307Y37379D01*
X583166Y36239D01*
X584824Y34824D01*
X586239Y33166D01*
X587379Y31307D01*
X588213Y29293D01*
X588722Y27173D01*
X588893Y25000D01*
X588722Y22827D01*
X588213Y20707D01*
X587379Y18693D01*
X586239Y16834D01*
X584824Y15176D01*
X583166Y13760D01*
X581307Y12621D01*
X579293Y11787D01*
X577173Y11278D01*
X575000Y11107D01*
X572827Y11278D01*
X570707Y11787D01*
X568693Y12621D01*
X566834Y13760D01*
X565176Y15176D01*
X563761Y16834D01*
X562621Y18693D01*
X561787Y20707D01*
X561278Y22827D01*
X561107Y25000D01*
X561278Y27173D01*
X561787Y29293D01*
X562621Y31307D01*
X563761Y33166D01*
X565176Y34824D01*
X566834Y36239D01*
X568693Y37379D01*
X570707Y38213D01*
X572827Y38722D01*
X575000Y38893D01*
X577173Y38722D01*
D02*
G37*
%LPC*%
G36*
X575946Y34600D02*
X574054D01*
X572200Y34231D01*
X570453Y33507D01*
X568880Y32457D01*
X567543Y31120D01*
X566493Y29547D01*
X565769Y27800D01*
X565400Y25945D01*
Y24055D01*
X565769Y22200D01*
X566493Y20453D01*
X567543Y18880D01*
X568880Y17543D01*
X570453Y16493D01*
X572200Y15769D01*
X574054Y15400D01*
X575946D01*
X577800Y15769D01*
X579547Y16493D01*
X581120Y17543D01*
X582457Y18880D01*
X583507Y20453D01*
X584231Y22200D01*
X584600Y24055D01*
Y25945D01*
X584231Y27800D01*
X583507Y29547D01*
X582457Y31120D01*
X581120Y32457D01*
X579547Y33507D01*
X577800Y34231D01*
X575946Y34600D01*
D02*
G37*
%LPD*%
G36*
X27173Y38722D02*
X29293Y38213D01*
X31307Y37379D01*
X33166Y36239D01*
X34824Y34824D01*
X36239Y33166D01*
X37379Y31307D01*
X38213Y29293D01*
X38722Y27173D01*
X38893Y25000D01*
X38722Y22827D01*
X38213Y20707D01*
X37379Y18693D01*
X36239Y16834D01*
X34824Y15176D01*
X33166Y13760D01*
X31307Y12621D01*
X29293Y11787D01*
X27173Y11278D01*
X25000Y11107D01*
X22827Y11278D01*
X20707Y11787D01*
X18693Y12621D01*
X16834Y13760D01*
X15176Y15176D01*
X13760Y16834D01*
X12621Y18693D01*
X11787Y20707D01*
X11278Y22827D01*
X11107Y25000D01*
X11278Y27173D01*
X11787Y29293D01*
X12621Y31307D01*
X13760Y33166D01*
X15176Y34824D01*
X16834Y36239D01*
X18693Y37379D01*
X20707Y38213D01*
X22827Y38722D01*
X25000Y38893D01*
X27173Y38722D01*
D02*
G37*
%LPC*%
G36*
X25945Y34600D02*
X24055D01*
X22200Y34231D01*
X20453Y33507D01*
X18880Y32457D01*
X17543Y31120D01*
X16493Y29547D01*
X15769Y27800D01*
X15400Y25945D01*
Y24055D01*
X15769Y22200D01*
X16493Y20453D01*
X17543Y18880D01*
X18880Y17543D01*
X20453Y16493D01*
X22200Y15769D01*
X24055Y15400D01*
X25945D01*
X27800Y15769D01*
X29547Y16493D01*
X31120Y17543D01*
X32457Y18880D01*
X33507Y20453D01*
X34231Y22200D01*
X34600Y24055D01*
Y25945D01*
X34231Y27800D01*
X33507Y29547D01*
X32457Y31120D01*
X31120Y32457D01*
X29547Y33507D01*
X27800Y34231D01*
X25945Y34600D01*
D02*
G37*
%LPD*%
D14*
X155300Y351500D02*
X156100Y352300D01*
X243600D01*
X155300Y330300D02*
Y351500D01*
X165000Y330000D02*
Y341514D01*
X155000Y330000D02*
X155300Y330300D01*
X165586Y342100D02*
X229700D01*
X165000Y341514D02*
X165586Y342100D01*
X229700D02*
X231200Y340600D01*
X245300Y374468D02*
X250300Y369468D01*
X245300Y374468D02*
Y379000D01*
X250300Y257400D02*
Y369468D01*
X248700Y255800D02*
X250300Y257400D01*
X233700Y255800D02*
X248700D01*
X225614Y338800D02*
X226200Y338214D01*
Y301700D02*
Y338214D01*
X231200Y278000D02*
Y340600D01*
X175000Y330000D02*
Y338214D01*
X175586Y338800D01*
X225614D01*
X337814Y326600D02*
X338400Y326014D01*
X326667Y326600D02*
X337814D01*
X338400Y189100D02*
Y326014D01*
X388114Y196700D02*
X388700Y197286D01*
X346000Y196700D02*
X388114D01*
X388700Y197286D02*
Y355714D01*
X25600Y251400D02*
X110807D01*
X430400Y163700D02*
Y241261D01*
X430000Y163300D02*
X430400Y163700D01*
X424600Y170600D02*
X424607Y170607D01*
Y384093D01*
X430400Y241261D02*
X431070Y241931D01*
X410714Y356300D02*
X411300Y356886D01*
X389286Y356300D02*
X410714D01*
X411300Y356886D02*
Y396314D01*
X388700Y355714D02*
X389286Y356300D01*
X393100Y133686D02*
Y290600D01*
X392600Y291100D02*
X393100Y290600D01*
X398600Y103600D02*
Y351400D01*
X398500Y351500D02*
X398600Y351400D01*
X392514Y133100D02*
X393100Y133686D01*
X346000D02*
Y196700D01*
X321187Y133100D02*
X345414D01*
X346000Y133686D01*
X393100Y98100D02*
X398600Y103600D01*
X498586Y144500D02*
X512857D01*
X513443Y145086D01*
Y182677D01*
X497631Y132179D02*
X498000Y132549D01*
Y143914D01*
X498586Y144500D01*
X521800Y170607D02*
Y182320D01*
X424607Y384093D02*
X424614Y384100D01*
X513402Y182718D02*
Y188695D01*
X510843Y181600D02*
Y189100D01*
X513402Y182718D02*
X513443Y182677D01*
X508284Y181600D02*
Y189100D01*
X515961Y197000D02*
Y200400D01*
Y189100D02*
Y197000D01*
X518520D01*
X515961Y200400D02*
Y206657D01*
X513402Y207243D02*
X513988Y206657D01*
X515961D02*
Y213509D01*
X513402Y207243D02*
Y213509D01*
X513988Y206657D02*
X515961D01*
X518520Y189100D02*
Y197000D01*
X461000Y225700D02*
X510139D01*
X331986Y249986D02*
X333400Y248572D01*
X331900Y249900D02*
X331986Y249986D01*
X333400Y203600D02*
Y248572D01*
X286667Y249900D02*
X331900D01*
X326082Y327186D02*
X326667Y326600D01*
X326082Y327186D02*
Y364784D01*
X286082Y250486D02*
X286667Y249900D01*
X286082Y250486D02*
Y364784D01*
X225000Y42100D02*
Y59828D01*
X225586Y60414D02*
X231514D01*
X225000Y59828D02*
X225586Y60414D01*
X231514D02*
X232100Y61000D01*
Y76200D01*
X205000Y33086D02*
Y42100D01*
Y33086D02*
X205886Y32200D01*
X237014D01*
X237600Y32786D02*
Y112914D01*
X237014Y32200D02*
X237600Y32786D01*
X185586Y25700D02*
X236700D01*
X185000Y26286D02*
Y42100D01*
X241600Y30600D02*
Y121714D01*
X236700Y25700D02*
X241600Y30600D01*
X185000Y26286D02*
X185586Y25700D01*
X328200Y169800D02*
Y220100D01*
X327400Y220900D02*
X328200Y220100D01*
X141700Y220900D02*
X327400D01*
X142286Y299100D02*
X223600D01*
X141700Y220900D02*
Y298514D01*
X142286Y299100D01*
X223600D02*
X226200Y301700D01*
X149000Y239700D02*
Y275814D01*
X149586Y276400D01*
X479352Y373852D02*
Y379514D01*
X480161Y277300D02*
Y310561D01*
X484352Y373452D02*
Y373852D01*
X443877Y277300D02*
Y310921D01*
X24700Y252300D02*
X25600Y251400D01*
X24700Y252300D02*
Y319700D01*
X95600Y131100D02*
X270514D01*
X95300Y131400D02*
X95600Y131100D01*
X175000Y90000D02*
Y121714D01*
X175586Y122300D02*
X241014D01*
X175000Y121714D02*
X175586Y122300D01*
X241014D02*
X241600Y121714D01*
X195000Y42100D02*
Y80000D01*
X195586Y113500D02*
X237014D01*
X237600Y112914D01*
X195000Y90000D02*
Y112914D01*
X195586Y113500D01*
X146300Y12900D02*
X320900D01*
X104900Y165500D02*
X105000Y165400D01*
X56200Y3500D02*
X408214D01*
X145000Y14200D02*
X146300Y12900D01*
X132800Y7600D02*
X395500D01*
X398800Y10900D01*
X124400Y16000D02*
X132800Y7600D01*
X408214Y3500D02*
X408800Y4086D01*
X320900Y12900D02*
X321700Y13700D01*
X45500Y14200D02*
X56200Y3500D01*
X205000Y90000D02*
Y100514D01*
X205886Y101400D01*
X213800D01*
X215000Y42100D02*
Y100200D01*
X213800Y101400D02*
X215000Y100200D01*
X95000Y396314D02*
X95586Y396900D01*
X410714D01*
X95000Y330000D02*
Y396314D01*
X410714Y396900D02*
X411300Y396314D01*
X125000Y330000D02*
Y378200D01*
X136400Y389600D01*
X135000Y330000D02*
Y369300D01*
X151700Y386000D01*
X405200Y261100D02*
X405900Y260400D01*
Y93686D02*
Y260400D01*
X531316Y177286D02*
X531902Y176700D01*
X531316Y177286D02*
Y189100D01*
X531902Y176700D02*
X544650D01*
X528716Y182057D02*
X528757Y182098D01*
X528716Y170227D02*
X529343Y169600D01*
X528716Y170227D02*
Y182057D01*
X528757Y182098D02*
Y188695D01*
X573796Y312112D02*
X573847Y312162D01*
X527834Y311628D02*
X543939D01*
Y312112D02*
X573796D01*
X14586Y53200D02*
X44914D01*
X14000Y164800D02*
X14800Y165600D01*
X14000Y53786D02*
X14586Y53200D01*
X14000Y53786D02*
Y164800D01*
X14800Y165600D02*
X104800D01*
X271100Y29200D02*
Y130514D01*
X270514Y131100D02*
X271100Y130514D01*
X431070Y241931D02*
X517600D01*
Y231400D02*
Y241931D01*
Y231400D02*
X523639Y225361D01*
Y213509D02*
Y225361D01*
X526198Y236559D02*
X526239Y236600D01*
X526198Y213105D02*
Y236559D01*
X357013Y133100D02*
X392514D01*
X508284Y212957D02*
Y213509D01*
X439100Y212600D02*
X507928D01*
X508284Y212957D01*
X521800Y182320D02*
X523639Y184159D01*
X517300Y150100D02*
Y181600D01*
X24700Y319700D02*
X25000Y320000D01*
X136600Y216300D02*
X309814D01*
X135000Y217900D02*
X136600Y216300D01*
X135000Y217900D02*
Y320000D01*
X310400Y138686D02*
Y215714D01*
X309814Y216300D02*
X310400Y215714D01*
X149586Y276400D02*
X229600D01*
X510843Y213509D02*
Y224995D01*
X510139Y225700D02*
X510843Y224995D01*
X83700Y187300D02*
X280214D01*
X281100Y186414D01*
Y29200D02*
Y186414D01*
X84100Y319100D02*
X85000Y320000D01*
X357013Y98100D02*
X393100D01*
X357013Y93100D02*
X405314D01*
X405900Y93686D01*
X310986Y138100D02*
X321187D01*
X310400Y138686D02*
X310986Y138100D01*
X511086Y363100D02*
X535414D01*
X536000Y362514D01*
Y355348D02*
Y362514D01*
X509300Y364886D02*
X511086Y363100D01*
X509300Y364886D02*
Y373852D01*
X105000Y44700D02*
Y80000D01*
X463100Y364300D02*
X503400D01*
X504300Y365200D01*
Y373852D01*
X453600Y344700D02*
Y379514D01*
X454186Y380100D01*
X453600Y344700D02*
X456800Y341500D01*
X443498Y311300D02*
Y382314D01*
X550088Y315312D02*
Y318461D01*
X489200Y394300D02*
X489300Y394200D01*
Y373852D02*
Y394200D01*
X550088Y315312D02*
X573847D01*
X554100Y321025D02*
X556664Y318461D01*
X573847D01*
X554100Y321025D02*
Y387814D01*
X494886Y388400D02*
X553514D01*
X554100Y387814D01*
X494300Y373852D02*
Y387814D01*
X494886Y388400D01*
X484352Y373852D02*
X484600Y374100D01*
Y382314D01*
X478766Y380100D02*
X479352Y379514D01*
X454186Y380100D02*
X478766D01*
X456800Y341500D02*
X479900D01*
X480900Y311300D02*
Y340500D01*
X479900Y341500D02*
X480900Y340500D01*
X444084Y382900D02*
X484014D01*
X484600Y382314D01*
X443498D02*
X444084Y382900D01*
X443498Y311300D02*
X443877Y310921D01*
X480161Y310561D02*
X480900Y311300D01*
X45500Y14200D02*
Y52614D01*
X44914Y53200D02*
X45500Y52614D01*
X229600Y276400D02*
X231200Y278000D01*
X321700Y13700D02*
Y60414D01*
X308900Y61000D02*
X321114D01*
X321700Y60414D01*
X305100Y97500D02*
X305700Y98100D01*
X305100Y64800D02*
Y97500D01*
X305700Y98100D02*
X321187D01*
X305100Y64800D02*
X308900Y61000D01*
X517300Y150100D02*
X521079Y146320D01*
X528757Y213105D02*
Y226814D01*
X529343Y227400D02*
X535200D01*
X528757Y226814D02*
X529343Y227400D01*
X531316Y213105D02*
X531611Y213400D01*
X517300Y181600D02*
X521079Y185380D01*
X523639Y184159D02*
Y189100D01*
X526198Y163100D02*
Y188695D01*
X521079Y185380D02*
Y189100D01*
X357013Y138100D02*
X374704D01*
X408800Y4086D02*
Y29200D01*
X398800Y10900D02*
Y29200D01*
X531611Y213400D02*
X534700D01*
X529343Y169600D02*
X554500D01*
X104800Y165600D02*
X104900Y165500D01*
X124400Y16000D02*
Y79400D01*
X125000Y80000D01*
X296082Y364784D02*
Y379618D01*
X289700Y386000D02*
X296082Y379618D01*
X151700Y386000D02*
X289700D01*
X306000Y364865D02*
X306082Y364784D01*
X306000Y364865D02*
Y378700D01*
X295100Y389600D02*
X306000Y378700D01*
X136400Y389600D02*
X295100D01*
D43*
X497631Y124502D02*
D03*
Y132179D02*
D03*
X521000Y88161D02*
D03*
Y95839D02*
D03*
X414900Y115600D02*
D03*
Y107923D02*
D03*
D44*
X573847Y318461D02*
D03*
Y324761D02*
D03*
Y321611D02*
D03*
Y312162D02*
D03*
Y315312D02*
D03*
D45*
X573748Y337851D02*
D03*
D46*
X590480D02*
D03*
Y299072D02*
D03*
D47*
X573748D02*
D03*
D48*
X536839Y374100D02*
D03*
X529161D02*
D03*
X518961Y335300D02*
D03*
X526639D02*
D03*
X459061Y181600D02*
D03*
X451384D02*
D03*
X385139Y175900D02*
D03*
X377461D02*
D03*
X479300Y277300D02*
D03*
X486977D02*
D03*
X443639D02*
D03*
X435961D02*
D03*
D49*
X545400Y82911D02*
D03*
Y96100D02*
D03*
D50*
X538061Y128000D02*
D03*
X520739D02*
D03*
X510139Y312000D02*
D03*
X527461D02*
D03*
D51*
X508284Y189100D02*
D03*
X510843D02*
D03*
X513402D02*
D03*
X515961D02*
D03*
X518520D02*
D03*
X521079D02*
D03*
X523639D02*
D03*
X526198D02*
D03*
X528757D02*
D03*
X531316D02*
D03*
X508284Y213509D02*
D03*
X510843D02*
D03*
X513402D02*
D03*
X515961D02*
D03*
X518520D02*
D03*
X521079D02*
D03*
X523639D02*
D03*
X526198D02*
D03*
X528757D02*
D03*
X531316D02*
D03*
D52*
X547500Y240700D02*
D03*
X556358D02*
D03*
D53*
X554500Y195871D02*
D03*
Y204729D02*
D03*
D54*
X479489Y89100D02*
D03*
X466300D02*
D03*
D55*
X514300Y373852D02*
D03*
X509300D02*
D03*
X504300D02*
D03*
X499300D02*
D03*
X494300D02*
D03*
X489300D02*
D03*
X484300D02*
D03*
X479300D02*
D03*
X514300Y355348D02*
D03*
X509300D02*
D03*
X504300D02*
D03*
X499300D02*
D03*
X494300D02*
D03*
X489300D02*
D03*
X484300D02*
D03*
X479300D02*
D03*
D56*
X435200Y122861D02*
D03*
Y105539D02*
D03*
D57*
X480900Y311300D02*
D03*
X443498D02*
D03*
D58*
X357013Y93100D02*
D03*
Y98100D02*
D03*
Y103100D02*
D03*
Y108100D02*
D03*
Y113100D02*
D03*
Y118100D02*
D03*
Y123100D02*
D03*
Y128100D02*
D03*
Y133100D02*
D03*
Y138100D02*
D03*
X321187Y93100D02*
D03*
Y98100D02*
D03*
Y103100D02*
D03*
Y108100D02*
D03*
Y113100D02*
D03*
Y118100D02*
D03*
Y123100D02*
D03*
Y128100D02*
D03*
Y133100D02*
D03*
Y138100D02*
D03*
D59*
X56757Y232400D02*
X115760D01*
Y281100D02*
X117517Y279343D01*
X115760Y232400D02*
X117517Y234157D01*
X57057Y281100D02*
X115760D01*
X117517Y234157D02*
Y279343D01*
X356082Y364784D02*
X356091Y364775D01*
Y220909D02*
Y364775D01*
Y220909D02*
X356100Y220900D01*
X291100Y29200D02*
Y66800D01*
X297300Y53000D02*
X301100Y49200D01*
X297300Y127343D02*
X299057Y129100D01*
X317478D01*
X318478Y128100D02*
X321187D01*
X317478Y129100D02*
X318478Y128100D01*
X297300Y53000D02*
Y127343D01*
X305700Y103200D02*
X305750Y103150D01*
X321137D01*
X321187Y103100D01*
X459061Y181100D02*
X459561Y181600D01*
X331300Y66800D02*
X418500Y66800D01*
Y29500D02*
Y66800D01*
Y29500D02*
X418800Y29200D01*
X497631Y181600D02*
X508284D01*
X477500D02*
X497631D01*
X428800Y29200D02*
Y57100D01*
X459561Y181600D02*
X477500D01*
X418500Y66800D02*
X441800D01*
X445100Y6857D02*
X446857Y5100D01*
X441800Y66800D02*
X445100Y63500D01*
X446857Y5100D02*
X499143D01*
X445100Y6857D02*
Y63500D01*
X500900Y6857D02*
Y108343D01*
X499143Y5100D02*
X500900Y6857D01*
X499143Y110100D02*
X500900Y108343D01*
X479257Y110100D02*
X499143D01*
X477500Y111857D02*
Y181600D01*
Y111857D02*
X479257Y110100D01*
X301100Y29200D02*
Y49200D01*
X497631Y181600D02*
Y200400D01*
Y181600D02*
X497631Y181600D01*
X508284D02*
X510843D01*
X497631Y200400D02*
X515961D01*
X479300D02*
X497631D01*
X515961D02*
X516948D01*
X377261Y176100D02*
X377461Y175900D01*
X356100Y176100D02*
X377261D01*
X355900Y176300D02*
X356100Y176100D01*
X251150Y103050D02*
X251200Y103100D01*
X251100Y29200D02*
X251150Y29250D01*
Y103050D01*
X220600Y163000D02*
Y179343D01*
X218843Y181100D02*
X220600Y179343D01*
X55000Y182857D02*
X56757Y181100D01*
X55000Y182857D02*
Y230643D01*
X56757Y181100D02*
X218843D01*
X55000Y283157D02*
Y320000D01*
Y283157D02*
X57057Y281100D01*
X55000Y230643D02*
X56757Y232400D01*
X81257Y143600D02*
X186800D01*
X174600Y21700D02*
X175000Y22100D01*
X174200Y21300D02*
X174600Y21700D01*
X175000Y22100D02*
Y42100D01*
X105500Y90500D02*
Y105443D01*
X81257Y107200D02*
X103743D01*
X105000Y90000D02*
X105500Y90500D01*
X103743Y107200D02*
X105500Y105443D01*
X79500Y108957D02*
X81257Y107200D01*
X79500Y108957D02*
Y141843D01*
X81257Y143600D01*
X374704Y138100D02*
X377461Y140857D01*
Y175900D01*
X548600Y149500D02*
X590443D01*
X593800Y152857D01*
X577700Y202000D02*
X591300D01*
X543939Y312228D02*
Y335300D01*
X527648Y312228D02*
X543939D01*
X526239Y236600D02*
Y248582D01*
X526200Y248621D02*
Y260602D01*
Y248621D02*
X526239Y248582D01*
X357063Y103150D02*
X388750D01*
X388800Y103200D01*
X526200Y260602D02*
X528898Y263300D01*
X575943D01*
X357113Y128000D02*
X378800D01*
X499300Y382143D02*
X501057Y383900D01*
X519361D01*
X499300Y373852D02*
Y382143D01*
X529161Y374100D02*
Y374297D01*
X527709Y375750D02*
X529161Y374297D01*
X527512Y375750D02*
X527709D01*
X519361Y383900D02*
X527512Y375750D01*
X516557Y346300D02*
X542181D01*
X543939Y344543D01*
X526639Y335300D02*
X543939D01*
Y344543D01*
X514300Y348557D02*
X516557Y346300D01*
X514300Y348557D02*
Y355348D01*
X527461Y312000D02*
X527834Y311628D01*
X310400Y75200D02*
X433685D01*
X435443Y76957D02*
Y89100D01*
X310400Y75200D02*
Y91343D01*
X433685Y75200D02*
X435443Y76957D01*
X310400Y91343D02*
X312157Y93100D01*
X321187D01*
X535200Y227400D02*
X545743D01*
X534995Y213105D02*
X577700D01*
X521079Y128341D02*
Y146320D01*
X520739Y128000D02*
X521079Y128341D01*
X414900Y90857D02*
Y106689D01*
Y90857D02*
X416657Y89100D01*
X435443D01*
X593800Y152857D02*
Y199500D01*
X591300Y202000D02*
X593800Y199500D01*
X521000Y95839D02*
Y128000D01*
X378700Y29300D02*
Y57000D01*
X378600Y57100D02*
X378700Y57000D01*
X435443Y89100D02*
X466300D01*
X547500Y229157D02*
Y240700D01*
X545743Y227400D02*
X547500Y229157D01*
X577700Y223105D02*
Y261543D01*
X575943Y263300D02*
X577700Y261543D01*
X526198Y163100D02*
X575943D01*
X554500Y169600D02*
Y195871D01*
X577700Y164857D02*
Y189100D01*
X575943Y163100D02*
X577700Y164857D01*
X545139Y95839D02*
X545400Y96100D01*
X521000Y95839D02*
X545139D01*
X544650Y30750D02*
Y82161D01*
X545400Y82911D01*
X543900Y30000D02*
X544650Y30750D01*
X357013Y103100D02*
X357063Y103150D01*
X435200Y105539D02*
X435443Y105296D01*
Y89100D02*
Y105296D01*
X378700Y29300D02*
X378800Y29200D01*
X481454Y89100D02*
X483300Y87253D01*
Y29200D02*
Y87253D01*
X479489Y89100D02*
X481454D01*
X357013Y128100D02*
X357113Y128000D01*
D60*
X583000Y327123D02*
D03*
Y309800D02*
D03*
D61*
X428800Y29200D02*
D03*
X301100D02*
D03*
X356082Y364784D02*
D03*
X225000Y42100D02*
D03*
D62*
X418800Y29200D02*
D03*
X408800D02*
D03*
X398800D02*
D03*
X388800D02*
D03*
X378800D02*
D03*
X577700Y203105D02*
D03*
Y213105D02*
D03*
Y223105D02*
D03*
X251100Y29200D02*
D03*
X261100D02*
D03*
X271100D02*
D03*
X281100D02*
D03*
X291100D02*
D03*
X286082Y364784D02*
D03*
X296082D02*
D03*
X306082D02*
D03*
X316082D02*
D03*
X326082D02*
D03*
X336082D02*
D03*
X346082D02*
D03*
X175000Y42100D02*
D03*
X185000D02*
D03*
X195000D02*
D03*
X205000D02*
D03*
X215000D02*
D03*
D63*
X25000Y80000D02*
D03*
Y320000D02*
D03*
D64*
Y90000D02*
D03*
X35000Y80000D02*
D03*
Y90000D02*
D03*
X45000Y80000D02*
D03*
Y90000D02*
D03*
X55000Y80000D02*
D03*
Y90000D02*
D03*
X65000Y80000D02*
D03*
Y90000D02*
D03*
X75000Y80000D02*
D03*
Y90000D02*
D03*
X85000Y80000D02*
D03*
Y90000D02*
D03*
X95000Y80000D02*
D03*
Y90000D02*
D03*
X105000Y80000D02*
D03*
Y90000D02*
D03*
X115000Y80000D02*
D03*
Y90000D02*
D03*
X125000Y80000D02*
D03*
Y90000D02*
D03*
X135000Y80000D02*
D03*
Y90000D02*
D03*
X145000Y80000D02*
D03*
Y90000D02*
D03*
X155000Y80000D02*
D03*
Y90000D02*
D03*
X165000Y80000D02*
D03*
Y90000D02*
D03*
X175000Y80000D02*
D03*
Y90000D02*
D03*
X185000Y80000D02*
D03*
Y90000D02*
D03*
X195000Y80000D02*
D03*
Y90000D02*
D03*
X205000Y80000D02*
D03*
Y90000D02*
D03*
X25000Y330000D02*
D03*
X35000Y320000D02*
D03*
Y330000D02*
D03*
X45000Y320000D02*
D03*
Y330000D02*
D03*
X55000Y320000D02*
D03*
Y330000D02*
D03*
X65000Y320000D02*
D03*
Y330000D02*
D03*
X75000Y320000D02*
D03*
Y330000D02*
D03*
X85000Y320000D02*
D03*
Y330000D02*
D03*
X95000Y320000D02*
D03*
Y330000D02*
D03*
X105000Y320000D02*
D03*
Y330000D02*
D03*
X115000Y320000D02*
D03*
Y330000D02*
D03*
X125000Y320000D02*
D03*
Y330000D02*
D03*
X135000Y320000D02*
D03*
Y330000D02*
D03*
X145000Y320000D02*
D03*
Y330000D02*
D03*
X155000Y320000D02*
D03*
Y330000D02*
D03*
X165000Y320000D02*
D03*
Y330000D02*
D03*
X175000Y320000D02*
D03*
Y330000D02*
D03*
X185000Y320000D02*
D03*
Y330000D02*
D03*
X195000Y320000D02*
D03*
Y330000D02*
D03*
X205000Y320000D02*
D03*
Y330000D02*
D03*
D65*
X523900Y30000D02*
D03*
X463300Y29200D02*
D03*
D66*
X543900Y30000D02*
D03*
X483300Y29200D02*
D03*
D67*
X577700Y193105D02*
D03*
D68*
X267882Y367884D02*
D03*
X373000D02*
D03*
Y241900D02*
D03*
X267882D02*
D03*
D69*
X243600Y352300D02*
D03*
X245300Y379000D02*
D03*
X233700Y255800D02*
D03*
X110807Y251400D02*
D03*
X356100Y220900D02*
D03*
X398500Y351500D02*
D03*
X291100Y66800D02*
D03*
X331300D02*
D03*
X305700Y103200D02*
D03*
X428800Y57100D02*
D03*
X521800Y170607D02*
D03*
X424600Y170600D02*
D03*
X479300Y200400D02*
D03*
X461000Y225700D02*
D03*
X355900Y176300D02*
D03*
X338400Y189100D02*
D03*
X333400Y203600D02*
D03*
X232100Y76200D02*
D03*
X328200Y169800D02*
D03*
X251200Y103100D02*
D03*
X220600Y163000D02*
D03*
X149000Y239700D02*
D03*
X186800Y143600D02*
D03*
X95300Y131400D02*
D03*
X174600Y21700D02*
D03*
X392600Y291100D02*
D03*
X405200Y261100D02*
D03*
X548600Y149500D02*
D03*
X544650Y176700D02*
D03*
X430400Y163700D02*
D03*
X388800Y103200D02*
D03*
X104900Y165500D02*
D03*
X83700Y187300D02*
D03*
X378800Y128000D02*
D03*
X439100Y212600D02*
D03*
X424614Y384100D02*
D03*
X536000Y355348D02*
D03*
X105000Y44700D02*
D03*
X463100Y364300D02*
D03*
X550088Y318461D02*
D03*
X489200Y394300D02*
D03*
X146300Y12900D02*
D03*
X378600Y57100D02*
D03*
D70*
X25000Y375000D02*
D03*
X575000D02*
D03*
Y25000D02*
D03*
X25000D02*
D03*
M02*
