G04*
G04 #@! TF.GenerationSoftware,Altium Limited,Altium Designer,24.8.2 (39)*
G04*
G04 Layer_Color=2752767*
%FSLAX25Y25*%
%MOIN*%
G70*
G04*
G04 #@! TF.SameCoordinates,32E85319-11A5-466C-997F-65B2DE774383*
G04*
G04*
G04 #@! TF.FilePolarity,Positive*
G04*
G01*
G75*
%ADD74C,0.00200*%
%ADD75C,0.00267*%
D74*
X583000Y326323D02*
X582200Y327923D01*
X583800D01*
X583000Y326323D01*
Y309000D02*
X582200Y310600D01*
X583800D01*
X583000Y309000D01*
X428000Y28400D02*
Y30000D01*
X429600D01*
Y28400D01*
X428000D01*
X418000D02*
Y30000D01*
X419600D01*
Y28400D01*
X418000D01*
X408000D02*
Y30000D01*
X409600D01*
Y28400D01*
X408000D01*
X398000D02*
Y30000D01*
X399600D01*
Y28400D01*
X398000D01*
X388000D02*
Y30000D01*
X389600D01*
Y28400D01*
X388000D01*
X378000D02*
Y30000D01*
X379600D01*
Y28400D01*
X378000D01*
X24200Y79200D02*
Y80800D01*
X25800D01*
Y79200D01*
X24200D01*
Y89200D02*
Y90800D01*
X25800D01*
Y89200D01*
X24200D01*
X34200Y79200D02*
Y80800D01*
X35800D01*
Y79200D01*
X34200D01*
Y89200D02*
Y90800D01*
X35800D01*
Y89200D01*
X34200D01*
X44200Y79200D02*
Y80800D01*
X45800D01*
Y79200D01*
X44200D01*
Y89200D02*
Y90800D01*
X45800D01*
Y89200D01*
X44200D01*
X54200Y79200D02*
Y80800D01*
X55800D01*
Y79200D01*
X54200D01*
Y89200D02*
Y90800D01*
X55800D01*
Y89200D01*
X54200D01*
X64200Y79200D02*
Y80800D01*
X65800D01*
Y79200D01*
X64200D01*
Y89200D02*
Y90800D01*
X65800D01*
Y89200D01*
X64200D01*
X74200Y79200D02*
Y80800D01*
X75800D01*
Y79200D01*
X74200D01*
Y89200D02*
Y90800D01*
X75800D01*
Y89200D01*
X74200D01*
X84200Y79200D02*
Y80800D01*
X85800D01*
Y79200D01*
X84200D01*
Y89200D02*
Y90800D01*
X85800D01*
Y89200D01*
X84200D01*
X94200Y79200D02*
Y80800D01*
X95800D01*
Y79200D01*
X94200D01*
Y89200D02*
Y90800D01*
X95800D01*
Y89200D01*
X94200D01*
X104200Y79200D02*
Y80800D01*
X105800D01*
Y79200D01*
X104200D01*
Y89200D02*
Y90800D01*
X105800D01*
Y89200D01*
X104200D01*
X114200Y79200D02*
Y80800D01*
X115800D01*
Y79200D01*
X114200D01*
Y89200D02*
Y90800D01*
X115800D01*
Y89200D01*
X114200D01*
X124200Y79200D02*
Y80800D01*
X125800D01*
Y79200D01*
X124200D01*
Y89200D02*
Y90800D01*
X125800D01*
Y89200D01*
X124200D01*
X134200Y79200D02*
Y80800D01*
X135800D01*
Y79200D01*
X134200D01*
Y89200D02*
Y90800D01*
X135800D01*
Y89200D01*
X134200D01*
X144200Y79200D02*
Y80800D01*
X145800D01*
Y79200D01*
X144200D01*
Y89200D02*
Y90800D01*
X145800D01*
Y89200D01*
X144200D01*
X154200Y79200D02*
Y80800D01*
X155800D01*
Y79200D01*
X154200D01*
Y89200D02*
Y90800D01*
X155800D01*
Y89200D01*
X154200D01*
X164200Y79200D02*
Y80800D01*
X165800D01*
Y79200D01*
X164200D01*
Y89200D02*
Y90800D01*
X165800D01*
Y89200D01*
X164200D01*
X174200Y79200D02*
Y80800D01*
X175800D01*
Y79200D01*
X174200D01*
Y89200D02*
Y90800D01*
X175800D01*
Y89200D01*
X174200D01*
X184200Y79200D02*
Y80800D01*
X185800D01*
Y79200D01*
X184200D01*
Y89200D02*
Y90800D01*
X185800D01*
Y89200D01*
X184200D01*
X194200Y79200D02*
Y80800D01*
X195800D01*
Y79200D01*
X194200D01*
Y89200D02*
Y90800D01*
X195800D01*
Y89200D01*
X194200D01*
X204200Y79200D02*
Y80800D01*
X205800D01*
Y79200D01*
X204200D01*
Y89200D02*
Y90800D01*
X205800D01*
Y89200D01*
X204200D01*
X24200Y319200D02*
Y320800D01*
X25800D01*
Y319200D01*
X24200D01*
Y329200D02*
Y330800D01*
X25800D01*
Y329200D01*
X24200D01*
X34200Y319200D02*
Y320800D01*
X35800D01*
Y319200D01*
X34200D01*
Y329200D02*
Y330800D01*
X35800D01*
Y329200D01*
X34200D01*
X44200Y319200D02*
Y320800D01*
X45800D01*
Y319200D01*
X44200D01*
Y329200D02*
Y330800D01*
X45800D01*
Y329200D01*
X44200D01*
X54200Y319200D02*
Y320800D01*
X55800D01*
Y319200D01*
X54200D01*
Y329200D02*
Y330800D01*
X55800D01*
Y329200D01*
X54200D01*
X64200Y319200D02*
Y320800D01*
X65800D01*
Y319200D01*
X64200D01*
Y329200D02*
Y330800D01*
X65800D01*
Y329200D01*
X64200D01*
X74200Y319200D02*
Y320800D01*
X75800D01*
Y319200D01*
X74200D01*
Y329200D02*
Y330800D01*
X75800D01*
Y329200D01*
X74200D01*
X84200Y319200D02*
Y320800D01*
X85800D01*
Y319200D01*
X84200D01*
Y329200D02*
Y330800D01*
X85800D01*
Y329200D01*
X84200D01*
X94200Y319200D02*
Y320800D01*
X95800D01*
Y319200D01*
X94200D01*
Y329200D02*
Y330800D01*
X95800D01*
Y329200D01*
X94200D01*
X104200Y319200D02*
Y320800D01*
X105800D01*
Y319200D01*
X104200D01*
Y329200D02*
Y330800D01*
X105800D01*
Y329200D01*
X104200D01*
X114200Y319200D02*
Y320800D01*
X115800D01*
Y319200D01*
X114200D01*
Y329200D02*
Y330800D01*
X115800D01*
Y329200D01*
X114200D01*
X124200Y319200D02*
Y320800D01*
X125800D01*
Y319200D01*
X124200D01*
Y329200D02*
Y330800D01*
X125800D01*
Y329200D01*
X124200D01*
X134200Y319200D02*
Y320800D01*
X135800D01*
Y319200D01*
X134200D01*
Y329200D02*
Y330800D01*
X135800D01*
Y329200D01*
X134200D01*
X144200Y319200D02*
Y320800D01*
X145800D01*
Y319200D01*
X144200D01*
Y329200D02*
Y330800D01*
X145800D01*
Y329200D01*
X144200D01*
X154200Y319200D02*
Y320800D01*
X155800D01*
Y319200D01*
X154200D01*
Y329200D02*
Y330800D01*
X155800D01*
Y329200D01*
X154200D01*
X164200Y319200D02*
Y320800D01*
X165800D01*
Y319200D01*
X164200D01*
Y329200D02*
Y330800D01*
X165800D01*
Y329200D01*
X164200D01*
X174200Y319200D02*
Y320800D01*
X175800D01*
Y319200D01*
X174200D01*
Y329200D02*
Y330800D01*
X175800D01*
Y329200D01*
X174200D01*
X184200Y319200D02*
Y320800D01*
X185800D01*
Y319200D01*
X184200D01*
Y329200D02*
Y330800D01*
X185800D01*
Y329200D01*
X184200D01*
X194200Y319200D02*
Y320800D01*
X195800D01*
Y319200D01*
X194200D01*
Y329200D02*
Y330800D01*
X195800D01*
Y329200D01*
X194200D01*
X204200Y319200D02*
Y320800D01*
X205800D01*
Y319200D01*
X204200D01*
Y329200D02*
Y330800D01*
X205800D01*
Y329200D01*
X204200D01*
X576900Y192305D02*
Y193905D01*
X578500D01*
Y192305D01*
X576900D01*
Y202305D02*
Y203905D01*
X578500D01*
Y202305D01*
X576900D01*
Y212305D02*
Y213905D01*
X578500D01*
Y212305D01*
X576900D01*
Y222305D02*
Y223905D01*
X578500D01*
Y222305D01*
X576900D01*
X250300Y28400D02*
Y30000D01*
X251900D01*
Y28400D01*
X250300D01*
X260300D02*
Y30000D01*
X261900D01*
Y28400D01*
X260300D01*
X270300D02*
Y30000D01*
X271900D01*
Y28400D01*
X270300D01*
X280300D02*
Y30000D01*
X281900D01*
Y28400D01*
X280300D01*
X290300D02*
Y30000D01*
X291900D01*
Y28400D01*
X290300D01*
X300300D02*
Y30000D01*
X301900D01*
Y28400D01*
X300300D01*
X285282Y363984D02*
Y365584D01*
X286882D01*
Y363984D01*
X285282D01*
X295282D02*
Y365584D01*
X296882D01*
Y363984D01*
X295282D01*
X305282D02*
Y365584D01*
X306882D01*
Y363984D01*
X305282D01*
X315282D02*
Y365584D01*
X316882D01*
Y363984D01*
X315282D01*
X325282D02*
Y365584D01*
X326882D01*
Y363984D01*
X325282D01*
X335282D02*
Y365584D01*
X336882D01*
Y363984D01*
X335282D01*
X345282D02*
Y365584D01*
X346882D01*
Y363984D01*
X345282D01*
X355282D02*
Y365584D01*
X356882D01*
Y363984D01*
X355282D01*
X267882Y367084D02*
X268282Y367484D01*
X268682D01*
X268282Y367884D01*
X268682Y368284D01*
X268282D01*
X267882Y368684D01*
X267482Y368284D01*
X267082D01*
X267482Y367884D01*
X267082Y367484D01*
X267482D01*
X267882Y367084D01*
X373000D02*
X373400Y367484D01*
X373800D01*
X373400Y367884D01*
X373800Y368284D01*
X373400D01*
X373000Y368684D01*
X372600Y368284D01*
X372200D01*
X372600Y367884D01*
X372200Y367484D01*
X372600D01*
X373000Y367084D01*
Y241100D02*
X373400Y241500D01*
X373800D01*
X373400Y241900D01*
X373800Y242300D01*
X373400D01*
X373000Y242700D01*
X372600Y242300D01*
X372200D01*
X372600Y241900D01*
X372200Y241500D01*
X372600D01*
X373000Y241100D01*
X267882D02*
X268282Y241500D01*
X268682D01*
X268282Y241900D01*
X268682Y242300D01*
X268282D01*
X267882Y242700D01*
X267482Y242300D01*
X267082D01*
X267482Y241900D01*
X267082Y241500D01*
X267482D01*
X267882Y241100D01*
X174200Y41300D02*
Y42900D01*
X175800D01*
Y41300D01*
X174200D01*
X184200D02*
Y42900D01*
X185800D01*
Y41300D01*
X184200D01*
X194200D02*
Y42900D01*
X195800D01*
Y41300D01*
X194200D01*
X204200D02*
Y42900D01*
X205800D01*
Y41300D01*
X204200D01*
X214200D02*
Y42900D01*
X215800D01*
Y41300D01*
X214200D01*
X224200D02*
Y42900D01*
X225800D01*
Y41300D01*
X224200D01*
X242800Y351500D02*
X243200Y352300D01*
X242800Y353100D01*
X243600Y352700D01*
X244400Y353100D01*
X244000Y352300D01*
X244400Y351500D01*
X243600Y351900D01*
X242800Y351500D01*
X244500Y378200D02*
X244900Y379000D01*
X244500Y379800D01*
X245300Y379400D01*
X246100Y379800D01*
X245700Y379000D01*
X246100Y378200D01*
X245300Y378600D01*
X244500Y378200D01*
X232900Y255000D02*
X233300Y255800D01*
X232900Y256600D01*
X233700Y256200D01*
X234500Y256600D01*
X234100Y255800D01*
X234500Y255000D01*
X233700Y255400D01*
X232900Y255000D01*
X110007Y250600D02*
X110407Y251400D01*
X110007Y252200D01*
X110807Y251800D01*
X111607Y252200D01*
X111207Y251400D01*
X111607Y250600D01*
X110807Y251000D01*
X110007Y250600D01*
X355300Y220100D02*
X355700Y220900D01*
X355300Y221700D01*
X356100Y221300D01*
X356900Y221700D01*
X356500Y220900D01*
X356900Y220100D01*
X356100Y220500D01*
X355300Y220100D01*
X397700Y350700D02*
X398100Y351500D01*
X397700Y352300D01*
X398500Y351900D01*
X399300Y352300D01*
X398900Y351500D01*
X399300Y350700D01*
X398500Y351100D01*
X397700Y350700D01*
X290300Y66000D02*
X290700Y66800D01*
X290300Y67600D01*
X291100Y67200D01*
X291900Y67600D01*
X291500Y66800D01*
X291900Y66000D01*
X291100Y66400D01*
X290300Y66000D01*
X330500D02*
X330900Y66800D01*
X330500Y67600D01*
X331300Y67200D01*
X332100Y67600D01*
X331700Y66800D01*
X332100Y66000D01*
X331300Y66400D01*
X330500Y66000D01*
X304900Y102400D02*
X305300Y103200D01*
X304900Y104000D01*
X305700Y103600D01*
X306500Y104000D01*
X306100Y103200D01*
X306500Y102400D01*
X305700Y102800D01*
X304900Y102400D01*
X428000Y56300D02*
X428400Y57100D01*
X428000Y57900D01*
X428800Y57500D01*
X429600Y57900D01*
X429200Y57100D01*
X429600Y56300D01*
X428800Y56700D01*
X428000Y56300D01*
X521000Y169807D02*
X521400Y170607D01*
X521000Y171407D01*
X521800Y171007D01*
X522600Y171407D01*
X522200Y170607D01*
X522600Y169807D01*
X521800Y170207D01*
X521000Y169807D01*
X423800Y169800D02*
X424200Y170600D01*
X423800Y171400D01*
X424600Y171000D01*
X425400Y171400D01*
X425000Y170600D01*
X425400Y169800D01*
X424600Y170200D01*
X423800Y169800D01*
X478500Y199600D02*
X478900Y200400D01*
X478500Y201200D01*
X479300Y200800D01*
X480100Y201200D01*
X479700Y200400D01*
X480100Y199600D01*
X479300Y200000D01*
X478500Y199600D01*
X460200Y224900D02*
X460600Y225700D01*
X460200Y226500D01*
X461000Y226100D01*
X461800Y226500D01*
X461400Y225700D01*
X461800Y224900D01*
X461000Y225300D01*
X460200Y224900D01*
X355100Y175500D02*
X355500Y176300D01*
X355100Y177100D01*
X355900Y176700D01*
X356700Y177100D01*
X356300Y176300D01*
X356700Y175500D01*
X355900Y175900D01*
X355100Y175500D01*
X337600Y188300D02*
X338000Y189100D01*
X337600Y189900D01*
X338400Y189500D01*
X339200Y189900D01*
X338800Y189100D01*
X339200Y188300D01*
X338400Y188700D01*
X337600Y188300D01*
X332600Y202800D02*
X333000Y203600D01*
X332600Y204400D01*
X333400Y204000D01*
X334200Y204400D01*
X333800Y203600D01*
X334200Y202800D01*
X333400Y203200D01*
X332600Y202800D01*
X231300Y75400D02*
X231700Y76200D01*
X231300Y77000D01*
X232100Y76600D01*
X232900Y77000D01*
X232500Y76200D01*
X232900Y75400D01*
X232100Y75800D01*
X231300Y75400D01*
X327400Y169000D02*
X327800Y169800D01*
X327400Y170600D01*
X328200Y170200D01*
X329000Y170600D01*
X328600Y169800D01*
X329000Y169000D01*
X328200Y169400D01*
X327400Y169000D01*
X250400Y102300D02*
X250800Y103100D01*
X250400Y103900D01*
X251200Y103500D01*
X252000Y103900D01*
X251600Y103100D01*
X252000Y102300D01*
X251200Y102700D01*
X250400Y102300D01*
X219800Y162200D02*
X220200Y163000D01*
X219800Y163800D01*
X220600Y163400D01*
X221400Y163800D01*
X221000Y163000D01*
X221400Y162200D01*
X220600Y162600D01*
X219800Y162200D01*
X148200Y238900D02*
X148600Y239700D01*
X148200Y240500D01*
X149000Y240100D01*
X149800Y240500D01*
X149400Y239700D01*
X149800Y238900D01*
X149000Y239300D01*
X148200Y238900D01*
X186000Y142800D02*
X186400Y143600D01*
X186000Y144400D01*
X186800Y144000D01*
X187600Y144400D01*
X187200Y143600D01*
X187600Y142800D01*
X186800Y143200D01*
X186000Y142800D01*
X94500Y130600D02*
X94900Y131400D01*
X94500Y132200D01*
X95300Y131800D01*
X96100Y132200D01*
X95700Y131400D01*
X96100Y130600D01*
X95300Y131000D01*
X94500Y130600D01*
X173800Y20900D02*
X174200Y21700D01*
X173800Y22500D01*
X174600Y22100D01*
X175400Y22500D01*
X175000Y21700D01*
X175400Y20900D01*
X174600Y21300D01*
X173800Y20900D01*
X391800Y290300D02*
X392200Y291100D01*
X391800Y291900D01*
X392600Y291500D01*
X393400Y291900D01*
X393000Y291100D01*
X393400Y290300D01*
X392600Y290700D01*
X391800Y290300D01*
X404400Y260300D02*
X404800Y261100D01*
X404400Y261900D01*
X405200Y261500D01*
X406000Y261900D01*
X405600Y261100D01*
X406000Y260300D01*
X405200Y260700D01*
X404400Y260300D01*
X547800Y148700D02*
X548200Y149500D01*
X547800Y150300D01*
X548600Y149900D01*
X549400Y150300D01*
X549000Y149500D01*
X549400Y148700D01*
X548600Y149100D01*
X547800Y148700D01*
X543850Y175900D02*
X544250Y176700D01*
X543850Y177500D01*
X544650Y177100D01*
X545450Y177500D01*
X545050Y176700D01*
X545450Y175900D01*
X544650Y176300D01*
X543850Y175900D01*
X429600Y162900D02*
X430000Y163700D01*
X429600Y164500D01*
X430400Y164100D01*
X431200Y164500D01*
X430800Y163700D01*
X431200Y162900D01*
X430400Y163300D01*
X429600Y162900D01*
X388000Y102400D02*
X388400Y103200D01*
X388000Y104000D01*
X388800Y103600D01*
X389600Y104000D01*
X389200Y103200D01*
X389600Y102400D01*
X388800Y102800D01*
X388000Y102400D01*
X104100Y164700D02*
X104500Y165500D01*
X104100Y166300D01*
X104900Y165900D01*
X105700Y166300D01*
X105300Y165500D01*
X105700Y164700D01*
X104900Y165100D01*
X104100Y164700D01*
X82900Y186500D02*
X83300Y187300D01*
X82900Y188100D01*
X83700Y187700D01*
X84500Y188100D01*
X84100Y187300D01*
X84500Y186500D01*
X83700Y186900D01*
X82900Y186500D01*
X378000Y127200D02*
X378400Y128000D01*
X378000Y128800D01*
X378800Y128400D01*
X379600Y128800D01*
X379200Y128000D01*
X379600Y127200D01*
X378800Y127600D01*
X378000Y127200D01*
X438300Y211800D02*
X438700Y212600D01*
X438300Y213400D01*
X439100Y213000D01*
X439900Y213400D01*
X439500Y212600D01*
X439900Y211800D01*
X439100Y212200D01*
X438300Y211800D01*
X423814Y383300D02*
X424214Y384100D01*
X423814Y384900D01*
X424614Y384500D01*
X425414Y384900D01*
X425014Y384100D01*
X425414Y383300D01*
X424614Y383700D01*
X423814Y383300D01*
X535200Y354548D02*
X535600Y355348D01*
X535200Y356148D01*
X536000Y355748D01*
X536800Y356148D01*
X536400Y355348D01*
X536800Y354548D01*
X536000Y354948D01*
X535200Y354548D01*
X104200Y43900D02*
X104600Y44700D01*
X104200Y45500D01*
X105000Y45100D01*
X105800Y45500D01*
X105400Y44700D01*
X105800Y43900D01*
X105000Y44300D01*
X104200Y43900D01*
X462300Y363500D02*
X462700Y364300D01*
X462300Y365100D01*
X463100Y364700D01*
X463900Y365100D01*
X463500Y364300D01*
X463900Y363500D01*
X463100Y363900D01*
X462300Y363500D01*
X549288Y317661D02*
X549688Y318461D01*
X549288Y319261D01*
X550088Y318861D01*
X550888Y319261D01*
X550488Y318461D01*
X550888Y317661D01*
X550088Y318061D01*
X549288Y317661D01*
X488400Y393500D02*
X488800Y394300D01*
X488400Y395100D01*
X489200Y394700D01*
X490000Y395100D01*
X489600Y394300D01*
X490000Y393500D01*
X489200Y393900D01*
X488400Y393500D01*
X145500Y12100D02*
X145900Y12900D01*
X145500Y13700D01*
X146300Y13300D01*
X147100Y13700D01*
X146700Y12900D01*
X147100Y12100D01*
X146300Y12500D01*
X145500Y12100D01*
X377800Y56300D02*
X378200Y57100D01*
X377800Y57900D01*
X378600Y57500D01*
X379400Y57900D01*
X379000Y57100D01*
X379400Y56300D01*
X378600Y56700D01*
X377800Y56300D01*
X24200Y374200D02*
X24600D01*
X25000Y374600D01*
X25400Y374200D01*
X25800D01*
Y374600D01*
X25400Y375000D01*
X25800Y375400D01*
Y375800D01*
X25400D01*
X25000Y375400D01*
X24600Y375800D01*
X24200D01*
Y375400D01*
X24600Y375000D01*
X24200Y374600D01*
Y374200D01*
X574200D02*
X574600D01*
X575000Y374600D01*
X575400Y374200D01*
X575800D01*
Y374600D01*
X575400Y375000D01*
X575800Y375400D01*
Y375800D01*
X575400D01*
X575000Y375400D01*
X574600Y375800D01*
X574200D01*
Y375400D01*
X574600Y375000D01*
X574200Y374600D01*
Y374200D01*
Y24200D02*
X574600D01*
X575000Y24600D01*
X575400Y24200D01*
X575800D01*
Y24600D01*
X575400Y25000D01*
X575800Y25400D01*
Y25800D01*
X575400D01*
X575000Y25400D01*
X574600Y25800D01*
X574200D01*
Y25400D01*
X574600Y25000D01*
X574200Y24600D01*
Y24200D01*
X24200D02*
X24600D01*
X25000Y24600D01*
X25400Y24200D01*
X25800D01*
Y24600D01*
X25400Y25000D01*
X25800Y25400D01*
Y25800D01*
X25400D01*
X25000Y25400D01*
X24600Y25800D01*
X24200D01*
Y25400D01*
X24600Y25000D01*
X24200Y24600D01*
Y24200D01*
D75*
X524700Y30000D02*
G03*
X524700Y30000I-800J0D01*
G01*
X544700D02*
G03*
X544700Y30000I-800J0D01*
G01*
X464100Y29200D02*
G03*
X464100Y29200I-800J0D01*
G01*
X484100D02*
G03*
X484100Y29200I-800J0D01*
G01*
M02*
